<svg xmlns="http://www.w3.org/2000/svg"><defs><font id="OpenSansCondensed-Regular" horiz-adv-x="0"><font-face font-family="Open Sans Condensed" font-weight="400" font-stretch="condensed" units-per-em="2048" ascent="1638" descent="-410" x-height="1098" cap-height="1462" bbox="-1068 -546 1982 2140" underline-thickness="50" underline-position="-125" unicode-range="U+000D-FFFD"/><glyph glyph-name="f_f" unicode="ff" horiz-adv-x="1017" d="M479 968H306V0H153v968H18v83l135 52v74q0 125 21.5 212t75 132.5T397 1567q44 0 81.5-8t77.5-24l-40-124q-28 10-52.5 15.5T415 1432q-62 0-84.5-54.5T306 1181v-83h173V968zm509 0H815V0H662v968H527v83l135 52v74q0 125 21.5 212t75 132.5T906 1567q44 0 81.5-8t77.5-24l-40-124q-28 10-52.5 15.5T924 1432q-62 0-84.5-54.5T815 1181v-83h173V968z"/><glyph glyph-name="fi" unicode="fi" horiz-adv-x="929" d="M479 968H306V0H153v968H18v83l135 52v74q0 125 21.5 212t75 132.5T397 1567q44 0 81.5-8t77.5-24l-40-124q-28 10-52.5 15.5T415 1432q-62 0-84.5-54.5T306 1181v-83h173V968zm317 130V0H643v1098h153zm-74 412q47 0 68.5-30t21.5-83q0-52-23-82t-67-30q-43 0-68 30t-25 82q0 55 24 84t69 29z"/><glyph glyph-name="fl" unicode="fl" horiz-adv-x="927" d="M479 968H306V0H153v968H18v83l135 52v74q0 125 21.5 212t75 132.5T397 1567q44 0 81.5-8t77.5-24l-40-124q-28 10-52.5 15.5T415 1432q-62 0-84.5-54.5T306 1181v-83h173V968zM795 0H641v1556h154V0z"/><glyph glyph-name="f_f_i" unicode="ffi" horiz-adv-x="1438" d="M479 968H306V0H153v968H18v83l135 52v74q0 125 21.5 212t75 132.5T397 1567q44 0 81.5-8t77.5-24l-40-124q-28 10-52.5 15.5T415 1432q-62 0-84.5-54.5T306 1181v-83h173V968zm507 0H813V0H660v968H525v83l135 52v74q0 125 21.5 212t75 132.5T904 1567q44 0 81.5-8t77.5-24l-40-124q-28 10-52.5 15.5T922 1432q-62 0-84.5-54.5T813 1181v-83h173V968zm316 130V0h-153v1098h153zm-74 412q47 0 68.5-30t21.5-83q0-52-23-82t-67-30q-43 0-68 30t-25 82q0 55 24 84t69 29z"/><glyph glyph-name="f_f_l" unicode="ffl" horiz-adv-x="1434" d="M479 968H306V0H153v968H18v83l135 52v74q0 125 21.5 212t75 132.5T397 1567q44 0 81.5-8t77.5-24l-40-124q-28 10-52.5 15.5T415 1432q-62 0-84.5-54.5T306 1181v-83h173V968zm507 0H813V0H660v968H525v83l135 52v74q0 125 21.5 212t75 132.5T904 1567q44 0 81.5-8t77.5-24l-40-124q-28 10-52.5 15.5T922 1432q-62 0-84.5-54.5T813 1181v-83h173V968zM1301 0h-154v1556h154V0z"/><glyph glyph-name=".notdef" horiz-adv-x="1229"/><glyph glyph-name=".null"/><glyph glyph-name="nonmarkingreturn" horiz-adv-x="682"/><glyph glyph-name="NULL"/><glyph glyph-name="NULL"/><glyph glyph-name="CR" horiz-adv-x="380"/><glyph glyph-name="space" horiz-adv-x="380"/><glyph glyph-name="exclam" unicode="!" horiz-adv-x="472" d="M294 405H178l-36 1057h186zM133 107q0 61 26 93t78 32q48 0 76-29.5t28-95.5q0-64-29.5-94T237-17q-51 0-77.5 31.5T133 107z"/><glyph glyph-name="quotedbl" unicode="&quot;" horiz-adv-x="757" d="m299 1462-30-528H153l-32 528h178zm339 0-30-528H492l-32 528h178z"/><glyph glyph-name="numbersign" unicode="#" horiz-adv-x="934" d="m714 927-42-354h179V448H658L601 0H481l56 448H327L274 0H157l53 448H39v125h186l42 354H86v122h197l49 413h120l-51-413h209l52 413h116l-51-413h171V927H714zM343 573h209l44 354H386z"/><glyph glyph-name="dollar" unicode="$" horiz-adv-x="871" d="M386-119V99q-91 2-169.5 21T82 167v149q57-34 138-59t166-27v460q-108 44-175.5 93t-99 114T80 1053q0 95 38.5 167.5T226 1337t160 52v167h95v-163q78-4 147.5-21.5T762 1322l-45-124q-54 28-111 43t-125 19V798q105-44 174-91.5T758.5 597 793 447q0-135-81.5-226T481 107v-226h-95zm95 356q86 16 131 70t45 130q0 52-18.5 89.5t-57 67.5T481 651V237zm-95 602v419q-53-8-91-35t-58-69.5-20-97.5q0-56 17-94t54-66.5 98-56.5z"/><glyph glyph-name="percent" unicode="%" horiz-adv-x="1339" d="M316 1483q112 0 173.5-118t61.5-339q0-220-61-340.5T316 565 143 686t-60 340q0 221 59 339t174 118zm-2-114q-55 0-79-85.5T211 1026t24.5-258 80.5-86q55 0 80.5 85t25.5 259q0 173-27.5 258t-80.5 85zm670 93L476 0H351l508 1462h125zm39-563q112 0 173.5-118t61.5-339q0-225-62-342.5T1023-18q-112 0-172.5 120T790 442q0 227 60 342t173 115zm-2-114q-55 0-79.5-85T917 442q0-172 24.5-258t81.5-86q56 0 80 87.5t24 256.5q0 167-26.5 255t-79.5 88z"/><glyph glyph-name="ampersand" unicode="&amp;" horiz-adv-x="956" d="M415 1483q77 0 131-36t82.5-104 28.5-165q0-127-45-224.5T475 772l214-363q26 55 41.5 126T748 688h157q-6-100-38.5-216T784 270L960 0H775l-89 155q-43-55-91-94T490.5 1 364-20q-102 0-169.5 50.5T93.5 169 60 369q0 88 24 161.5T158.5 669 288 795q-42 70-68 130t-38.5 122.5T169 1184q0 93 30 160t85.5 103 130.5 36zm-55-793q-52-46-83.5-93T231 496t-14-122q0-118 46-185t122-67q66 0 119 39t100 118zm52 667q-45 0-70-45.5T317 1181q0-74 22.5-157T402 880q62 56 87 133t25 168q0 87-26 131.5t-76 44.5z"/><glyph glyph-name="quotesingle" unicode="'" horiz-adv-x="416" d="m299 1462-30-528H153l-32 528h178z"/><glyph glyph-name="parenleft" unicode="(" horiz-adv-x="590" d="M100 567q0 173 34 335.5t99.5 307.5T392 1474h136q-134-199-203-429.5T256 569q0-162 31.5-319.5t92-303T526-324H392Q297-208 232-67t-98.5 301.5T100 567z"/><glyph glyph-name="parenright" unicode=")" horiz-adv-x="590" d="M489 568q0-169-33.5-330T357-66 198-324H63q87 126 147.5 272.5t92 304.5T334 570q0 166-31.5 323.5t-92 303.5T62 1474h136q94-118 158.5-264T455 901t34-333z"/><glyph glyph-name="asterisk" unicode="*" horiz-adv-x="800" d="m481 1559-29-266 244 76 28-147-241-25 173-225-130-78-124 245-130-245-126 78 168 225-238 23 30 146 242-73-25 266h158z"/><glyph glyph-name="plus" unicode="+" horiz-adv-x="874" d="M502 788h307V657H502V245H371v412H61v131h310v415h131V788z"/><glyph glyph-name="comma" unicode="," horiz-adv-x="452" d="m331 230 13-22q-19-83-42-165t-50-160.5T192-269H74q23 84 41.5 171t32 171T168 230h163z"/><glyph glyph-name="hyphen" unicode="-" horiz-adv-x="559" d="M55 476v154h449V476H55z"/><glyph glyph-name="period" unicode="." horiz-adv-x="453" d="M122 107q0 61 26.5 93t77.5 32q49 0 77-29.5t28-95.5q0-64-29-94t-76-30q-49 0-76.5 31.5T122 107z"/><glyph glyph-name="slash" unicode="/" horiz-adv-x="750" d="M722 1467 187-5H40l538 1472h144z"/><glyph glyph-name="zero" unicode="0" horiz-adv-x="871" d="M784 731q0-176-19.5-315T703 180 594.5 32 435-19q-111 0-189 68.5t-119.5 232T85 731q0 250 38.5 417t116 251 195.5 84q120 0 197-84.5T746.5 1147 784 731zm-538 0q0-201 19-335.5T326 193t109-68 109 68.5T605.5 397 625 731t-20 334-61.5 204-108.5 69-109-68-61-202.5T246 731z"/><glyph glyph-name="one" unicode="1" horiz-adv-x="871" d="M590 0H432v1004q0 44 1 88.5t3 90.5l4 92q-13-19-35-43t-55-56l-130-126-90 98 324 314h136V0z"/><glyph glyph-name="two" unicode="2" horiz-adv-x="871" d="M774 0H70v117l289 426q85 125 134.5 216t71 172.5T586 1109q0 107-51.5 169T387 1340q-64 0-116.5-23T163 1241l-81 110q50 47 99 76t102.5 42.5T400 1483q108 0 185.5-46T704 1308t41-193q0-117-27-215t-81.5-194.5T499 495L256 150v-7h518V0z"/><glyph glyph-name="three" unicode="3" horiz-adv-x="871" d="M748 1127q0-88-28-159t-81.5-121.5T507 768v-8q128-28 196.5-121.5T772 398q0-124-46.5-218.5t-135-147T375-20q-88 0-159.5 14T79 39v158q64-38 136-58.5T360 118q126 0 186.5 80T607 406q0 92-34 154.5t-101 94T306 686h-75v138h81q86 0 148.5 36T557 960.5t34 150.5q0 111-53 172t-150 61q-48 0-88-12t-76.5-35-74.5-57l-77 110q77 71 157 102t179 31q158 0 249-95.5t91-260.5z"/><glyph glyph-name="four" unicode="4" horiz-adv-x="871" d="M843 322H688V0H532v322H34v130l485 1022h169V457h155V322zM532 457v590q0 23 1 52t2 59.5 2 58.5 2 49h-7q-16-48-34.5-93t-36.5-87L175 457h357z"/><glyph glyph-name="five" unicode="5" horiz-adv-x="871" d="M426 896q112 0 191-54t121-150 42-223q0-145-47.5-255T593 42 365-20q-83 0-149 15.5T100 41v158q56-37 121.5-59T353 118q91 0 149.5 47.5t87.5 126T619 464q0 145-63.5 221T373 761q-50 0-99-9.5T176 727l-63 61 44 674h545v-144H289l-30-442q42 10 84.5 15t82.5 5z"/><glyph glyph-name="six" unicode="6" horiz-adv-x="871" d="M91 622q0 166 17.5 302t53 240 91.5 175 132.5 107 175.5 36q43 0 81.5-5.5T712 1460v-141q-32 11-68.5 16.5T566 1341q-100 0-170.5-66T287 1078.5 243 753h8q21 50 54 88t78.5 59.5T485 922q102 0 168.5-61.5T753 695t33-234q0-138-37.5-247T636 42 449-21q-87 0-154 42T182.5 144.5 114 346 91 622zm356-501q86 0 134 84t48 253q0 158-45 240.5T448 781q-64 0-107.5-36.5t-65.5-96T253 518q0-62 10-131t32-129.5 59.5-98.5 92.5-38z"/><glyph glyph-name="seven" unicode="7" horiz-adv-x="871" d="m192 0 442 1317H66v145h728v-118L358 0H192z"/><glyph glyph-name="eight" unicode="8" horiz-adv-x="871" d="M438 1483q104 0 178-42t113.5-118 39.5-180q0-82-25.5-150.5t-76.5-125T539 765q78-52 137-109t92.5-127T802 369q0-115-44-202.5t-124.5-137T444-20q-118 0-202 47T114 159.5 70 359q0 88 27 160.5T178.5 652 314 764q-70 53-116.5 112T128 1001t-23 140q0 103 41 180t116 119.5 176 42.5zM226 358q0-107 55-176t155-69q103 0 156 71.5T645 368q0 54-19 104.5t-59.5 98T461 663l-40 28q-69-45-112-93.5T246 491t-20-133zm209 991q-81 0-129-58t-48-160q0-63 20-113.5t59-93 97-82.5q63 40 102.5 83.5t58.5 94 19 111.5q0 102-47 160t-132 58z"/><glyph glyph-name="nine" unicode="9" horiz-adv-x="871" d="M771 851q0-168-18-305.5t-55-243-93.5-177T471.5 17 298-20q-37 0-82.5 6.5T141 1v144q32-12 70-18.5t84-6.5q115 0 184.5 81.5T582 417t37 291h-7q-21-49-54-87t-78-59.5T379 540q-103 0-170 61t-99.5 165.5T77 1000q0 138 38 247.5T229.5 1420t193.5 63q85 0 150-41.5t109-122 66.5-198T771 851zm-349 489q-92 0-139-83.5T236 1004q0-157 45-240.5T417 680q66 0 109 39.5T590 822t21 135q0 53-8 118.5t-28 126-57 99.5-96 39z"/><glyph glyph-name="colon" unicode=":" horiz-adv-x="456" d="M124 108q0 60 26 92t78 32q49 0 76.5-29.5T332 108q0-64-28.5-94.5T228-17q-52 0-78 32t-26 93zm0 871q0 62 26 93.5t78 31.5q51 0 77.5-31t26.5-93q0-64-29-95.5T228 853q-51 0-77.5 32.5T124 979z"/><glyph glyph-name="semicolon" unicode=";" horiz-adv-x="456" d="m331 230 13-22q-18-83-41-165t-50.5-160.5T192-269H74q24 88 42.5 174.5t32 168.5T170 230h161zM125 980q0 61 26 92.5t78 31.5q51 0 78-31.5t27-92.5q0-64-29.5-95.5T229 853q-51 0-77.5 32.5T125 980z"/><glyph glyph-name="less" unicode="&lt;" horiz-adv-x="874" d="M812 274 59 685v92l753 403v-149L234 730l578-308V274z"/><glyph glyph-name="equal" unicode="=" horiz-adv-x="874" d="M61 875v131h748V875H61zm0-438v129h748V437H61z"/><glyph glyph-name="greater" unicode="&gt;" horiz-adv-x="874" d="m61 422 579 307-579 302v149l753-403v-92L61 274v148z"/><glyph glyph-name="question" unicode="?" horiz-adv-x="639" d="M198 405v58q0 71 9.5 127t33 107T306 802q48 63 78 115t43.5 104.5T441 1136q0 103-42 154.5T283 1342q-56 0-102-18.5T85 1270l-59 122q62 45 128 68t136 23q147 0 226-86.5t79-248.5q0-89-18-154t-55-125-94-135q-42-55-65-99t-32-88-9-101v-41H198zm-39-298q0 61 26.5 93t76.5 32q49 0 77-29.5t28-94.5q0-64-29-94.5T262-17q-49 0-76 31.5T159 107z"/><glyph glyph-name="at" unicode="@" horiz-adv-x="1322" d="M1229 736q0-122-17-216t-49.5-158.5T1083 264t-107-33q-81 0-122 50t-49 140h-10q-22-97-64.5-143.5T624 231q-103 0-159 96.5T409 601q0 152 35 257t101.5 159.5T708 1072q50 0 100-9t94-27l-16-421q-1-31-3-64t-2-52q0-79 24.5-115t67.5-36q42 0 70.5 41t43 128 14.5 223q0 186-50 326.5t-141 219-215 77.5q-126 0-215-66.5T335 1119t-82.5-246T226 602q0-185 44.5-336t138-239.5T648-62q76 0 150 21.5T927 14v-121q-61-34-128.5-50.5T645-174q-176 0-298 89.5t-185 260T99 589q0 204 43 367.5t122 280 189 178 243 59.5q168 0 287.5-99t182.5-266 63-373zM539 597q0-124 26.5-186.5T642 348q48 0 74 80t36 258l14 271q-13 6-30 8t-37 2q-49 0-85-42.5T558.5 800 539 597z"/><glyph glyph-name="A" unicode="A" horiz-adv-x="906" d="M737 0 627 470H280L170 0H0l353 1462h193L906 0H737zM597 617l-112 496q-7 37-13.5 72.5t-12 69T449 1320q-3-32-8-66t-12-68.5-15-70.5L305 617h292z"/><glyph glyph-name="B" unicode="B" horiz-adv-x="967" d="M151 1462h319q191 0 289-87t98-263q0-94-24-164.5T762.5 833 647 774v-8q82-19 135-64t79-115.5T887 418q0-126-43-220T718.5 52 517 0H151v1462zm159-630h158q119 0 173 66.5t54 199.5q0 111-57 169.5T465 1326H310V832zm0-136V139h189q110 0 166.5 71.5T722 426q0 90-29 150t-83 90-130 30H310z"/><glyph glyph-name="C" unicode="C" horiz-adv-x="906" d="M596 1340q-87 0-149.5-49t-102-134.5-58-195T268 731q0-188 41.5-324T427 197.5 606 124q62 0 117 16t101 39V35Q776 7 717-6.5T588-20q-149 0-258 90T162 328.5 103 733q0 155 29.5 291t90 240T375 1426.5t216 58.5q72 0 138.5-18.5T857 1413l-57-135q-46 29-97 45.5T596 1340z"/><glyph glyph-name="D" unicode="D" horiz-adv-x="1047" d="M945 749q0-247-57-413.5t-169.5-251T438 0H151v1462h299q163 0 273-81t166-240 56-392zm-166-8q0 191-37 320t-111 194-187 65H310V143h122q181 0 264 150.5T779 741z"/><glyph glyph-name="E" unicode="E" horiz-adv-x="818" d="M726 0H151v1462h575v-142H310V835h391V692H310V145h416V0z"/><glyph glyph-name="F" unicode="F" horiz-adv-x="772" d="M310 0H151v1462h575v-142H310V774h392V630H310V0z"/><glyph glyph-name="G" unicode="G" horiz-adv-x="1110" d="M629 766h371V51Q911 16 816-2T624-20q-179 0-294.5 98.5t-171 269T103 734q0 219 60.5 388t183 265 307.5 96q90 0 173-23.5t156-70.5l-57-135q-68 44-134.5 65T657 1340q-127 0-213-71t-130-207-44-332q0-172 37.5-309.5t118.5-217T637 124q58 0 110.5 8.5T845 157v466H629v143z"/><glyph glyph-name="H" unicode="H" horiz-adv-x="1081" d="M932 0H773v692H310V0H151v1462h159V837h463v625h159V0z"/><glyph glyph-name="I" unicode="I" horiz-adv-x="458" d="M151 0v1462h159V0H151z"/><glyph glyph-name="J" unicode="J" horiz-adv-x="450" d="M32-391q-36 0-69 5t-62 17v143q25-9 54-15t60-6q47 0 75.5 25.5t42 81T146 6v1456h159V-8q0-139-31-223t-92-122-150-38z"/><glyph glyph-name="K" unicode="K" horiz-adv-x="900" d="M908 0H730L416 686 310 556V0H151v1462h159V720q12 29 40 81.5T421 930l295 532h173L524 816z"/><glyph glyph-name="L" unicode="L" horiz-adv-x="753" d="M151 0v1462h159V145h408V0H151z"/><glyph glyph-name="M" unicode="M" horiz-adv-x="1455" d="M654 0 299 1242h-8q4-67 6.5-120.5t3.5-92.5 1-64V0H151v1462h225L725 246h6l350 1216h228V0h-156v961q0 27 1 67t3.5 93.5 4.5 120.5h-7L800 0H654z"/><glyph glyph-name="N" unicode="N" horiz-adv-x="1150" d="M1002 0H809L299 1210h-8q4-53 6.5-102.5t3.5-95.5 1-90V0H151v1462h192L854 270h6q-3 59-5.5 111t-3.5 97.5-1 83.5v900h152V0z"/><glyph glyph-name="O" unicode="O" horiz-adv-x="1117" d="M1016 733q0-157-25-293.5t-78.5-240T772 38 561-20q-126 0-214 59.5T205.5 203t-78 241T103 735q0 250 51.5 416T308 1400t253 83q164 0 264-99.5T970.5 1114t45.5-381zm-748 0q0-199 33.5-334.5T400 194t159-69q96 0 160 67.5t96.5 203T848 733q0 301-72 453t-215 152q-98 0-163-68.5t-97.5-203T268 733z"/><glyph glyph-name="P" unicode="P" horiz-adv-x="896" d="M413 1462q215 0 317.5-104T833 1034q0-113-26.5-198.5t-79-143.5-132-87.5T409 575h-99V0H151v1462h262zm-6-140h-97V716h85q97 0 157.5 32t89 102 28.5 182q0 155-64 222.5T407 1322z"/><glyph glyph-name="Q" unicode="Q" horiz-adv-x="1117" d="M1016 733q0-190-31.5-333.5t-92.5-238T743 22l219-370H773L593-16q-7-1-19.5-2.5T551-20q-123 0-208.5 60T204 205t-77 241-24 289q0 250 51.5 416T308 1400t254 83q146 0 247-83.5t154-250 53-416.5zm-748 0q0-199 33-334.5T399 194t160-69q96 0 160 67.5t96.5 203T848 733q0 302-72 453.5T562 1338q-99 0-164-68.5T300.5 1066 268 733z"/><glyph glyph-name="R" unicode="R" horiz-adv-x="931" d="M401 1462q148 0 244-44.5t143-135 47-228.5q0-98-24-175t-74-132-130-90L904 0H727L463 617H310V0H151v1462h250zm1-144h-92V751h114q119 0 183.5 73.5T672 1046q0 144-65 208t-205 64z"/><glyph glyph-name="S" unicode="S" horiz-adv-x="841" d="M762 399q0-124-47.5-218.5T581.5 33 380-20q-57 0-110 6.5T169.5 7 79 42v165q68-38 147.5-58T374 129q73 0 123 34.5t76.5 92.5T600 384q0 74-22 124.5T506 600t-135 85q-64 35-116 72t-89 83.5T109 950t-20 150q-2 115 45.5 201.5t132 134.5 193.5 47q83 0 158.5-20.5T749 1413l-52-146q-61 33-120.5 49.5T463 1333q-67 0-114.5-29t-73-79.5T250 1107q0-77 22.5-127t73-89T479 807q95-50 158-107.5T731 569t31-170z"/><glyph glyph-name="T" unicode="T" horiz-adv-x="770" d="M463 0H304v1318H19v144h730v-144H463V0z"/><glyph glyph-name="U" unicode="U" horiz-adv-x="1061" d="M923 1462V457q0-167-45-272.5t-131.5-155T533-20Q340-20 239 96T138 456v1006h159V455q0-176 61.5-253T533 125q75 0 126 33t77 106 26 193v1005h161z"/><glyph glyph-name="V" unicode="V" horiz-adv-x="886" d="M886 1462 533 0H349L0 1462h166L393 452q10-42 18.5-88.5t16-93T441 181q6 43 13.5 89t17 93 19.5 92l229 1007h166z"/><glyph glyph-name="W" unicode="W" horiz-adv-x="1457" d="M1449 1462 1148 0H958L767 956q-3 19-7.5 46t-9 61.5-10.5 77-12 93.5q-4-34-8-68.5t-9-69.5-10.5-69.5T688 958L500 0H312L8 1462h161l184-925q10-54 19-104t16.5-95.5 13-84T410 184q6 43 13 88.5t14.5 91 15 88.5 14.5 81l187 929h150l184-927q8-39 15.5-80t14-84 13.5-90 13-98q8 65 17.5 126.5t19.5 119 20 108.5l187 925h161z"/><glyph glyph-name="X" unicode="X" horiz-adv-x="804" d="M791 0H620L411 610 180 0H15l309 764-271 698h165l195-557 198 557h167L504 753z"/><glyph glyph-name="Y" unicode="Y" horiz-adv-x="786" d="m394 760 225 702h167L472 569V0H313v565L0 1462h166z"/><glyph glyph-name="Z" unicode="Z" horiz-adv-x="731" d="M690 0H53v124l453 1194H63v144h614v-126L223 145h467V0z"/><glyph glyph-name="bracketleft" unicode="[" horiz-adv-x="638" d="M573-329H150v1803h423v-130H296V-199h277v-130z"/><glyph glyph-name="backslash" unicode="\" horiz-adv-x="750" d="M183 1467 720-5H573L39 1467h144z"/><glyph glyph-name="bracketright" unicode="]" horiz-adv-x="638" d="M64-199h278v1543H64v130h424V-329H64v130z"/><glyph glyph-name="asciicircum" unicode="^" horiz-adv-x="895" d="m32 689 370 771h94l370-771H714l-265 574-269-574H32z"/><glyph glyph-name="underscore" unicode="_" horiz-adv-x="885" d="M889-293H-4v121h893v-121z"/><glyph glyph-name="grave" unicode="`" horiz-adv-x="536" d="M266 1568q23-48 55.5-104t67.5-108.5 65-91.5v-23h-99q-31 27-69.5 65.5t-77.5 82-72 85.5-54 76v18h184z"/><glyph glyph-name="a" unicode="a" horiz-adv-x="841" d="M428 1118q152 0 217-97t65-281V0H593l-23 156h-4q-26-56-62-95.5t-82-60T316-20q-85 0-139 45T97 143.5 71 302q0 163 94 253t267 98l125 8v75q0 132-36 193t-116 61q-46 0-96.5-16T199 923l-49 116q62 40 132.5 59.5T428 1118zm131-570-102-7q-116-7-172.5-65.5T228 306q0-103 37-152t102-49q91 0 141.5 88T559 436v112z"/><glyph glyph-name="b" unicode="b" horiz-adv-x="937" d="M288 1556v-458q0-32-1.5-71.5T283 943h7q41 86 102.5 129.5T533 1116q157 0 238.5-143.5T853 551q0-184-36.5-311.5T709.5 46 537-20q-81 0-142 40.5T290 146h-9L259 0H134v1556h154zm212-575q-84 0-130-53.5T306 781t-18-212v-47q0-208 53.5-308.5T501 113q98 0 146 107t48 333q0 212-46.5 320T500 981z"/><glyph glyph-name="c" unicode="c" horiz-adv-x="703" d="M451-20q-121 0-201.5 63T129 231 89 541q0 181 40.5 310T252 1049t205 69q62 0 111.5-13t92.5-37l-49-127q-37 20-73.5 30T467 981q-72 0-121-49.5T271.5 785 246 543q0-141 24.5-236t74-143.5T468 115q44 0 89.5 12.5T649 164V34Q607 8 551.5-6T451-20z"/><glyph glyph-name="d" unicode="d" horiz-adv-x="937" d="M407-20q-157 0-238.5 144.5T87 546q0 275 82 423.5T402 1118q53 0 100-20.5t84.5-58T650 949h7q-2 46-3.5 82.5T652 1100v456h153V0H682l-21 148h-9q-28-52-63.5-90t-80-58T407-20zm34 131q104 0 157.5 97T652 495v75q0 209-51.5 310T439 981q-100 0-147.5-111.5T244 546q0-214 47.5-324.5T441 111z"/><glyph glyph-name="e" unicode="e" horiz-adv-x="847" d="M436 1116q112 0 184.5-65t108-175T764 631V522H241q2-205 63.5-308T490 111q59 0 116 18t118 58V49Q667 14 605-3T473-20q-137 0-222 73.5t-123.5 201T89 543q0 184 39 312t116.5 194.5T436 1116zm0-126q-87 0-136-84.5T243 645h377q0 93-19.5 171.5t-60 126T436 990z"/><glyph glyph-name="f" unicode="f" horiz-adv-x="509" d="M479 968H306V0H153v968H18v83l135 52v74q0 125 21.5 212t75 132.5T397 1567q44 0 81.5-8t77.5-24l-40-124q-28 10-52.5 15.5T415 1432q-62 0-84.5-54.5T306 1181v-83h173V968z"/><glyph glyph-name="g" unicode="g" horiz-adv-x="790" d="M351-492q-157 0-247 80T14-188Q14-75 68-3t139 96q-42 20-68.5 60T112 248q0 56 26.5 102t74.5 88q-64 38-101 122T75 753q0 112 36.5 193.5T217 1073t165 45q30 0 53-3t41-8 32-12h272v-99l-147-18q28-45 41-102.5T687 759q0-169-80-265.5T381 397q-45 0-72 9-27-25-47.5-57T241 270q0-29 13.5-51t39.5-34 64-12h158q123 0 189.5-71T772-114q0-180-108.5-279T351-492zm12 122q87 0 145.5 26.5t88 80.5T626-129q0 65-20.5 100T547 19t-91 13H325q-46 0-83.5-20.5T182-54t-22-120q0-97 54.5-146.5T363-370zm19 881q72 0 111.5 62T533 755q0 126-40.5 188T380 1005q-70 0-110-66.5T230 752q0-115 38-178t114-63z"/><glyph glyph-name="h" unicode="h" horiz-adv-x="923" d="M288 1556v-452q0-44-2.5-84.5T277 943h11q20 54 55.5 93t82.5 60.5 101 21.5q92 0 151-42.5t87-125T793 746V0H639v716q0 142-34 203t-110 61q-70 0-116-43t-68.5-132.5T288 575V0H134v1556h154z"/><glyph glyph-name="i" unicode="i" horiz-adv-x="424" d="M289 1098V0H136v1098h153zm-74 412q47 0 68.5-30t21.5-83q0-52-23-82t-67-30q-43 0-68 30t-25 82q0 55 24 84t69 29z"/><glyph glyph-name="j" unicode="j" horiz-adv-x="424" d="M72-492q-28 0-52 5t-44 13v137q17-7 35.5-11.5T46-353q49 0 69 42t20 133v1276h154V-178q0-108-25-177.5T190.5-458 72-492zm50 1889q0 55 24 84t69 29q46 0 68-30t22-83q0-52-23-82t-67-30q-43 0-68 30t-25 82z"/><glyph glyph-name="k" unicode="k" horiz-adv-x="800" d="M288 1556V779q0-58-2-113t-7-111h7q17 34 34 65t36 60l251 418h166L508 676 792 0H627L404 552 288 407V0H134v1556h154z"/><glyph glyph-name="l" unicode="l" horiz-adv-x="420" d="M288 0H134v1556h154V0z"/><glyph glyph-name="m" unicode="m" horiz-adv-x="1380" d="M996 1118q129 0 191.5-93.5T1250 740V0h-154v713q0 144-36.5 206.5T954 982q-100 0-143-94t-43-272V0H616v715q0 98-16 156.5T552.5 956 473 982q-74 0-114-51t-55.5-140T288 588V0H134v1098h123l18-156h9q21 56 54 95t78.5 60 102.5 21q95 0 149.5-51.5T741 937h11q38 92 95 136.5t149 44.5z"/><glyph glyph-name="n" unicode="n" horiz-adv-x="923" d="M529 1118q130 0 197-91t67-279V0H639v717q0 133-34.5 199T496 982q-108 0-158-96t-50-308V0H134v1098h123l17-159h10q23 55 59 95t83 62 103 22z"/><glyph glyph-name="o" unicode="o" horiz-adv-x="902" d="M815 550q0-130-22-235t-67-180T612 20 449-20q-90 0-158 40T178 134.5t-68 180T87 550q0 182 39 308.5t120 193 206 66.5q117 0 198-64.5t123-191T815 550zm-571 0q0-143 22-240t68.5-146T453 115q71 0 116.5 48T637 307.5 659 550q0 143-22 239.5t-67.5 145T452 983q-110 0-159-108.5T244 550z"/><glyph glyph-name="p" unicode="p" horiz-adv-x="937" d="M531 1118q158 0 239.5-141.5T852 551q0-183-36.5-310.5T709 46.5 539-20q-56 0-104 21.5t-85 61-62 92.5h-7q2-40 4.5-77T288 8v-498H134v1588h125l19-161h9q28 61 64.5 101t81.5 60 98 20zm-33-133q-70 0-116.5-44t-70-132.5T288 586v-53q0-142 23.5-235t71-138T500 115q64 0 107.5 46T673 303t22 246q0 217-45.5 326.5T498 985z"/><glyph glyph-name="q" unicode="q" horiz-adv-x="937" d="M651-490v464q0 32 2 80t6 108h-8Q608 72 546.5 26T402-20q-151 0-233 143T87 543q0 190 38.5 317.5T236 1053t173 65q81 0 140-42t101-131h9l17 153h129V-490H651zM444 115q67 0 113 43.5t70 128T651 495v70q0 214-51.5 315T439 981q-100 0-147.5-113T244 542q0-223 50-325t150-102z"/><glyph glyph-name="r" unicode="r" horiz-adv-x="614" d="M501 1117q23 0 46-3.5t48-11.5l-24-158q-18 8-38 11t-43 3q-45 0-82.5-29.5T343 846t-41.5-123T288 572V0H134v1098h120l21-195h10q23 63 54 111t71.5 75.5T501 1117z"/><glyph glyph-name="s" unicode="s" horiz-adv-x="688" d="M622 290q0-99-36-168.5T481.5 16 315-20q-76 0-139 18T69 41v160q44-36 109-59.5T310 118q77 0 118.5 44T470 285q0 47-17 81.5t-54.5 66T300 499q-68 42-120.5 87T98 689.5 69 832q0 128 83.5 207t220.5 79q69 0 130.5-17.5T620 1048l-58-124q-42 29-89.5 46T375 987q-73 0-115.5-41T217 836q0-46 17-79t56-64 103-70q68-43 119.5-87.5T593 433t29-143z"/><glyph glyph-name="t" unicode="t" horiz-adv-x="519" d="M392 116q25 0 50 5.5t48 15.5V11q-31-14-67-22.5T343-20q-71 0-116.5 32t-67 95.5T138 267v702H36v84l109 41 41 253h106v-249h186V969H292V285q0-85 20.5-127t79.5-42z"/><glyph glyph-name="u" unicode="u" horiz-adv-x="923" d="M789 1098V0H666l-17 156h-11q-22-54-57.5-93.5T499 1.5 396-20q-96 0-154.5 48t-85 137T130 377v721h154V406q0-148 34.5-218T424 118q77 0 123 42.5t67 129T635 509v589h154z"/><glyph glyph-name="v" unicode="v" horiz-adv-x="741" d="M283 0 8 1098h158l151-667q14-60 25.5-123T364 177h8q5 39 15 94t26 122l162 705h158L454 0H283z"/><glyph glyph-name="w" unicode="w" horiz-adv-x="1218" d="M781 0 649 681q-5 28-10 58t-9.5 60-8.5 59.5-8 57.5h-5q-4-29-8.5-59.5t-9-60.5-9.5-59-10-56L431 0H255L18 1098h154l117-572q10-54 20-110.5t19-113T345 190h6l10.5 73.5 12 80 14.5 86 18 90.5 119 578h171l118-581q9-38 17.5-88T849 319t19-129h6q3 30 8 65t12 76.5 16 88.5l140 678h150L958 0H781z"/><glyph glyph-name="x" unicode="x" horiz-adv-x="751" d="M289 566 46 1098h165l168-407 171 407h163L468 558 723 0H560L375 433 191 0H30z"/><glyph glyph-name="y" unicode="y" horiz-adv-x="746" d="M12 1098h159l155-642q9-42 17.5-82t16-79.5T372 215h8q8 58 20 117.5T428 457l151 641h158L411-176q-29-110-68-180t-91.5-103T127-492q-24 0-48 5t-51 12v137q19-7 39.5-11t39.5-4q38 0 65 19.5t48 64.5 41 123L300 8z"/><glyph glyph-name="z" unicode="z" horiz-adv-x="611" d="M567 0H52v106l333 860H74v132h479V985L223 131h344V0z"/><glyph glyph-name="braceleft" unicode="{" horiz-adv-x="738" d="M649-329q-121 2-200 36.5T331.5-187 293-6v311q0 71-19 116.5t-64 67T86 510v119q71 0 117 18t68 62.5T293 833v314q0 107 37 177t115.5 105.5T649 1467v-125q-69-2-115-22t-68.5-63.5T443 1140V826q0-113-42-174t-143-79v-8q104-19 144.5-82T443 311V-1q0-70 21-114.5t66.5-65.5T649-203v-126z"/><glyph glyph-name="bar" unicode="|" horiz-adv-x="823" d="M340 1563h143V-486H340v2049z"/><glyph glyph-name="braceright" unicode="}" horiz-adv-x="738" d="M86-329v126q74 1 119.5 21.5t66.5 65T293-1v312q0 113 42.5 174T477 565v8q-99 18-141.5 79T293 826v314q0 73-23.5 116.5T200 1320t-114 22v125q121-2 200-36t118-104 39-180V833q0-69 18-114.5t63-67.5 125-22V510q-75 0-120.5-20T463 425t-20-120V-6q0-107-36.5-178T291-291 86-329z"/><glyph glyph-name="asciitilde" unicode="~" horiz-adv-x="874" d="M419 659q-46 26-88.5 41.5T250 716q-46 0-95-31.5T59 596v149q41 49 89.5 75.5T258 847q56 0 101.5-17t97.5-44q50-27 90.5-41.5T626 730q47 0 98 32.5t92 84.5V699q-39-46-89-72t-108-26q-60 0-102.5 15T419 659z"/><glyph glyph-name="uni00A0" horiz-adv-x="380"/><glyph glyph-name="exclamdown" unicode="¡" horiz-adv-x="472" d="M177 680h117l34-1066H142zm166 299q0-65-28.5-95T239 854q-52 0-78 31.5T135 979q0 60 25.5 93t78.5 33q46 0 75-31t29-95z"/><glyph glyph-name="cent" unicode="¢" horiz-adv-x="875" d="M555 1483v-166q50-4 92.5-16.5T726 1268l-48-130q-37 21-75 30.5t-68 9.5q-78 0-127.5-49t-73-145.5T311 744q0-145 24.5-239.5t73.5-141T533 317q44 0 90.5 13.5T716 367V234q-31-19-71-32t-89-19V-20H454v204q-102 14-168.5 83.5t-99 189.5T154 742q0 166 33 287.5t99 193.5 166 89v171h103z"/><glyph glyph-name="sterling" unicode="£" horiz-adv-x="869" d="M532 1483q71 0 132.5-21.5T782 1398l-61-124q-52 35-95 50.5t-87 15.5q-79 0-114-57t-35-184V795h251V671H390V426q0-67-14-120.5T334 212t-70-67h525V0H89v133q47 22 79 61t48.5 96.5T233 426v245H82v124h151v306q0 126 32.5 211t99 128 167.5 43z"/><glyph glyph-name="currency" unicode="¤" horiz-adv-x="1131" d="M170 723q0 65 19.5 124T248 958l-135 138 80 78 133-138q53 41 112 61.5t126 20.5q65 0 124.5-19t111.5-61l135 136 82-77-135-137q38-51 58-111t20-126q0-65-19.5-125.5T882 484l134-136-79-78-137 135q-52-38-112-57.5T564 328q-69 0-128.5 20T326 408L193 272l-78 80 133 134q-40 53-59 112.5T170 723zm109 0q0-80 38-145.5T420 474t145-38q83 0 148 39t102.5 104.5T853 723t-40 143.5T707.5 972 564 1012q-77 0-142-39T318 868.5 279 723z"/><glyph glyph-name="yen" unicode="¥" horiz-adv-x="871" d="m434 765 192 697h162L542 680h203V567H512V385h233V272H512V0H353v272H124v113h229v182H124v113h197L77 1462h161z"/><glyph glyph-name="brokenbar" unicode="¦" horiz-adv-x="823" d="M340 1555h143V756H340v799zm0-1241h143v-801H340v801z"/><glyph glyph-name="section" unicode="§" horiz-adv-x="749" d="M82 838q0 80 41 139t111 92q-66 47-99.5 103.5T101 1298q0 122 84 190t211 68q70 0 124.5-14.5T633 1494l-50-110q-51 30-95 44t-91 14q-73 0-115-37.5t-42-99.5q0-46 20-79t58.5-60 92.5-58q78-41 131.5-82.5t81.5-93T652 809q0-78-33-141t-88-98q62-49 89.5-103T648 345q0-130-87-207T330 61q-74 0-136 17T82 126v135q31-24 72-43t86-29.5 87-10.5q83 0 132 45.5T508 338q0 52-21 85t-66.5 63T299 559q-77 44-125 84.5t-70 87T82 838zm133 18q0-42 19-73.5t52.5-57.5 76.5-52l78-42q38 25 58.5 64t20.5 92q0 48-15 80.5t-56.5 65T326 1011q-52-19-81.5-59.5T215 856z"/><glyph glyph-name="dieresis" unicode="¨" horiz-adv-x="1074" d="M288 1367q0 50 24 74t60 24q35 0 58.5-24.5T454 1367q0-51-23.5-76.5T372 1265q-36 0-60 25.5t-24 76.5zm328 0q0 50 24.5 74t59.5 24q36 0 60.5-24.5T785 1367q0-51-24.5-76.5T700 1265q-37 0-60.5 25.5T616 1367z"/><glyph glyph-name="copyright" unicode="©" horiz-adv-x="1700" d="M849-20q-173 0-312 59T300 202 150 441.5 98 731q0 168 58 306t161 238 239.5 154 293.5 54q167 0 305-57.5t238-160 154.5-239.5 54.5-295q0-163-56-300.5T1388.5 192t-239-156.5T849-20zm32 296q-193 0-300.5 117T473 727q0 141 50 243.5t143 158 223 55.5q66 0 130-14t125-43l-50-107q-52 25-102.5 36t-99.5 11q-132 0-206-87t-74-247q0-175 71-257.5T891 393q50 0 105 12t112 37V325q-53-24-110.5-36.5T881 276zM849 82q144 0 262 50t203.5 138.5T1446 477t46 254q0 141-48 259.5t-134.5 206T1106 1332t-256 48q-144 0-262-49.5t-203-138T253.5 986 207 731q0-145 48.5-264T391 262t204-133 254-47z"/><glyph glyph-name="ordfeminine" unicode="ª" horiz-adv-x="609" d="M309 1479q103 0 150-57t47-170V798h-82l-20 102q-34-58-79-86t-106-28q-50 0-87.5 25.5t-58 70.5T53 984q0 69 28.5 113t84.5 67 137 29l85 6v57q0 65-22.5 95t-75.5 30q-37 0-73-12t-75-33l-36 88q49 27 98.5 41t104.5 14zm79-361-62-6q-82-6-118.5-35T171 986q0-52 22.5-78t65.5-26q61 0 95 49t34 134v53z"/><glyph glyph-name="guillemotleft" unicode="«" horiz-adv-x="930" d="m73 558 294 393 108-55-221-352 221-348-108-59L73 529v29zm383 0 296 393 105-55-219-352 220-348-106-59-296 392v29z"/><glyph glyph-name="logicalnot" unicode="¬" horiz-adv-x="874" d="M794 788V246H661v411H62v131h732z"/><glyph glyph-name="uni00AD" unicode="­" horiz-adv-x="559" d="M55 476v154h449V476H55z"/><glyph glyph-name="registered" unicode="®" horiz-adv-x="1700" d="M583 297v878h239q151 0 234-63t83-194q0-90-38-149t-113-91l197-381h-149L865 647H718V297H583zm133 454h98q84 0 134 39t50 122q0 79-45.5 115T815 1063h-99V751zM849-20q-173 0-312 59T300 202 150 441.5 98 731q0 168 58 306t161 238 239.5 154 293.5 54q167 0 305-57.5t238-160 154.5-239.5 54.5-295q0-163-56-300.5T1388.5 192t-239-156.5T849-20zm0 102q144 0 262 50t203.5 138.5T1446 477t46 254q0 141-48 259.5t-134.5 206T1106 1332t-256 48q-144 0-262-49.5t-203-138T253.5 986 207 731q0-145 48.5-264T391 262t204-133 254-47z"/><glyph glyph-name="overscore" unicode="¯" horiz-adv-x="882" d="M889 1556H-8v123h897v-123z"/><glyph glyph-name="degree" unicode="°" horiz-adv-x="746" d="M372 937q-80 0-143 33t-98.5 94.5T95 1209q0 84 36.5 145t99.5 94 141 33q80 0 143-33t99.5-94 36.5-145-37-145-100-94-142-33zm2 100q75 0 120.5 47t45.5 125q0 77-44.5 124.5T374 1381q-82 0-125-50t-43-122q0-80 47.5-126t120.5-46z"/><glyph glyph-name="plusminus" unicode="±" horiz-adv-x="874" d="M62 0v130h747V0H62zm440 821h307V690H502V278H371v412H61v131h310v415h131V821z"/><glyph glyph-name="uni00B2" unicode="²" horiz-adv-x="637" d="M551 850H53v107l180 223q57 69 95 122t57 101.5 19 103.5q0 56-32.5 91.5T278 1634q-43 0-82.5-20.5T118 1551l-66 84q45 53 104.5 82.5T289 1747q117 0 181-63.5t64-169.5q0-72-25-133t-76.5-128T302 1094L193 959h358V850z"/><glyph glyph-name="uni00B3" unicode="³" horiz-adv-x="637" d="M286 1746q112 0 177-59t65-164q0-76-36.5-129T389 1315v-7q82-25 123.5-80t41.5-145q0-115-80-181.5T265 835q-55 0-107 11.5T58 882v125q47-30 98.5-44.5T265 948q85 0 124 39.5t39 103.5q0 78-45 118t-137 40h-70v106h66q80 0 122.5 41.5T407 1508q0 59-34.5 92t-98.5 33q-44 0-82.5-17t-78.5-55l-62 89q53 47 111 71.5t124 24.5z"/><glyph glyph-name="acute" unicode="´" horiz-adv-x="535" d="M453 1568v-18q-20-33-53-74.5t-72-85-78-82.5-70-67H82v23q40 55 74 107t62 101.5 51 95.5h184z"/><glyph glyph-name="uni00B5" unicode="µ" horiz-adv-x="927" d="M793 1098V0H670l-17 159h-10q-19-54-50.5-94.5T521 2t-86-22q-52 0-89 24.5T286 81h-6q2-37 4-72t3-67 1-60v-372H134v1588h154V391q0-136 34.5-204.5T428 118q77 0 123 45t67 134.5T639 520v578h154z"/><glyph glyph-name="paragraph" unicode="¶" horiz-adv-x="977" d="M804-260H692v1707H551V-260H441v837q-17-9-35.5-13.5T364 559q-80 0-133 55.5t-78.5 165T127 1052q0 166 29 278t91.5 169 160.5 57h396V-260z"/><glyph glyph-name="periodcentered" unicode="·" horiz-adv-x="453" d="M122 717q0 61 26.5 93t77.5 32q49 0 77-29.5t28-95.5q0-64-29-94t-76-30q-49 0-76.5 31.5T122 717z"/><glyph glyph-name="cedilla" unicode="¸" horiz-adv-x="419" d="M377-283q0-101-63.5-155T137-492q-35 0-64 3.5T24-479v103q20-6 43.5-9t46.5-3q67 0 100.5 29t33.5 76q0 56-43 83.5T88-162L158 0h95l-46-105q55-11 93-35t57.5-60 19.5-83z"/><glyph glyph-name="uni00B9" unicode="¹" horiz-adv-x="637" d="M434 1726V850H310v546q0 31 1 62t2.5 62.5 4.5 62.5q-16-16-29.5-27t-24.5-19l-121-91-65 86 253 194h103z"/><glyph glyph-name="ordmasculine" unicode="º" horiz-adv-x="638" d="M574 1135q0-166-65-258t-188-92q-126 0-192.5 92.5T62 1135q0 163 69 253.5t191 90.5q79 0 135.5-39t86.5-115.5 30-189.5zm-387-1q0-127 32.5-187t99.5-60q72 0 103.5 60.5T454 1134q0 124-31.5 183.5T320 1377q-63 0-98-59t-35-184z"/><glyph glyph-name="guillemotright" unicode="»" horiz-adv-x="928" d="M857 529 561 137l-106 59 219 348-219 352 106 55 296-393v-29zm-380 0L179 137 75 196l217 348L75 896l104 55 298-393v-29z"/><glyph glyph-name="onequarter" unicode="¼" horiz-adv-x="1443" d="m310 0 746 1462h134L442 0H310zm-23 586v548q0 31 1 62t2.5 62.5 4.5 62.5q-17-16-30.5-27.5T241 1273l-121-89-65 84 252 194h105V586H287zM1183 0v194H850v92l330 595h123V300h106V194h-106V0h-120zM970 300h213v266q0 51 .5 89.5t2.5 63.5q-6-19-16.5-42.5T1142 621z"/><glyph glyph-name="onehalf" unicode="½" horiz-adv-x="1514" d="m285 0 746 1462h134L417 0H285zm2 586v548q0 23 .5 46.5t1.5 47 2.5 47 3.5 46.5q-17-16-30.5-27.5T241 1273l-121-89-65 84 252 194h105V586H287zM930 0v109l181 220q57 69 95.5 121.5t57.5 101 19 103.5q0 58-33 93.5t-95 35.5q-43 0-82.5-20T994 701l-65 84q44 53 104 82.5t132 29.5q118 0 182-63.5t64-168.5q0-73-24-132t-68-118-105-133l-144-171h359V0H930z"/><glyph glyph-name="threequarters" unicode="¾" horiz-adv-x="1471" d="m339 0 746 1462h134L471 0H339zm-76 570q-55 0-107 12.5T56 620v123q47-28 98.5-43T263 685q85 0 124 39t39 103q0 78-45.5 119T244 987h-70v106h66q80 0 122.5 41.5T405 1246q0 59-34.5 92.5T272 1372q-44 0-82.5-19t-78.5-55l-62 88q53 48 111 72.5t124 24.5q111 0 176-59t65-165q0-75-36.5-128T387 1051v-8q82-22 123.5-77.5T552 821q0-116-80.5-183.5T263 570zM1210 0v194H878v92l330 595h122V300h107V194h-107V0h-120zM997 300h213v266q0 51 .5 89.5t3.5 63.5q-6-19-17-42.5t-28-55.5z"/><glyph glyph-name="questiondown" unicode="¿" horiz-adv-x="639" d="M441 680v-58q0-71-9.5-127t-33-106.5T333 283q-48-63-77.5-115T212 64 198-51q0-103 42-154.5T356-257q56 0 102.5 18.5T554-185l59-122q-61-45-127-68t-137-23q-147 0-226 86.5T44-63q0 89 18 154t55.5 125T211 351q42 55 65 99t32 88.5 9 100.5v41h124zm39 298q0-61-26.5-93T377 853q-49 0-77 29.5T272 977t29 95 76 30q50 0 76.5-31.5T480 978z"/><glyph glyph-name="Agrave" unicode="À" horiz-adv-x="906" d="M737 0 627 470H280L170 0H0l353 1462h193L906 0H737zM597 617l-112 496q-7 37-13.5 72.5t-12 69T449 1320q-3-32-8-66t-12-68.5-15-70.5L305 617h292zM327 1905q23-48 55.5-104t67.5-108.5 65-91.5v-23h-99q-31 27-69.5 65.5t-77.5 82-72 85.5-54 76v18h184z"/><glyph glyph-name="Aacute" unicode="Á" horiz-adv-x="906" d="M737 0 627 470H280L170 0H0l353 1462h193L906 0H737zM597 617l-112 496q-7 37-13.5 72.5t-12 69T449 1320q-3-32-8-66t-12-68.5-15-70.5L305 617h292zm126 1288v-18q-20-33-53-74.5t-72-85-78-82.5-70-67h-98v23q40 55 74 107t62 101.5 51 95.5h184z"/><glyph glyph-name="Acircumflex" unicode="Â" horiz-adv-x="906" d="M737 0 627 470H280L170 0H0l353 1462h193L906 0H737zM597 617l-112 496q-7 37-13.5 72.5t-12 69T449 1320q-3-32-8-66t-12-68.5-15-70.5L305 617h292zm-76 1288q22-46 54.5-101t68-109 66.5-97v-20h-85q-43 41-87 93t-90 107q-46-54-92.5-108.5T272 1578h-86v20q36 48 71 102.5t65.5 107.5 50.5 97h148z"/><glyph glyph-name="Atilde" unicode="Ã" horiz-adv-x="906" d="M737 0 627 470H280L170 0H0l353 1462h193L906 0H737zM597 617l-112 496q-7 37-13.5 72.5t-12 69T449 1320q-3-32-8-66t-12-68.5-15-70.5L305 617h292zm-441 962q5 48 16 92t30.5 77.5 49.5 53 71 19.5q38 0 72-18t66-41.5 62-41.5 59-18q32 0 48.5 33t25.5 88h98q-7-118-52-180t-113-62q-37 0-73 18t-68.5 42-61.5 42-54 18q-28 0-49.5-32t-30.5-90h-96z"/><glyph glyph-name="Adieresis" unicode="Ä" horiz-adv-x="906" d="M737 0 627 470H280L170 0H0l353 1462h193L906 0H737zM597 617l-112 496q-7 37-13.5 72.5t-12 69T449 1320q-3-32-8-66t-12-68.5-15-70.5L305 617h292zM203 1704q0 50 24 74t60 24q35 0 58.5-24.5T369 1704q0-51-23.5-76.5T287 1602q-36 0-60 25.5t-24 76.5zm328 0q0 50 24.5 74t59.5 24q36 0 60.5-24.5T700 1704q0-51-24.5-76.5T615 1602q-37 0-60.5 25.5T531 1704z"/><glyph glyph-name="Aring" unicode="Å" horiz-adv-x="906" d="M737 0 627 470H280L170 0H0l353 1462h193L906 0H737zM597 617l-112 496q-7 37-13.5 72.5t-12 69T449 1320q-3-32-8-66t-12-68.5-15-70.5L305 617h292zm-144 760q-97 0-154 55.5T242 1579q0 92 57 147.5t154 55.5q92 0 151.5-54.5T664 1582q0-92-57.5-148.5T453 1377zm2 95q49 0 80 29t31 77q0 50-29 81t-82 31q-51 0-82-31t-31-80q0-48 28-77.5t85-29.5z"/><glyph glyph-name="AE" unicode="Æ" horiz-adv-x="1252" d="M1156 0H573v470H303L169 0H-4l438 1462h722v-144H732V835h398V692H732V145h424V0zM342 617h233v699h-33z"/><glyph glyph-name="Ccedilla" unicode="Ç" horiz-adv-x="906" d="M596 1340q-87 0-149.5-49t-102-134.5-58-195T268 731q0-188 41.5-324T427 197.5 606 124q62 0 117 16t101 39V35Q776 7 717-6.5T588-20q-149 0-258 90T162 328.5 103 733q0 155 29.5 291t90 240T375 1426.5t216 58.5q72 0 138.5-18.5T857 1413l-57-135q-46 29-97 45.5T596 1340zM724-283q0-101-63.5-155T484-492q-35 0-64 3.5t-49 9.5v103q20-6 43.5-9t46.5-3q67 0 100.5 29t33.5 76q0 56-43 83.5T435-162L505 0h95l-46-105q55-11 93-35t57.5-60 19.5-83z"/><glyph glyph-name="Egrave" unicode="È" horiz-adv-x="818" d="M726 0H151v1462h575v-142H310V835h391V692H310V145h416V0zM337 1905q23-48 55.5-104t67.5-108.5 65-91.5v-23h-99q-31 27-69.5 65.5t-77.5 82-72 85.5-54 76v18h184z"/><glyph glyph-name="Eacute" unicode="É" horiz-adv-x="818" d="M726 0H151v1462h575v-142H310V835h391V692H310V145h416V0zm-23 1905v-18q-20-33-53-74.5t-72-85-78-82.5-70-67h-98v23q40 55 74 107t62 101.5 51 95.5h184z"/><glyph glyph-name="Ecircumflex" unicode="Ê" horiz-adv-x="818" d="M726 0H151v1462h575v-142H310V835h391V692H310V145h416V0zM510 1905q22-46 54.5-101t68-109 66.5-97v-20h-85q-43 41-87 93t-90 107q-46-54-92.5-108.5T261 1578h-86v20q36 48 71 102.5t65.5 107.5 50.5 97h148z"/><glyph glyph-name="Edieresis" unicode="Ë" horiz-adv-x="818" d="M726 0H151v1462h575v-142H310V835h391V692H310V145h416V0zM184 1704q0 50 24 74t60 24q35 0 58.5-24.5T350 1704q0-51-23.5-76.5T268 1602q-36 0-60 25.5t-24 76.5zm328 0q0 50 24.5 74t59.5 24q36 0 60.5-24.5T681 1704q0-51-24.5-76.5T596 1602q-37 0-60.5 25.5T512 1704z"/><glyph glyph-name="Igrave" unicode="Ì" horiz-adv-x="458" d="M151 0v1462h159V0H151zm-5 1914q23-48 55.5-104t67.5-108.5 65-91.5v-23h-99q-31 27-69.5 65.5t-77.5 82-72 85.5-54 76v18h184z"/><glyph glyph-name="Iacute" unicode="Í" horiz-adv-x="458" d="M151 0v1462h159V0H151zm339 1914v-18q-20-33-53-74.5t-72-85-78-82.5-70-67h-98v23q40 55 74 107t62 101.5 51 95.5h184z"/><glyph glyph-name="Icircumflex" unicode="Î" horiz-adv-x="458" d="M151 0v1462h159V0H151zm152 1910q22-46 54.5-101t68-109 66.5-97v-20h-85q-43 41-87 93t-90 107q-46-54-92.5-108.5T54 1583h-86v20q36 48 71 102.5t65.5 107.5 50.5 97h148z"/><glyph glyph-name="Idieresis" unicode="Ï" horiz-adv-x="458" d="M151 0v1462h159V0H151zM-20 1710q0 50 24 74t60 24q35 0 58.5-24.5T146 1710q0-51-23.5-76.5T64 1608q-36 0-60 25.5t-24 76.5zm328 0q0 50 24.5 74t59.5 24q36 0 60.5-24.5T477 1710q0-51-24.5-76.5T392 1608q-37 0-60.5 25.5T308 1710z"/><glyph glyph-name="Eth" unicode="Ð" horiz-adv-x="1049" d="M449 1462q163 0 273-81t166.5-240T945 749q0-247-57-413.5t-169.5-251T438 0H150v687H45v129h105v646h299zm-4-142H312V816h207V687H312V143h122q180 0 263 150.5T780 741q0 191-36.5 320t-111 194-187.5 65z"/><glyph glyph-name="Ntilde" unicode="Ñ" horiz-adv-x="1150" d="M1002 0H809L299 1210h-8q4-53 6.5-102.5t3.5-95.5 1-90V0H151v1462h192L854 270h6q-3 59-5.5 111t-3.5 97.5-1 83.5v900h152V0zM286 1579q5 48 16 92t30.5 77.5 49.5 53 71 19.5q38 0 72-18t66-41.5 62-41.5 59-18q32 0 48.5 33t25.5 88h98q-7-118-52-180t-113-62q-37 0-73 18t-68.5 42-61.5 42-54 18q-28 0-49.5-32t-30.5-90h-96z"/><glyph glyph-name="Ograve" unicode="Ò" horiz-adv-x="1117" d="M1016 733q0-157-25-293.5t-78.5-240T772 38 561-20q-126 0-214 59.5T205.5 203t-78 241T103 735q0 250 51.5 416T308 1400t253 83q164 0 264-99.5T970.5 1114t45.5-381zm-748 0q0-199 33.5-334.5T400 194t159-69q96 0 160 67.5t96.5 203T848 733q0 301-72 453t-215 152q-98 0-163-68.5t-97.5-203T268 733zm173 1172q23-48 55.5-104t67.5-108.5 65-91.5v-23h-99q-31 27-69.5 65.5t-77.5 82-72 85.5-54 76v18h184z"/><glyph glyph-name="Oacute" unicode="Ó" horiz-adv-x="1117" d="M1016 733q0-157-25-293.5t-78.5-240T772 38 561-20q-126 0-214 59.5T205.5 203t-78 241T103 735q0 250 51.5 416T308 1400t253 83q164 0 264-99.5T970.5 1114t45.5-381zm-748 0q0-199 33.5-334.5T400 194t159-69q96 0 160 67.5t96.5 203T848 733q0 301-72 453t-215 152q-98 0-163-68.5t-97.5-203T268 733zm560 1172v-18q-20-33-53-74.5t-72-85-78-82.5-70-67h-98v23q40 55 74 107t62 101.5 51 95.5h184z"/><glyph glyph-name="Ocircumflex" unicode="Ô" horiz-adv-x="1117" d="M1016 733q0-157-25-293.5t-78.5-240T772 38 561-20q-126 0-214 59.5T205.5 203t-78 241T103 735q0 250 51.5 416T308 1400t253 83q164 0 264-99.5T970.5 1114t45.5-381zm-748 0q0-199 33.5-334.5T400 194t159-69q96 0 160 67.5t96.5 203T848 733q0 301-72 453t-215 152q-98 0-163-68.5t-97.5-203T268 733zm364 1172q22-46 54.5-101t68-109 66.5-97v-20h-85q-43 41-87 93t-90 107q-46-54-92.5-108.5T383 1578h-86v20q36 48 71 102.5t65.5 107.5 50.5 97h148z"/><glyph glyph-name="Otilde" unicode="Õ" horiz-adv-x="1117" d="M1016 733q0-157-25-293.5t-78.5-240T772 38 561-20q-126 0-214 59.5T205.5 203t-78 241T103 735q0 250 51.5 416T308 1400t253 83q164 0 264-99.5T970.5 1114t45.5-381zm-748 0q0-199 33.5-334.5T400 194t159-69q96 0 160 67.5t96.5 203T848 733q0 301-72 453t-215 152q-98 0-163-68.5t-97.5-203T268 733zm-1 846q5 48 16 92t30.5 77.5 49.5 53 71 19.5q38 0 72-18t66-41.5 62-41.5 59-18q32 0 48.5 33t25.5 88h98q-7-118-52-180t-113-62q-37 0-73 18t-68.5 42-61.5 42-54 18q-28 0-49.5-32t-30.5-90h-96z"/><glyph glyph-name="Odieresis" unicode="Ö" horiz-adv-x="1117" d="M1016 733q0-157-25-293.5t-78.5-240T772 38 561-20q-126 0-214 59.5T205.5 203t-78 241T103 735q0 250 51.5 416T308 1400t253 83q164 0 264-99.5T970.5 1114t45.5-381zm-748 0q0-199 33.5-334.5T400 194t159-69q96 0 160 67.5t96.5 203T848 733q0 301-72 453t-215 152q-98 0-163-68.5t-97.5-203T268 733zm48 971q0 50 24 74t60 24q35 0 58.5-24.5T482 1704q0-51-23.5-76.5T400 1602q-36 0-60 25.5t-24 76.5zm328 0q0 50 24.5 74t59.5 24q36 0 60.5-24.5T813 1704q0-51-24.5-76.5T728 1602q-37 0-60.5 25.5T644 1704z"/><glyph glyph-name="multiply" unicode="×" horiz-adv-x="874" d="m717 1095 91-87-282-285 276-281-87-87-280 279-280-281-87 89 278 281-278 278 88 90 279-279z"/><glyph glyph-name="Oslash" unicode="Ø" horiz-adv-x="1123" d="M1021 733q0-179-28.5-319t-85-236.5-142-147T566-20q-79 0-144 26T306 81l-90-182-99 44 113 227q-64 105-93 245.5T108 735q0 250 52 416t154 249 252 83q80 0 147-28t119-84l89 173 99-48-111-218q57-96 84.5-232.5T1021 733zm-164 0q0 108-10 199.5T816 1094L376 224q35-51 82.5-76.5T564 122q98 0 163 68.5T824.5 395 857 733zm-585 0q0-122 12.5-218T322 348l442 877q-36 59-85 87t-113 28q-98 0-163.5-69t-98-204T272 733z"/><glyph glyph-name="Ugrave" unicode="Ù" horiz-adv-x="1061" d="M923 1462V457q0-167-45-272.5t-131.5-155T533-20Q340-20 239 96T138 456v1006h159V455q0-176 61.5-253T533 125q75 0 126 33t77 106 26 193v1005h161zm-497 443q23-48 55.5-104t67.5-108.5 65-91.5v-23h-99q-31 27-69.5 65.5t-77.5 82-72 85.5-54 76v18h184z"/><glyph glyph-name="Uacute" unicode="Ú" horiz-adv-x="1061" d="M923 1462V457q0-167-45-272.5t-131.5-155T533-20Q340-20 239 96T138 456v1006h159V455q0-176 61.5-253T533 125q75 0 126 33t77 106 26 193v1005h161zm-112 443v-18q-20-33-53-74.5t-72-85-78-82.5-70-67h-98v23q40 55 74 107t62 101.5 51 95.5h184z"/><glyph glyph-name="Ucircumflex" unicode="Û" horiz-adv-x="1061" d="M923 1462V457q0-167-45-272.5t-131.5-155T533-20Q340-20 239 96T138 456v1006h159V455q0-176 61.5-253T533 125q75 0 126 33t77 106 26 193v1005h161zm-320 443q22-46 54.5-101t68-109 66.5-97v-20h-85q-43 41-87 93t-90 107q-46-54-92.5-108.5T354 1578h-86v20q36 48 71 102.5t65.5 107.5 50.5 97h148z"/><glyph glyph-name="Udieresis" unicode="Ü" horiz-adv-x="1061" d="M923 1462V457q0-167-45-272.5t-131.5-155T533-20Q340-20 239 96T138 456v1006h159V455q0-176 61.5-253T533 125q75 0 126 33t77 106 26 193v1005h161zm-640 241q0 50 24 74t60 24q35 0 58.5-24.5T449 1703q0-51-23.5-76.5T367 1601q-36 0-60 25.5t-24 76.5zm328 0q0 50 24.5 74t59.5 24q36 0 60.5-24.5T780 1703q0-51-24.5-76.5T695 1601q-37 0-60.5 25.5T611 1703z"/><glyph glyph-name="Yacute" unicode="Ý" horiz-adv-x="786" d="m394 760 225 702h167L472 569V0H313v565L0 1462h166zm247 1145v-18q-20-33-53-74.5t-72-85-78-82.5-70-67h-98v23q40 55 74 107t62 101.5 51 95.5h184z"/><glyph glyph-name="Thorn" unicode="Þ" horiz-adv-x="884" d="M828 784q0-110-25-196.5T727 441t-129.5-91T412 319H310V0H151v1462h159v-256h104q212 0 313-103.5T828 784zM310 461h86q99 0 158.5 34t86 104T667 776q0 152-61 220t-195 68H310V461z"/><glyph glyph-name="germandbls" unicode="ß" horiz-adv-x="918" d="M757 1269q0-62-19-110t-46.5-87.5-55.5-74-47-70.5-19-78q0-37 13-69t38.5-65 61.5-73q63-67 100.5-118T837 423t16-116q0-100-33.5-173.5T721.5 20 563-20q-51 0-103.5 13T367 34v150q27-18 55.5-33t60-24 67.5-9q72 0 110 48t38 130q0 46-13.5 84T642 457t-76 86q-56 58-88.5 108.5t-46 97.5-13.5 93q0 57 19 99t46.5 77l55 70 46.5 77.5 19 99.5q0 79-36 122.5T459 1431q-56 0-94-30t-57.5-88-19.5-142V0H134v1176q0 122 39 209.5T285.5 1520t176.5 47q93 0 159-35t101-101.5 35-161.5z"/><glyph glyph-name="agrave" unicode="à" horiz-adv-x="841" d="M428 1118q152 0 217-97t65-281V0H593l-23 156h-4q-26-56-62-95.5t-82-60T316-20q-85 0-139 45T97 143.5 71 302q0 163 94 253t267 98l125 8v75q0 132-36 193t-116 61q-46 0-96.5-16T199 923l-49 116q62 40 132.5 59.5T428 1118zm131-570-102-7q-116-7-172.5-65.5T228 306q0-103 37-152t102-49q91 0 141.5 88T559 436v112zM371 1568q23-48 55.5-104t67.5-108.5 65-91.5v-23h-99q-31 27-69.5 65.5t-77.5 82-72 85.5-54 76v18h184z"/><glyph glyph-name="aacute" unicode="á" horiz-adv-x="841" d="M428 1118q152 0 217-97t65-281V0H593l-23 156h-4q-26-56-62-95.5t-82-60T316-20q-85 0-139 45T97 143.5 71 302q0 163 94 253t267 98l125 8v75q0 132-36 193t-116 61q-46 0-96.5-16T199 923l-49 116q62 40 132.5 59.5T428 1118zm131-570-102-7q-116-7-172.5-65.5T228 306q0-103 37-152t102-49q91 0 141.5 88T559 436v112zm102 1020v-18q-20-33-53-74.5t-72-85-78-82.5-70-67h-98v23q40 55 74 107t62 101.5 51 95.5h184z"/><glyph glyph-name="acircumflex" unicode="â" horiz-adv-x="841" d="M428 1118q152 0 217-97t65-281V0H593l-23 156h-4q-26-56-62-95.5t-82-60T316-20q-85 0-139 45T97 143.5 71 302q0 163 94 253t267 98l125 8v75q0 132-36 193t-116 61q-46 0-96.5-16T199 923l-49 116q62 40 132.5 59.5T428 1118zm131-570-102-7q-116-7-172.5-65.5T228 306q0-103 37-152t102-49q91 0 141.5 88T559 436v112zm-54 1020q22-46 54.5-101t68-109 66.5-97v-20h-85q-43 41-87 93t-90 107q-46-54-92.5-108.5T256 1241h-86v20q36 48 71 102.5t65.5 107.5 50.5 97h148z"/><glyph glyph-name="atilde" unicode="ã" horiz-adv-x="841" d="M428 1118q152 0 217-97t65-281V0H593l-23 156h-4q-26-56-62-95.5t-82-60T316-20q-85 0-139 45T97 143.5 71 302q0 163 94 253t267 98l125 8v75q0 132-36 193t-116 61q-46 0-96.5-16T199 923l-49 116q62 40 132.5 59.5T428 1118zm131-570-102-7q-116-7-172.5-65.5T228 306q0-103 37-152t102-49q91 0 141.5 88T559 436v112zm-426 695q5 48 16 92t30.5 77.5 49.5 53 71 19.5q38 0 72-18t66-41.5 62-41.5 59-18q32 0 48.5 33t25.5 88h98q-7-118-52-180t-113-62q-37 0-73 18t-68.5 42-61.5 42-54 18q-28 0-49.5-32t-30.5-90h-96z"/><glyph glyph-name="adieresis" unicode="ä" horiz-adv-x="841" d="M428 1118q152 0 217-97t65-281V0H593l-23 156h-4q-26-56-62-95.5t-82-60T316-20q-85 0-139 45T97 143.5 71 302q0 163 94 253t267 98l125 8v75q0 132-36 193t-116 61q-46 0-96.5-16T199 923l-49 116q62 40 132.5 59.5T428 1118zm131-570-102-7q-116-7-172.5-65.5T228 306q0-103 37-152t102-49q91 0 141.5 88T559 436v112zm-377 819q0 50 24 74t60 24q35 0 58.5-24.5T348 1367q0-51-23.5-76.5T266 1265q-36 0-60 25.5t-24 76.5zm328 0q0 50 24.5 74t59.5 24q36 0 60.5-24.5T679 1367q0-51-24.5-76.5T594 1265q-37 0-60.5 25.5T510 1367z"/><glyph glyph-name="aring" unicode="å" horiz-adv-x="841" d="M428 1118q152 0 217-97t65-281V0H593l-23 156h-4q-26-56-62-95.5t-82-60T316-20q-85 0-139 45T97 143.5 71 302q0 163 94 253t267 98l125 8v75q0 132-36 193t-116 61q-46 0-96.5-16T199 923l-49 116q62 40 132.5 59.5T428 1118zm131-570-102-7q-116-7-172.5-65.5T228 306q0-103 37-152t102-49q91 0 141.5 88T559 436v112zm-127 701q-97 0-154 55.5T221 1451q0 92 57 147.5t154 55.5q92 0 151.5-54.5T643 1454q0-92-57.5-148.5T432 1249zm2 95q49 0 80 29t31 77q0 50-29 81t-82 31q-51 0-82-31t-31-80q0-48 28-77.5t85-29.5z"/><glyph glyph-name="ae" unicode="æ" horiz-adv-x="1318" d="M905 1116q113 0 185-65t106.5-174.5T1231 632V523H709q3-208 64-311t179-103q59 0 119.5 18.5T1191 183V48q-55-34-117.5-51T939-20q-73 0-135.5 27T694 85.5 620 210q-32-79-75.5-130t-98-75.5T325-20q-88 0-144.5 44.5T97.5 143 71 303q0 109 42.5 185T237 606t196 47l124 7v81q0 125-37 187t-114 62q-45 0-96-16t-110-51l-50 117q55 34 121.5 56t145.5 22q91 0 148.5-40T651 955q41 78 104.5 119.5T905 1116zM559 547l-101-6q-118-7-174-64t-56-171q0-101 36-150.5T367 106q60 0 103 39t66 111 23 171v120zm345 441q-85 0-135.5-84.5T711 645h377q0 97-19.5 174.5t-60 123T904 988z"/><glyph glyph-name="ccedilla" unicode="ç" horiz-adv-x="703" d="M451-20q-121 0-201.5 63T129 231 89 541q0 181 40.5 310T252 1049t205 69q62 0 111.5-13t92.5-37l-49-127q-37 20-73.5 30T467 981q-72 0-121-49.5T271.5 785 246 543q0-141 24.5-236t74-143.5T468 115q44 0 89.5 12.5T649 164V34Q607 8 551.5-6T451-20zm168-263q0-101-63.5-155T379-492q-35 0-64 3.5t-49 9.5v103q20-6 43.5-9t46.5-3q67 0 100.5 29t33.5 76q0 56-43 83.5T330-162L400 0h95l-46-105q55-11 93-35t57.5-60 19.5-83z"/><glyph glyph-name="egrave" unicode="è" horiz-adv-x="847" d="M436 1116q112 0 184.5-65t108-175T764 631V522H241q2-205 63.5-308T490 111q59 0 116 18t118 58V49Q667 14 605-3T473-20q-137 0-222 73.5t-123.5 201T89 543q0 184 39 312t116.5 194.5T436 1116zm0-126q-87 0-136-84.5T243 645h377q0 93-19.5 171.5t-60 126T436 990zm-67 578q23-48 55.5-104t67.5-108.5 65-91.5v-23h-99q-31 27-69.5 65.5t-77.5 82-72 85.5-54 76v18h184z"/><glyph glyph-name="eacute" unicode="é" horiz-adv-x="847" d="M436 1116q112 0 184.5-65t108-175T764 631V522H241q2-205 63.5-308T490 111q59 0 116 18t118 58V49Q667 14 605-3T473-20q-137 0-222 73.5t-123.5 201T89 543q0 184 39 312t116.5 194.5T436 1116zm0-126q-87 0-136-84.5T243 645h377q0 93-19.5 171.5t-60 126T436 990zm265 578v-18q-20-33-53-74.5t-72-85-78-82.5-70-67h-98v23q40 55 74 107t62 101.5 51 95.5h184z"/><glyph glyph-name="ecircumflex" unicode="ê" horiz-adv-x="847" d="M436 1116q112 0 184.5-65t108-175T764 631V522H241q2-205 63.5-308T490 111q59 0 116 18t118 58V49Q667 14 605-3T473-20q-137 0-222 73.5t-123.5 201T89 543q0 184 39 312t116.5 194.5T436 1116zm0-126q-87 0-136-84.5T243 645h377q0 93-19.5 171.5t-60 126T436 990zm67 578q22-46 54.5-101t68-109 66.5-97v-20h-85q-43 41-87 93t-90 107q-46-54-92.5-108.5T254 1241h-86v20q36 48 71 102.5t65.5 107.5 50.5 97h148z"/><glyph glyph-name="edieresis" unicode="ë" horiz-adv-x="847" d="M436 1116q112 0 184.5-65t108-175T764 631V522H241q2-205 63.5-308T490 111q59 0 116 18t118 58V49Q667 14 605-3T473-20q-137 0-222 73.5t-123.5 201T89 543q0 184 39 312t116.5 194.5T436 1116zm0-126q-87 0-136-84.5T243 645h377q0 93-19.5 171.5t-60 126T436 990zm-255 377q0 50 24 74t60 24q35 0 58.5-24.5T347 1367q0-51-23.5-76.5T265 1265q-36 0-60 25.5t-24 76.5zm328 0q0 50 24.5 74t59.5 24q36 0 60.5-24.5T678 1367q0-51-24.5-76.5T593 1265q-37 0-60.5 25.5T509 1367z"/><glyph glyph-name="igrave" unicode="ì" horiz-adv-x="422" d="M288 0H134v1098h154V0zM149 1568q23-48 55.5-104t67.5-108.5 65-91.5v-23h-99q-31 27-69.5 65.5t-77.5 82-72 85.5-54 76v18h184z"/><glyph glyph-name="iacute" unicode="í" horiz-adv-x="422" d="M288 0H134v1098h154V0zm192 1568v-18q-20-33-53-74.5t-72-85-78-82.5-70-67h-98v23q40 55 74 107t62 101.5 51 95.5h184z"/><glyph glyph-name="icircumflex" unicode="î" horiz-adv-x="422" d="M288 0H134v1098h154V0zm-5 1568q22-46 54.5-101t68-109 66.5-97v-20h-85q-43 41-87 93t-90 107q-46-54-92.5-108.5T34 1241h-86v20q36 48 71 102.5T84.5 1471t50.5 97h148z"/><glyph glyph-name="idieresis" unicode="ï" horiz-adv-x="422" d="M288 0H134v1098h154V0zM-39 1367q0 50 24 74t60 24q35 0 58.5-24.5T127 1367q0-51-23.5-76.5T45 1265q-36 0-60 25.5t-24 76.5zm328 0q0 50 24.5 74t59.5 24q36 0 60.5-24.5T458 1367q0-51-24.5-76.5T373 1265q-37 0-60.5 25.5T289 1367z"/><glyph glyph-name="eth" unicode="ð" horiz-adv-x="904" d="M321 1560q38-22 75-49.5t74-61.5l171 111 61-88-159-98q91-104 151.5-231T786 863.5 817 530t-41.5-303.5T652.5 42 451-20 250 48 128 228.5 87 475q0 158 42.5 268T248 910.5 425 968q45 0 82.5-11.5t67-33T625 870l6 2q-22 118-71.5 224T434 1293l-158-102-60 86 149 96q-28 29-57 53t-58 44zm136-727q-69 0-117-41.5t-73-122T242 470q0-100 22.5-181t70-128.5T456 113q110 0 158.5 94.5T663 486q0 73-13 136t-39 110.5-64.5 74T457 833z"/><glyph glyph-name="ntilde" unicode="ñ" horiz-adv-x="923" d="M529 1118q130 0 197-91t67-279V0H639v717q0 133-34.5 199T496 982q-108 0-158-96t-50-308V0H134v1098h123l17-159h10q23 55 59 95t83 62 103 22zm-352 126q5 48 16 92t30.5 77.5 49.5 53 71 19.5q38 0 72-18t66-41.5 62-41.5 59-18q32 0 48.5 33t25.5 88h98q-7-118-52-180t-113-62q-37 0-73 18t-68.5 42-61.5 42-54 18q-28 0-49.5-32t-30.5-90h-96z"/><glyph glyph-name="ograve" unicode="ò" horiz-adv-x="902" d="M815 550q0-130-22-235t-67-180T612 20 449-20q-90 0-158 40T178 134.5t-68 180T87 550q0 182 39 308.5t120 193 206 66.5q117 0 198-64.5t123-191T815 550zm-571 0q0-143 22-240t68.5-146T453 115q71 0 116.5 48T637 307.5 659 550q0 143-22 239.5t-67.5 145T452 983q-110 0-159-108.5T244 550zm145 1018q23-48 55.5-104t67.5-108.5 65-91.5v-23h-99q-31 27-69.5 65.5t-77.5 82-72 85.5-54 76v18h184z"/><glyph glyph-name="oacute" unicode="ó" horiz-adv-x="902" d="M815 550q0-130-22-235t-67-180T612 20 449-20q-90 0-158 40T178 134.5t-68 180T87 550q0 182 39 308.5t120 193 206 66.5q117 0 198-64.5t123-191T815 550zm-571 0q0-143 22-240t68.5-146T453 115q71 0 116.5 48T637 307.5 659 550q0 143-22 239.5t-67.5 145T452 983q-110 0-159-108.5T244 550zm473 1018v-18q-20-33-53-74.5t-72-85-78-82.5-70-67h-98v23q40 55 74 107t62 101.5 51 95.5h184z"/><glyph glyph-name="ocircumflex" unicode="ô" horiz-adv-x="902" d="M815 550q0-130-22-235t-67-180T612 20 449-20q-90 0-158 40T178 134.5t-68 180T87 550q0 182 39 308.5t120 193 206 66.5q117 0 198-64.5t123-191T815 550zm-571 0q0-143 22-240t68.5-146T453 115q71 0 116.5 48T637 307.5 659 550q0 143-22 239.5t-67.5 145T452 983q-110 0-159-108.5T244 550zm278 1018q22-46 54.5-101t68-109 66.5-97v-20h-85q-43 41-87 93t-90 107q-46-54-92.5-108.5T273 1241h-86v20q36 48 71 102.5t65.5 107.5 50.5 97h148z"/><glyph glyph-name="otilde" unicode="õ" horiz-adv-x="902" d="M815 550q0-130-22-235t-67-180T612 20 449-20q-90 0-158 40T178 134.5t-68 180T87 550q0 182 39 308.5t120 193 206 66.5q117 0 198-64.5t123-191T815 550zm-571 0q0-143 22-240t68.5-146T453 115q71 0 116.5 48T637 307.5 659 550q0 143-22 239.5t-67.5 145T452 983q-110 0-159-108.5T244 550zm-93 693q5 48 16 92t30.5 77.5 49.5 53 71 19.5q38 0 72-18t66-41.5 62-41.5 59-18q32 0 48.5 33t25.5 88h98q-7-118-52-180t-113-62q-37 0-73 18t-68.5 42-61.5 42-54 18q-28 0-49.5-32t-30.5-90h-96z"/><glyph glyph-name="odieresis" unicode="ö" horiz-adv-x="902" d="M815 550q0-130-22-235t-67-180T612 20 449-20q-90 0-158 40T178 134.5t-68 180T87 550q0 182 39 308.5t120 193 206 66.5q117 0 198-64.5t123-191T815 550zm-571 0q0-143 22-240t68.5-146T453 115q71 0 116.5 48T637 307.5 659 550q0 143-22 239.5t-67.5 145T452 983q-110 0-159-108.5T244 550zm-43 817q0 50 24 74t60 24q35 0 58.5-24.5T367 1367q0-51-23.5-76.5T285 1265q-36 0-60 25.5t-24 76.5zm328 0q0 50 24.5 74t59.5 24q36 0 60.5-24.5T698 1367q0-51-24.5-76.5T613 1265q-37 0-60.5 25.5T529 1367z"/><glyph glyph-name="divide" unicode="÷" horiz-adv-x="874" d="M61 658v130h748V658H61zm377-423q-48 0-73 31t-25 90q0 60 24.5 90.5T438 477q48 0 72-30.5t24-90.5q0-61-26-91t-70-30zm0 732q-48 0-73 30.5t-25 89.5 24.5 90 73.5 31q48 0 72-31t24-90q0-61-26-90.5T438 967z"/><glyph glyph-name="oslash" unicode="ø" horiz-adv-x="909" d="M819 550q0-183-42.5-310.5T652.5 46 453-20q-55 0-102.5 16.5T266 45l-90-183-94 46 109 217q-51 77-75.5 183T91 550q0 281 93 424.5T457 1118q57 0 104.5-18t87.5-56l79 156 94-46-95-192q47-75 69.5-178.5T819 550zm-574 0q0-84 8-151t23-114l317 632q-25 35-59 52.5T457 987q-112 0-162-109.5T245 550zm425 0q0 78-8 140.5T642 799L328 171q24-31 56.5-46.5T455 109q74 0 121.5 49T647 305t23 245z"/><glyph glyph-name="ugrave" unicode="ù" horiz-adv-x="923" d="M789 1098V0H666l-17 156h-11q-22-54-57.5-93.5T499 1.5 396-20q-96 0-154.5 48t-85 137T130 377v721h154V406q0-148 34.5-218T424 118q77 0 123 42.5t67 129T635 509v589h154zm-387 470q23-48 55.5-104t67.5-108.5 65-91.5v-23h-99q-31 27-69.5 65.5t-77.5 82-72 85.5-54 76v18h184z"/><glyph glyph-name="uacute" unicode="ú" horiz-adv-x="923" d="M789 1098V0H666l-17 156h-11q-22-54-57.5-93.5T499 1.5 396-20q-96 0-154.5 48t-85 137T130 377v721h154V406q0-148 34.5-218T424 118q77 0 123 42.5t67 129T635 509v589h154zm-56 470v-18q-20-33-53-74.5t-72-85-78-82.5-70-67h-98v23q40 55 74 107t62 101.5 51 95.5h184z"/><glyph glyph-name="ucircumflex" unicode="û" horiz-adv-x="923" d="M789 1098V0H666l-17 156h-11q-22-54-57.5-93.5T499 1.5 396-20q-96 0-154.5 48t-85 137T130 377v721h154V406q0-148 34.5-218T424 118q77 0 123 42.5t67 129T635 509v589h154zm-253 470q22-46 54.5-101t68-109 66.5-97v-20h-85q-43 41-87 93t-90 107q-46-54-92.5-108.5T287 1241h-86v20q36 48 71 102.5t65.5 107.5 50.5 97h148z"/><glyph glyph-name="udieresis" unicode="ü" horiz-adv-x="923" d="M789 1098V0H666l-17 156h-11q-22-54-57.5-93.5T499 1.5 396-20q-96 0-154.5 48t-85 137T130 377v721h154V406q0-148 34.5-218T424 118q77 0 123 42.5t67 129T635 509v589h154zm-575 269q0 50 24 74t60 24q35 0 58.5-24.5T380 1367q0-51-23.5-76.5T298 1265q-36 0-60 25.5t-24 76.5zm328 0q0 50 24.5 74t59.5 24q36 0 60.5-24.5T711 1367q0-51-24.5-76.5T626 1265q-37 0-60.5 25.5T542 1367z"/><glyph glyph-name="yacute" unicode="ý" horiz-adv-x="746" d="M12 1098h159l155-642q9-42 17.5-82t16-79.5T372 215h8q8 58 20 117.5T428 457l151 641h158L411-176q-29-110-68-180t-91.5-103T127-492q-24 0-48 5t-51 12v137q19-7 39.5-11t39.5-4q38 0 65 19.5t48 64.5 41 123L300 8zm630 470v-18q-20-33-53-74.5t-72-85-78-82.5-70-67h-98v23q40 55 74 107t62 101.5 51 95.5h184z"/><glyph glyph-name="thorn" unicode="þ" horiz-adv-x="937" d="M852 551q0-183-36.5-310.5T709 46.5 539-20q-56 0-104.5 21.5t-85.5 61-61 92.5h-7q2-27 4-52.5t3.5-49T290 8v-498H134v2046h154v-447q0-43-1.5-85.5T281 937h6q28 61 64.5 101t81.5 60 98 20q158 0 239.5-144.5T852 551zm-157-2q0 224-46.5 329T498 983q-105 0-157.5-97T288 586v-53q0-215 53-316.5T500 115q75 0 117.5 57t60 155.5T695 549z"/><glyph glyph-name="ydieresis" unicode="ÿ" horiz-adv-x="746" d="M12 1098h159l155-642q9-42 17.5-82t16-79.5T372 215h8q8 58 20 117.5T428 457l151 641h158L411-176q-29-110-68-180t-91.5-103T127-492q-24 0-48 5t-51 12v137q19-7 39.5-11t39.5-4q38 0 65 19.5t48 64.5 41 123L300 8zm112 269q0 50 24 74t60 24q35 0 58.5-24.5T290 1367q0-51-23.5-76.5T208 1265q-36 0-60 25.5t-24 76.5zm328 0q0 50 24.5 74t59.5 24q36 0 60.5-24.5T621 1367q0-51-24.5-76.5T536 1265q-37 0-60.5 25.5T452 1367z"/><glyph glyph-name="Amacron" unicode="Ā" horiz-adv-x="906" d="M737 0 627 470H280L170 0H0l353 1462h193L906 0H737zM597 617l-112 496q-7 37-13.5 72.5t-12 69T449 1320q-3-32-8-66t-12-68.5-15-70.5L305 617h292zm99 1123v-118H207v118h489z"/><glyph glyph-name="amacron" unicode="ā" horiz-adv-x="841" d="M428 1118q152 0 217-97t65-281V0H593l-23 156h-4q-26-56-62-95.5t-82-60T316-20q-85 0-139 45T97 143.5 71 302q0 163 94 253t267 98l125 8v75q0 132-36 193t-116 61q-46 0-96.5-16T199 923l-49 116q62 40 132.5 59.5T428 1118zm131-570-102-7q-116-7-172.5-65.5T228 306q0-103 37-152t102-49q91 0 141.5 88T559 436v112zm118 828v-118H188v118h489z"/><glyph glyph-name="Abreve" unicode="Ă" horiz-adv-x="906" d="M737 0 627 470H280L170 0H0l353 1462h193L906 0H737zM597 617l-112 496q-7 37-13.5 72.5t-12 69T449 1320q-3-32-8-66t-12-68.5-15-70.5L305 617h292zm97 1259q-1-83-32.5-143t-87-92.5T445 1608q-109 0-172.5 67T204 1876h101q5-49 22.5-82.5T376 1743t73-17 72.5 16.5 49 50T593 1876h101z"/><glyph glyph-name="abreve" unicode="ă" horiz-adv-x="841" d="M428 1118q152 0 217-97t65-281V0H593l-23 156h-4q-26-56-62-95.5t-82-60T316-20q-85 0-139 45T97 143.5 71 302q0 163 94 253t267 98l125 8v75q0 132-36 193t-116 61q-46 0-96.5-16T199 923l-49 116q62 40 132.5 59.5T428 1118zm131-570-102-7q-116-7-172.5-65.5T228 306q0-103 37-152t102-49q91 0 141.5 88T559 436v112zm115 964q-1-83-32.5-143t-87-92.5T425 1244q-109 0-172.5 67T184 1512h101q5-49 22.5-82.5T356 1379t73-17 72.5 16.5 49 50T573 1512h101z"/><glyph glyph-name="Aogonek" unicode="Ą" horiz-adv-x="906" d="M737 0 627 470H280L170 0H0l353 1462h193L906 0H737zM597 617l-112 496q-7 37-13.5 72.5t-12 69T449 1320q-3-32-8-66t-12-68.5-15-70.5L305 617h292zm129-861q0-50 24-76t68-26q23 0 38.5 4t26.5 8v-107q-17-7-41-11.5t-53-4.5q-95 0-143 48t-48 139q0 52 19.5 103.5t57 100T764 24l89-24q-70-70-98.5-127T726-244z"/><glyph glyph-name="aogonek" unicode="ą" horiz-adv-x="841" d="M428 1118q152 0 217-97t65-281V0H593l-23 156h-4q-26-56-62-95.5t-82-60T316-20q-85 0-139 45T97 143.5 71 302q0 163 94 253t267 98l125 8v75q0 132-36 193t-116 61q-46 0-96.5-16T199 923l-49 116q62 40 132.5 59.5T428 1118zm131-570-102-7q-116-7-172.5-65.5T228 306q0-103 37-152t102-49q91 0 141.5 88T559 436v112zm12-792q0-50 24-76t68-26q23 0 38.5 4t26.5 8v-107q-17-7-41-11.5t-53-4.5q-95 0-143 48t-48 139q0 52 19.5 103.5t57 100T609 24l89-24q-70-70-98.5-127T571-244z"/><glyph glyph-name="Cacute" unicode="Ć" horiz-adv-x="906" d="M596 1340q-87 0-149.5-49t-102-134.5-58-195T268 731q0-188 41.5-324T427 197.5 606 124q62 0 117 16t101 39V35Q776 7 717-6.5T588-20q-149 0-258 90T162 328.5 103 733q0 155 29.5 291t90 240T375 1426.5t216 58.5q72 0 138.5-18.5T857 1413l-57-135q-46 29-97 45.5T596 1340zm241 592v-18q-20-33-53-74.5t-72-85-78-82.5-70-67h-98v23q40 55 74 107t62 101.5 51 95.5h184z"/><glyph glyph-name="cacute" unicode="ć" horiz-adv-x="703" d="M451-20q-121 0-201.5 63T129 231 89 541q0 181 40.5 310T252 1049t205 69q62 0 111.5-13t92.5-37l-49-127q-37 20-73.5 30T467 981q-72 0-121-49.5T271.5 785 246 543q0-141 24.5-236t74-143.5T468 115q44 0 89.5 12.5T649 164V34Q607 8 551.5-6T451-20zm241 1588v-18q-20-33-53-74.5t-72-85-78-82.5-70-67h-98v23q40 55 74 107t62 101.5 51 95.5h184z"/><glyph glyph-name="Ccircumflex" unicode="Ĉ" horiz-adv-x="906" d="M596 1340q-87 0-149.5-49t-102-134.5-58-195T268 731q0-188 41.5-324T427 197.5 606 124q62 0 117 16t101 39V35Q776 7 717-6.5T588-20q-149 0-258 90T162 328.5 103 733q0 155 29.5 291t90 240T375 1426.5t216 58.5q72 0 138.5-18.5T857 1413l-57-135q-46 29-97 45.5T596 1340zm42 592q22-46 54.5-101t68-109 66.5-97v-20h-85q-43 41-87 93t-90 107q-46-54-92.5-108.5T389 1605h-86v20q36 48 71 102.5t65.5 107.5 50.5 97h148z"/><glyph glyph-name="ccircumflex" unicode="ĉ" horiz-adv-x="703" d="M451-20q-121 0-201.5 63T129 231 89 541q0 181 40.5 310T252 1049t205 69q62 0 111.5-13t92.5-37l-49-127q-37 20-73.5 30T467 981q-72 0-121-49.5T271.5 785 246 543q0-141 24.5-236t74-143.5T468 115q44 0 89.5 12.5T649 164V34Q607 8 551.5-6T451-20zm45 1588q22-46 54.5-101t68-109 66.5-97v-20h-85q-43 41-87 93t-90 107q-46-54-92.5-108.5T247 1241h-86v20q36 48 71 102.5t65.5 107.5 50.5 97h148z"/><glyph glyph-name="Cdot" unicode="Ċ" horiz-adv-x="906" d="M596 1340q-87 0-149.5-49t-102-134.5-58-195T268 731q0-188 41.5-324T427 197.5 606 124q62 0 117 16t101 39V35Q776 7 717-6.5T588-20q-149 0-258 90T162 328.5 103 733q0 155 29.5 291t90 240T375 1426.5t216 58.5q72 0 138.5-18.5T857 1413l-57-135q-46 29-97 45.5T596 1340zm-23 530q46 0 67.5-30t21.5-83q0-52-22.5-82t-66.5-30q-43 0-68 30t-25 82q0 55 23.5 84t69.5 29z"/><glyph glyph-name="cdot" unicode="ċ" horiz-adv-x="703" d="M451-20q-121 0-201.5 63T129 231 89 541q0 181 40.5 310T252 1049t205 69q62 0 111.5-13t92.5-37l-49-127q-37 20-73.5 30T467 981q-72 0-121-49.5T271.5 785 246 543q0-141 24.5-236t74-143.5T468 115q44 0 89.5 12.5T649 164V34Q607 8 551.5-6T451-20zm-22 1530q46 0 67.5-30t21.5-83q0-52-22.5-82t-66.5-30q-43 0-68 30t-25 82q0 55 23.5 84t69.5 29z"/><glyph glyph-name="Ccaron" unicode="Č" horiz-adv-x="906" d="M596 1340q-87 0-149.5-49t-102-134.5-58-195T268 731q0-188 41.5-324T427 197.5 606 124q62 0 117 16t101 39V35Q776 7 717-6.5T588-20q-149 0-258 90T162 328.5 103 733q0 155 29.5 291t90 240T375 1426.5t216 58.5q72 0 138.5-18.5T857 1413l-57-135q-46 29-97 45.5T596 1340zm-105 265q-22 46-52.5 99.5t-65 107.5-69.5 100v20h86q38-37 84-91.5t91-108.5q51 62 87.5 103.5T741 1932h85v-20q-30-42-65.5-95.5t-68.5-109-55-102.5H491z"/><glyph glyph-name="ccaron" unicode="č" horiz-adv-x="703" d="M451-20q-121 0-201.5 63T129 231 89 541q0 181 40.5 310T252 1049t205 69q62 0 111.5-13t92.5-37l-49-127q-37 20-73.5 30T467 981q-72 0-121-49.5T271.5 785 246 543q0-141 24.5-236t74-143.5T468 115q44 0 89.5 12.5T649 164V34Q607 8 551.5-6T451-20zM350 1241q-22 46-52.5 99.5t-65 107.5-69.5 100v20h86q38-37 84-91.5t91-108.5q51 62 87.5 103.5T600 1568h85v-20q-30-42-65.5-95.5t-68.5-109-55-102.5H350z"/><glyph glyph-name="Dcaron" unicode="Ď" horiz-adv-x="1047" d="M945 749q0-247-57-413.5t-169.5-251T438 0H151v1462h299q163 0 273-81t166-240 56-392zm-166-8q0 191-37 320t-111 194-187 65H310V143h122q181 0 264 150.5T779 741zm-348 864q-22 46-52.5 99.5t-65 107.5-69.5 100v20h86q38-37 84-91.5t91-108.5q51 62 87.5 103.5T681 1932h85v-20q-30-42-65.5-95.5t-68.5-109-55-102.5H431z"/><glyph glyph-name="dcaron" unicode="ď" horiz-adv-x="937" d="M407-20q-157 0-238.5 144.5T87 546q0 275 82 423.5T402 1118q53 0 100-20.5t84.5-58T650 949h7q-2 46-3.5 82.5T652 1100v456h153V0H682l-21 148h-9q-28-52-63.5-90t-80-58T407-20zm34 131q104 0 157.5 97T652 495v75q0 209-51.5 310T439 981q-100 0-147.5-111.5T244 546q0-214 47.5-324.5T441 111zm656 1445v-20q-9-43-30-102.5t-46-115.5-47-90h-85v23q4 16 11 56t14.5 88.5 13 92.5 6.5 68h163z"/><glyph glyph-name="Dcroat" unicode="Đ" horiz-adv-x="1049" d="M449 1462q163 0 273-81t166.5-240T945 749q0-247-57-413.5t-169.5-251T438 0H150v687H45v129h105v646h299zm-4-142H312V816h207V687H312V143h122q180 0 263 150.5T780 741q0 191-36.5 320t-111 194-187.5 65z"/><glyph glyph-name="dcroat" unicode="đ" horiz-adv-x="940" d="M407-20q-157 0-238.5 144T87 541t82 418.5T402 1105q53 0 100-20t84.5-57.5T650 937h7q-2 44-3.5 81.5T652 1087v165H418v119h234v185h153v-185h121v-119H805V0H682l-21 149h-11q-28-54-63-91.5T508 0 407-20zm34 131q104 0 157.5 97.5T652 506v57q0 206-51.5 304.5T439 966q-100 0-147.5-108.5T244 539q0-211 47.5-319.5T441 111z"/><glyph glyph-name="Emacron" unicode="Ē" horiz-adv-x="818" d="M726 0H151v1462h575v-142H310V835h391V692H310V145h416V0zm-41 1740v-118H196v118h489z"/><glyph glyph-name="emacron" unicode="ē" horiz-adv-x="847" d="M436 1116q112 0 184.5-65t108-175T764 631V522H241q2-205 63.5-308T490 111q59 0 116 18t118 58V49Q667 14 605-3T473-20q-137 0-222 73.5t-123.5 201T89 543q0 184 39 312t116.5 194.5T436 1116zm0-126q-87 0-136-84.5T243 645h377q0 93-19.5 171.5t-60 126T436 990zm237 386v-118H184v118h489z"/><glyph glyph-name="Ebreve" unicode="Ĕ" horiz-adv-x="818" d="M726 0H151v1462h575v-142H310V835h391V692H310V145h416V0zm-42 1876q-1-83-32.5-143t-87-92.5T435 1608q-109 0-172.5 67T194 1876h101q5-49 22.5-82.5T366 1743t73-17 72.5 16.5 49 50T583 1876h101z"/><glyph glyph-name="ebreve" unicode="ĕ" horiz-adv-x="847" d="M436 1116q112 0 184.5-65t108-175T764 631V522H241q2-205 63.5-308T490 111q59 0 116 18t118 58V49Q667 14 605-3T473-20q-137 0-222 73.5t-123.5 201T89 543q0 184 39 312t116.5 194.5T436 1116zm0-126q-87 0-136-84.5T243 645h377q0 93-19.5 171.5t-60 126T436 990zm238 522q-1-83-32.5-143t-87-92.5T425 1244q-109 0-172.5 67T184 1512h101q5-49 22.5-82.5T356 1379t73-17 72.5 16.5 49 50T573 1512h101z"/><glyph glyph-name="Edotaccent" unicode="Ė" horiz-adv-x="818" d="M726 0H151v1462h575v-142H310V835h391V692H310V145h416V0zM447 1872q46 0 67.5-30t21.5-83q0-52-22.5-82t-66.5-30q-43 0-68 30t-25 82q0 55 23.5 84t69.5 29z"/><glyph glyph-name="edotaccent" unicode="ė" horiz-adv-x="847" d="M436 1116q112 0 184.5-65t108-175T764 631V522H241q2-205 63.5-308T490 111q59 0 116 18t118 58V49Q667 14 605-3T473-20q-137 0-222 73.5t-123.5 201T89 543q0 184 39 312t116.5 194.5T436 1116zm0-126q-87 0-136-84.5T243 645h377q0 93-19.5 171.5t-60 126T436 990zm2 520q46 0 67.5-30t21.5-83q0-52-22.5-82t-66.5-30q-43 0-68 30t-25 82q0 55 23.5 84t69.5 29z"/><glyph glyph-name="Eogonek" unicode="Ę" horiz-adv-x="818" d="M726 0H151v1462h575v-142H310V835h391V692H310V145h416V0zM548-244q0-50 24-76t68-26q23 0 38.5 4t26.5 8v-107q-17-7-41-11.5t-53-4.5q-95 0-143 48t-48 139q0 52 19.5 103.5t57 100T586 24l89-24q-70-70-98.5-127T548-244z"/><glyph glyph-name="eogonek" unicode="ę" horiz-adv-x="847" d="M553-245q0-48 24.5-72.5T646-342q20 0 39 3.5t31 7.5v-108q-21-8-47.5-12.5T615-456q-95 0-142 49t-47 140q0 52 20 101t55 92.5T581 4l143 45Q671-2 632.5-54.5t-59-101T553-245zM436 1116q112 0 184.5-65t108-175T764 631V522H241q2-205 63.5-308T490 111q59 0 116 18t118 58V49Q667 14 605-3T473-20q-137 0-222 73.5t-123.5 201T89 543q0 184 39 312t116.5 194.5T436 1116zm0-126q-87 0-136-84.5T243 645h377q0 93-19.5 171.5t-60 126T436 990z"/><glyph glyph-name="Ecaron" unicode="Ě" horiz-adv-x="818" d="M726 0H151v1462h575v-142H310V835h391V692H310V145h416V0zM365 1605q-22 46-52.5 99.5t-65 107.5-69.5 100v20h86q38-37 84-91.5t91-108.5q51 62 87.5 103.5T615 1932h85v-20q-30-42-65.5-95.5t-68.5-109-55-102.5H365z"/><glyph glyph-name="ecaron" unicode="ě" horiz-adv-x="847" d="M436 1116q112 0 184.5-65t108-175T764 631V522H241q2-205 63.5-308T490 111q59 0 116 18t118 58V49Q667 14 605-3T473-20q-137 0-222 73.5t-123.5 201T89 543q0 184 39 312t116.5 194.5T436 1116zm0-126q-87 0-136-84.5T243 645h377q0 93-19.5 171.5t-60 126T436 990zm-82 251q-22 46-52.5 99.5t-65 107.5-69.5 100v20h86q38-37 84-91.5t91-108.5q51 62 87.5 103.5T604 1568h85v-20q-30-42-65.5-95.5t-68.5-109-55-102.5H354z"/><glyph glyph-name="Gcircumflex" unicode="Ĝ" horiz-adv-x="1110" d="M629 766h371V51Q911 16 816-2T624-20q-179 0-294.5 98.5t-171 269T103 734q0 219 60.5 388t183 265 307.5 96q90 0 173-23.5t156-70.5l-57-135q-68 44-134.5 65T657 1340q-127 0-213-71t-130-207-44-332q0-172 37.5-309.5t118.5-217T637 124q58 0 110.5 8.5T845 157v466H629v143zm71 1166q22-46 54.5-101t68-109 66.5-97v-20h-85q-43 41-87 93t-90 107q-46-54-92.5-108.5T451 1605h-86v20q36 48 71 102.5t65.5 107.5 50.5 97h148z"/><glyph glyph-name="gcircumflex" unicode="ĝ" horiz-adv-x="790" d="M351-492q-157 0-247 80T14-188Q14-75 68-3t139 96q-42 20-68.5 60T112 248q0 56 26.5 102t74.5 88q-64 38-101 122T75 753q0 112 36.5 193.5T217 1073t165 45q30 0 53-3t41-8 32-12h272v-99l-147-18q28-45 41-102.5T687 759q0-169-80-265.5T381 397q-45 0-72 9-27-25-47.5-57T241 270q0-29 13.5-51t39.5-34 64-12h158q123 0 189.5-71T772-114q0-180-108.5-279T351-492zm12 122q87 0 145.5 26.5t88 80.5T626-129q0 65-20.5 100T547 19t-91 13H325q-46 0-83.5-20.5T182-54t-22-120q0-97 54.5-146.5T363-370zm19 881q72 0 111.5 62T533 755q0 126-40.5 188T380 1005q-70 0-110-66.5T230 752q0-115 38-178t114-63zm71 1057q22-46 54.5-101t68-109 66.5-97v-20h-85q-43 41-87 93t-90 107q-46-54-92.5-108.5T204 1241h-86v20q36 48 71 102.5t65.5 107.5 50.5 97h148z"/><glyph glyph-name="Gbreve" unicode="Ğ" horiz-adv-x="1110" d="M629 766h371V51Q911 16 816-2T624-20q-179 0-294.5 98.5t-171 269T103 734q0 219 60.5 388t183 265 307.5 96q90 0 173-23.5t156-70.5l-57-135q-68 44-134.5 65T657 1340q-127 0-213-71t-130-207-44-332q0-172 37.5-309.5t118.5-217T637 124q58 0 110.5 8.5T845 157v466H629v143zm245 1110q-1-83-32.5-143t-87-92.5T625 1608q-109 0-172.5 67T384 1876h101q5-49 22.5-82.5T556 1743t73-17 72.5 16.5 49 50T773 1876h101z"/><glyph glyph-name="gbreve" unicode="ğ" horiz-adv-x="790" d="M351-492q-157 0-247 80T14-188Q14-75 68-3t139 96q-42 20-68.5 60T112 248q0 56 26.5 102t74.5 88q-64 38-101 122T75 753q0 112 36.5 193.5T217 1073t165 45q30 0 53-3t41-8 32-12h272v-99l-147-18q28-45 41-102.5T687 759q0-169-80-265.5T381 397q-45 0-72 9-27-25-47.5-57T241 270q0-29 13.5-51t39.5-34 64-12h158q123 0 189.5-71T772-114q0-180-108.5-279T351-492zm12 122q87 0 145.5 26.5t88 80.5T626-129q0 65-20.5 100T547 19t-91 13H325q-46 0-83.5-20.5T182-54t-22-120q0-97 54.5-146.5T363-370zm19 881q72 0 111.5 62T533 755q0 126-40.5 188T380 1005q-70 0-110-66.5T230 752q0-115 38-178t114-63zm243 1001q-1-83-32.5-143t-87-92.5T376 1244q-109 0-172.5 67T135 1512h101q5-49 22.5-82.5T307 1379t73-17 72.5 16.5 49 50T524 1512h101z"/><glyph glyph-name="Gdot" unicode="Ġ" horiz-adv-x="1110" d="M629 766h371V51Q911 16 816-2T624-20q-179 0-294.5 98.5t-171 269T103 734q0 219 60.5 388t183 265 307.5 96q90 0 173-23.5t156-70.5l-57-135q-68 44-134.5 65T657 1340q-127 0-213-71t-130-207-44-332q0-172 37.5-309.5t118.5-217T637 124q58 0 110.5 8.5T845 157v466H629v143zm9 1108q46 0 67.5-30t21.5-83q0-52-22.5-82t-66.5-30q-43 0-68 30t-25 82q0 55 23.5 84t69.5 29z"/><glyph glyph-name="gdot" unicode="ġ" horiz-adv-x="790" d="M351-492q-157 0-247 80T14-188Q14-75 68-3t139 96q-42 20-68.5 60T112 248q0 56 26.5 102t74.5 88q-64 38-101 122T75 753q0 112 36.5 193.5T217 1073t165 45q30 0 53-3t41-8 32-12h272v-99l-147-18q28-45 41-102.5T687 759q0-169-80-265.5T381 397q-45 0-72 9-27-25-47.5-57T241 270q0-29 13.5-51t39.5-34 64-12h158q123 0 189.5-71T772-114q0-180-108.5-279T351-492zm12 122q87 0 145.5 26.5t88 80.5T626-129q0 65-20.5 100T547 19t-91 13H325q-46 0-83.5-20.5T182-54t-22-120q0-97 54.5-146.5T363-370zm19 881q72 0 111.5 62T533 755q0 126-40.5 188T380 1005q-70 0-110-66.5T230 752q0-115 38-178t114-63zm0 999q46 0 67.5-30t21.5-83q0-52-22.5-82t-66.5-30q-43 0-68 30t-25 82q0 55 23.5 84t69.5 29z"/><glyph glyph-name="uni0122" unicode="Ģ" horiz-adv-x="1110" d="M629 766h371V51Q911 16 816-2T624-20q-179 0-294.5 98.5t-171 269T103 734q0 219 60.5 388t183 265 307.5 96q90 0 173-23.5t156-70.5l-57-135q-68 44-134.5 65T657 1340q-127 0-213-71t-130-207-44-332q0-172 37.5-309.5t118.5-217T637 124q58 0 110.5 8.5T845 157v466H629v143zm95-891v-20q-14-50-36-105.5t-49-108-55-94.5h-86v23q12 37 26 93t26 113.5 16 98.5h158z"/><glyph glyph-name="uni0123" unicode="ģ" horiz-adv-x="790" d="M525 1569v-23q-15-37-32.5-94.5T462 1337t-16-96H288v21q11 48 33 104t52.5 109.5T437 1569h88zM351-492q-157 0-247 80T14-188Q14-75 68-3t139 96q-42 20-68.5 60T112 248q0 56 26.5 102t74.5 88q-64 38-101 122T75 753q0 112 36.5 193.5T217 1073t165 45q30 0 53-3t41-8 32-12h272v-99l-147-18q28-45 41-102.5T687 759q0-169-80-265.5T381 397q-45 0-72 9-27-25-47.5-57T241 270q0-29 13.5-51t39.5-34 64-12h158q123 0 189.5-71T772-114q0-180-108.5-279T351-492zm12 122q87 0 145.5 26.5t88 80.5T626-129q0 65-20.5 100T547 19t-91 13H325q-46 0-83.5-20.5T182-54t-22-120q0-97 54.5-146.5T363-370zm19 881q72 0 111.5 62T533 755q0 126-40.5 188T380 1005q-70 0-110-66.5T230 752q0-115 38-178t114-63z"/><glyph glyph-name="Hcircumflex" unicode="Ĥ" horiz-adv-x="1081" d="M932 0H773v692H310V0H151v1462h159V837h463v625h159V0zM616 1932q22-46 54.5-101t68-109 66.5-97v-20h-85q-43 41-87 93t-90 107q-46-54-92.5-108.5T367 1605h-86v20q36 48 71 102.5t65.5 107.5 50.5 97h148z"/><glyph glyph-name="hcircumflex" unicode="ĥ" horiz-adv-x="923" d="M288 1556v-452q0-44-2.5-84.5T277 943h11q20 54 55.5 93t82.5 60.5 101 21.5q92 0 151-42.5t87-125T793 746V0H639v716q0 142-34 203t-110 61q-70 0-116-43t-68.5-132.5T288 575V0H134v1556h154zm-3 471q22-46 54.5-101t68-109 66.5-97v-20h-85q-43 41-87 93t-90 107q-46-54-92.5-108.5T36 1700h-86v20q36 48 71 102.5T86.5 1930t50.5 97h148z"/><glyph glyph-name="Hbar" unicode="Ħ" horiz-adv-x="1082" d="M148 0v1089H-4v125h152v248h159v-248h464v248h159v-248h154v-125H930V0H771v690H307V0H148zm162 839h463v250H310V839z"/><glyph glyph-name="hbar" unicode="ħ" horiz-adv-x="925" d="M290 1556v-188h238v-121H290v-172q0-37-3-72.5t-8-72.5h11q20 53 55 92.5t82 61 101 21.5q92 0 151-42t87.5-124.5T795 733V0H641v702q0 141-35 202.5T495 966q-68 0-114.5-41T311 795.5 288 563V0H136v1247H15v121h121v188h154z"/><glyph glyph-name="Itilde" unicode="Ĩ" horiz-adv-x="458" d="M151 0v1462h159V0H151zM-67 1606q5 48 16 92t30.5 77.5 49.5 53 71 19.5q38 0 72-18t66-41.5 62-41.5 59-18q32 0 48.5 33t25.5 88h98q-7-118-52-180t-113-62q-37 0-73 18t-68.5 42-61.5 42-54 18q-28 0-49.5-32T29 1606h-96z"/><glyph glyph-name="itilde" unicode="ĩ" horiz-adv-x="422" d="M288 0H134v1098h154V0zM-89 1242q5 48 16 92t30.5 77.5 49.5 53 71 19.5q38 0 72-18t66-41.5 62-41.5 59-18q32 0 48.5 33t25.5 88h98q-7-118-52-180t-113-62q-37 0-73 18t-68.5 42-61.5 42-54 18q-28 0-49.5-32T7 1242h-96z"/><glyph glyph-name="Imacron" unicode="Ī" horiz-adv-x="458" d="M151 0v1462h159V0H151zm322 1740v-118H-16v118h489z"/><glyph glyph-name="imacron" unicode="ī" horiz-adv-x="422" d="M288 0H134v1098h154V0zm168 1376v-118H-33v118h489z"/><glyph glyph-name="Ibreve" unicode="Ĭ" horiz-adv-x="458" d="M151 0v1462h159V0H151zm325 1876q-1-83-32.5-143t-87-92.5T227 1608q-109 0-172.5 67T-14 1876H87q5-49 22.5-82.5T158 1743t73-17 72.5 16.5 49 50T375 1876h101z"/><glyph glyph-name="ibreve" unicode="ĭ" horiz-adv-x="422" d="M288 0H134v1098h154V0zm165 1512q-1-83-32.5-143t-87-92.5T204 1244q-109 0-172.5 67T-37 1512H64q5-49 22.5-82.5T135 1379t73-17 72.5 16.5 49 50T352 1512h101z"/><glyph glyph-name="Iogonek" unicode="Į" horiz-adv-x="458" d="M151 0v1462h159V0H151zm32-244q0-50 24-76t68-26q23 0 38.5 4t26.5 8v-107q-17-7-41-11.5t-53-4.5q-95 0-143 48T55-270q0 52 19.5 103.5t57 100T221 24l89-24q-70-70-98.5-127T183-244z"/><glyph glyph-name="iogonek" unicode="į" horiz-adv-x="424" d="M289 1098V0H136v1098h153zm-74 412q47 0 68.5-30t21.5-83q0-52-23-82t-67-30q-43 0-68 30t-25 82q0 55 24 84t69 29zM150-244q0-50 24-76t68-26q23 0 38.5 4t26.5 8v-107q-17-7-41-11.5t-53-4.5q-95 0-143 48T22-270q0 52 19.5 103.5t57 100T188 24l89-24q-70-70-98.5-127T150-244z"/><glyph glyph-name="Idotaccent" unicode="İ" horiz-adv-x="458" d="M151 0v1462h159V0H151zm81 1870q46 0 67.5-30t21.5-83q0-52-22.5-82t-66.5-30q-43 0-68 30t-25 82q0 55 23.5 84t69.5 29z"/><glyph glyph-name="dotlessi" unicode="ı" horiz-adv-x="422" d="M288 0H134v1098h154V0z"/><glyph glyph-name="IJ" unicode="Ĳ" horiz-adv-x="909" d="M151 0v1462h159V0H151zm339-391q-36 0-69 5t-62 17v143q25-9 54-15t60-6q47 0 75.5 25.5t42 81T604 6v1456h159V-8q0-139-31-223t-92-122-150-38z"/><glyph glyph-name="ij" unicode="ĳ" horiz-adv-x="847" d="M289 1098V0H136v1098h153zm-74 412q47 0 68.5-30t21.5-83q0-52-23-82t-67-30q-43 0-68 30t-25 82q0 55 24 84t69 29zM495-492q-28 0-52 5t-44 13v137q17-7 35.5-11.5T469-353q49 0 69 42t20 133v1276h154V-178q0-108-25-177.5T613.5-458 495-492zm50 1889q0 55 24 84t69 29q46 0 68-30t22-83q0-52-23-82t-67-30q-43 0-68 30t-25 82z"/><glyph glyph-name="Jcircumflex" unicode="Ĵ" horiz-adv-x="450" d="M32-391q-36 0-69 5t-62 17v143q25-9 54-15t60-6q47 0 75.5 25.5t42 81T146 6v1456h159V-8q0-139-31-223t-92-122-150-38zm266 2321q22-46 54.5-101t68-109 66.5-97v-20h-85q-43 41-87 93t-90 107q-46-54-92.5-108.5T49 1603h-86v20q36 48 71 102.5T99.5 1833t50.5 97h148z"/><glyph glyph-name="jcircumflex" unicode="ĵ" horiz-adv-x="424" d="M72-492q-27 0-53.5 5.5T-24-474v137q17-7 35.5-11.5T46-353q49 0 69 42t20 130v1279h154V-178q0-105-25-175t-73.5-104.5T72-492zm213 2060q22-46 54.5-101t68-109 66.5-97v-20h-85q-43 41-87 93t-90 107q-46-54-92.5-108.5T36 1241h-86v20q36 48 71 102.5T86.5 1471t50.5 97h148z"/><glyph glyph-name="uni0136" unicode="Ķ" horiz-adv-x="900" d="M908 0H730L416 686 310 556V0H151v1462h159V720q12 29 40 81.5T421 930l295 532h173L524 816zM602-125v-20q-14-50-36-105.5t-49-108-55-94.5h-86v23q12 37 26 93t26 113.5 16 98.5h158z"/><glyph glyph-name="uni0137" unicode="ķ" horiz-adv-x="800" d="M288 1556V779q0-58-2-113t-7-111h7q17 34 34 65t36 60l251 418h166L508 676 792 0H627L404 552 288 407V0H134v1556h154zM525-125v-20q-14-50-36-105.5t-49-108-55-94.5h-86v23q12 37 26 93t26 113.5 16 98.5h158z"/><glyph glyph-name="kgreenlandic" unicode="ĸ" horiz-adv-x="800" d="M773 1098 508 675 792 0H627L404 552 288 408V0H134v1098h154V778q0-61-2.5-116T279 556h7q14 28 28.5 55t27.5 51l265 436h166z"/><glyph glyph-name="Lacute" unicode="Ĺ" horiz-adv-x="753" d="M151 0v1462h159V145h408V0H151zm355 1932v-18q-20-33-53-74.5t-72-85-78-82.5-70-67h-98v23q40 55 74 107t62 101.5 51 95.5h184z"/><glyph glyph-name="lacute" unicode="ĺ" horiz-adv-x="420" d="M288 0H134v1556h154V0zm199 2027v-18q-20-33-53-74.5t-72-85-78-82.5-70-67h-98v23q40 55 74 107t62 101.5 51 95.5h184z"/><glyph glyph-name="uni013B" unicode="Ļ" horiz-adv-x="753" d="M151 0v1462h159V145h408V0H151zm381-125v-20q-14-50-36-105.5t-49-108-55-94.5h-86v23q12 37 26 93t26 113.5 16 98.5h158z"/><glyph glyph-name="uni013C" unicode="ļ" horiz-adv-x="420" d="M288 0H134v1556h154V0zm17-125v-20q-14-50-36-105.5t-49-108-55-94.5H79v23q12 37 26 93t26 113.5 16 98.5h158z"/><glyph glyph-name="Lcaron" unicode="Ľ" horiz-adv-x="753" d="M151 0v1462h159V145h408V0H151zm598 1462v-20q-9-43-30-102.5T673 1224t-47-90h-85v23q4 16 11 56t14.5 88.5 13 92.5 6.5 68h163z"/><glyph glyph-name="lcaron" unicode="ľ" horiz-adv-x="421" d="M288 0H134v1556h154V0zm284 1556v-20q-9-43-30-102.5T496 1318t-47-90h-85v23q4 16 11 56t14.5 88.5 13 92.5 6.5 68h163z"/><glyph glyph-name="Ldot" unicode="Ŀ" horiz-adv-x="753" d="M151 0v1462h159V145h408V0H151zm450 919q46 0 67.5-30t21.5-83q0-52-22.5-82T601 694q-43 0-68 30t-25 82q0 55 23.5 84t69.5 29z"/><glyph glyph-name="ldot" unicode="ŀ" horiz-adv-x="540" d="M288 0H134v1556h154V0zm196 938q46 0 67.5-30t21.5-83q0-52-22.5-82T484 713q-43 0-68 30t-25 82q0 55 23.5 84t69.5 29z"/><glyph glyph-name="Lslash" unicode="Ł" horiz-adv-x="768" d="M162 0v503l-98-63-76 104 174 116v802h159V767l230 146 72-105-302-196V145h406V0H162z"/><glyph glyph-name="lslash" unicode="ł" horiz-adv-x="454" d="M150 0v628L33 543l-73 102 190 142v769h153V899l120 88 78-101-198-146V0H150z"/><glyph glyph-name="Nacute" unicode="Ń" horiz-adv-x="1150" d="M1002 0H809L299 1210h-8q4-53 6.5-102.5t3.5-95.5 1-90V0H151v1462h192L854 270h6q-3 59-5.5 111t-3.5 97.5-1 83.5v900h152V0zM840 1932v-18q-20-33-53-74.5t-72-85-78-82.5-70-67h-98v23q40 55 74 107t62 101.5 51 95.5h184z"/><glyph glyph-name="nacute" unicode="ń" horiz-adv-x="923" d="M529 1118q130 0 197-91t67-279V0H639v717q0 133-34.5 199T496 982q-108 0-158-96t-50-308V0H134v1098h123l17-159h10q23 55 59 95t83 62 103 22zm218 450v-18q-20-33-53-74.5t-72-85-78-82.5-70-67h-98v23q40 55 74 107t62 101.5 51 95.5h184z"/><glyph glyph-name="uni0145" unicode="Ņ" horiz-adv-x="1150" d="M1002 0H809L299 1210h-8q4-53 6.5-102.5t3.5-95.5 1-90V0H151v1462h192L854 270h6q-3 59-5.5 111t-3.5 97.5-1 83.5v900h152V0zM670-125v-20q-14-50-36-105.5t-49-108-55-94.5h-86v23q12 37 26 93t26 113.5 16 98.5h158z"/><glyph glyph-name="uni0146" unicode="ņ" horiz-adv-x="923" d="M529 1118q130 0 197-91t67-279V0H639v717q0 133-34.5 199T496 982q-108 0-158-96t-50-308V0H134v1098h123l17-159h10q23 55 59 95t83 62 103 22zm29-1243v-20q-14-50-36-105.5t-49-108-55-94.5h-86v23q12 37 26 93t26 113.5 16 98.5h158z"/><glyph glyph-name="Ncaron" unicode="Ň" horiz-adv-x="1150" d="M1002 0H809L299 1210h-8q4-53 6.5-102.5t3.5-95.5 1-90V0H151v1462h192L854 270h6q-3 59-5.5 111t-3.5 97.5-1 83.5v900h152V0zM500 1605q-22 46-52.5 99.5t-65 107.5-69.5 100v20h86q38-37 84-91.5t91-108.5q51 62 87.5 103.5T750 1932h85v-20q-30-42-65.5-95.5t-68.5-109-55-102.5H500z"/><glyph glyph-name="ncaron" unicode="ň" horiz-adv-x="923" d="M529 1118q130 0 197-91t67-279V0H639v717q0 133-34.5 199T496 982q-108 0-158-96t-50-308V0H134v1098h123l17-159h10q23 55 59 95t83 62 103 22zm-125 123q-22 46-52.5 99.5t-65 107.5-69.5 100v20h86q38-37 84-91.5t91-108.5q51 62 87.5 103.5T654 1568h85v-20q-30-42-65.5-95.5t-68.5-109-55-102.5H404z"/><glyph glyph-name="napostrophe" unicode="ŉ" horiz-adv-x="1048" d="M653 1118q130 0 197-91t67-279V0H763v717q0 133-34.5 199T620 982q-108 0-158-96t-50-308V0H258v1098h123l17-159h10q23 55 59 95t83 62 103 22zm-396 344 15-22q-19-83-42.5-163t-51-158T118 964H0q17 62 31.5 127.5t27 130.5T80 1348t14 114h163z"/><glyph glyph-name="Eng" unicode="Ŋ" horiz-adv-x="1151" d="M734-391q-36 0-68.5 5T605-369v143q24-9 54-15t61-6q45 0 74 25t43 80T851 4L297 1223h-6q4-52 6-101.5t3.5-95.5 1.5-90V0H151v1462h192L854 338h6q-2 56-4.5 106.5T852 540t-1 84v838h152V6q0-133-29.5-221.5t-89-132T734-391z"/><glyph glyph-name="eng" unicode="ŋ" horiz-adv-x="923" d="M576-492q-25 0-48.5 5T481-474v137q19-7 37-11.5t34-4.5q44 0 65.5 43.5T639-176v893q0 130-36.5 194.5T490 976q-67 0-112-39t-67.5-126.5T288 579V0H134v1098h123l18-159h7q23 54 59 94.5t84 62.5 104 22q97 0 154.5-48T767 933.5 793 723v-898q0-98-23.5-169.5T698-454t-122-38z"/><glyph glyph-name="Omacron" unicode="Ō" horiz-adv-x="1117" d="M1016 733q0-157-25-293.5t-78.5-240T772 38 561-20q-126 0-214 59.5T205.5 203t-78 241T103 735q0 250 51.5 416T308 1400t253 83q164 0 264-99.5T970.5 1114t45.5-381zm-748 0q0-199 33.5-334.5T400 194t159-69q96 0 160 67.5t96.5 203T848 733q0 301-72 453t-215 152q-98 0-163-68.5t-97.5-203T268 733zm536 1007v-118H315v118h489z"/><glyph glyph-name="omacron" unicode="ō" horiz-adv-x="902" d="M815 550q0-130-22-235t-67-180T612 20 449-20q-90 0-158 40T178 134.5t-68 180T87 550q0 182 39 308.5t120 193 206 66.5q117 0 198-64.5t123-191T815 550zm-571 0q0-143 22-240t68.5-146T453 115q71 0 116.5 48T637 307.5 659 550q0 143-22 239.5t-67.5 145T452 983q-110 0-159-108.5T244 550zm452 826v-118H207v118h489z"/><glyph glyph-name="Obreve" unicode="Ŏ" horiz-adv-x="1117" d="M1016 733q0-157-25-293.5t-78.5-240T772 38 561-20q-126 0-214 59.5T205.5 203t-78 241T103 735q0 250 51.5 416T308 1400t253 83q164 0 264-99.5T970.5 1114t45.5-381zm-748 0q0-199 33.5-334.5T400 194t159-69q96 0 160 67.5t96.5 203T848 733q0 301-72 453t-215 152q-98 0-163-68.5t-97.5-203T268 733zm534 1143q-1-83-32.5-143t-87-92.5T553 1608q-109 0-172.5 67T312 1876h101q5-49 22.5-82.5T484 1743t73-17 72.5 16.5 49 50T701 1876h101z"/><glyph glyph-name="obreve" unicode="ŏ" horiz-adv-x="902" d="M815 550q0-130-22-235t-67-180T612 20 449-20q-90 0-158 40T178 134.5t-68 180T87 550q0 182 39 308.5t120 193 206 66.5q117 0 198-64.5t123-191T815 550zm-571 0q0-143 22-240t68.5-146T453 115q71 0 116.5 48T637 307.5 659 550q0 143-22 239.5t-67.5 145T452 983q-110 0-159-108.5T244 550zm450 962q-1-83-32.5-143t-87-92.5T445 1244q-109 0-172.5 67T204 1512h101q5-49 22.5-82.5T376 1379t73-17 72.5 16.5 49 50T593 1512h101z"/><glyph glyph-name="Ohungarumlaut" unicode="Ő" horiz-adv-x="1117" d="M1016 733q0-157-25-293.5t-78.5-240T772 38 561-20q-126 0-214 59.5T205.5 203t-78 241T103 735q0 250 51.5 416T308 1400t253 83q164 0 264-99.5T970.5 1114t45.5-381zm-748 0q0-199 33.5-334.5T400 194t159-69q96 0 160 67.5t96.5 203T848 733q0 301-72 453t-215 152q-98 0-163-68.5t-97.5-203T268 733zm684 1200v-19q-16-32-46-74t-65.5-86-71.5-83-65-66h-79v22q31 45 64.5 104.5t61.5 115 41 86.5h160zm-288 0v-19q-17-34-44.5-74.5t-62-82.5-71.5-81-73-71h-75v22q31 48 63.5 106.5t60.5 112 43 87.5h159z"/><glyph glyph-name="ohungarumlaut" unicode="ő" horiz-adv-x="902" d="M815 550q0-130-22-235t-67-180T612 20 449-20q-90 0-158 40T178 134.5t-68 180T87 550q0 182 39 308.5t120 193 206 66.5q117 0 198-64.5t123-191T815 550zm-571 0q0-143 22-240t68.5-146T453 115q71 0 116.5 48T637 307.5 659 550q0 143-22 239.5t-67.5 145T452 983q-110 0-159-108.5T244 550zm601 1019v-19q-16-32-46-74t-65.5-86-71.5-83-65-66h-79v22q31 45 64.5 104.5t61.5 115 41 86.5h160zm-288 0v-19q-17-34-44.5-74.5t-62-82.5-71.5-81-73-71h-75v22q31 48 63.5 106.5t60.5 112 43 87.5h159z"/><glyph glyph-name="OE" unicode="Œ" horiz-adv-x="1314" d="M598 1472q35 0 65.5-3t58.5-7h499v-142H800V835h396V692H800V145h421V0H723l-62-6-68-3Q427-9 318 78T156 331t-53 404q0 234 53.5 398.5t163 251.5 278.5 87zm-1-144q-97-2-160.5-45.5t-100-121.5T285 974.5 270 733q0-181 30-314.5T402.5 212 602 136q12 0 22 2t17 3v1179q-8 5-19 6.5t-25 1.5z"/><glyph glyph-name="oe" unicode="œ" horiz-adv-x="1420" d="M1010 1116q114 0 185-65.5T1299.5 875t33.5-244V522H809q1-208 63.5-310.5T1059 109q59 0 116 17.5t118 56.5V48q-55-34-116-51t-132-17q-112 0-188 54T735 191Q695 89 624 34.5T449-20q-117 0-198 68T128.5 244 87 550q0 185 40.5 311.5t122 191.5 204.5 65q99 0 168.5-53T733 909q28 68 67 114t91.5 69.5T1010 1116zM454 983q-111 0-160.5-108.5T244 550q0-144 23-241.5T336.5 162 452 113q72 0 117.5 48T637 306t22 244q0 144-22 240t-67 144.5T454 983zm553 5q-87 0-137.5-84T811 644h380q0 96-19.5 174t-60 124-104.5 46z"/><glyph glyph-name="Racute" unicode="Ŕ" horiz-adv-x="931" d="M401 1462q148 0 244-44.5t143-135 47-228.5q0-98-24-175t-74-132-130-90L904 0H727L463 617H310V0H151v1462h250zm1-144h-92V751h114q119 0 183.5 73.5T672 1046q0 144-65 208t-205 64zm341 614v-18q-20-33-53-74.5t-72-85-78-82.5-70-67h-98v23q40 55 74 107t62 101.5 51 95.5h184z"/><glyph glyph-name="racute" unicode="ŕ" horiz-adv-x="614" d="M501 1117q23 0 46-3.5t48-11.5l-24-158q-18 8-38 11t-43 3q-45 0-82.5-29.5T343 846t-41.5-123T288 572V0H134v1098h120l21-195h10q23 63 54 111t71.5 75.5T501 1117zm123 451v-18q-20-33-53-74.5t-72-85-78-82.5-70-67h-98v23q40 55 74 107t62 101.5 51 95.5h184z"/><glyph glyph-name="uni0156" unicode="Ŗ" horiz-adv-x="931" d="M401 1462q148 0 244-44.5t143-135 47-228.5q0-98-24-175t-74-132-130-90L904 0H727L463 617H310V0H151v1462h250zm1-144h-92V751h114q119 0 183.5 73.5T672 1046q0 144-65 208t-205 64zM584-125v-20q-14-50-36-105.5t-49-108-55-94.5h-86v23q12 37 26 93t26 113.5 16 98.5h158z"/><glyph glyph-name="uni0157" unicode="ŗ" horiz-adv-x="614" d="M501 1117q23 0 46-3.5t48-11.5l-24-158q-18 8-38 11t-43 3q-45 0-82.5-29.5T343 846t-41.5-123T288 572V0H134v1098h120l21-195h10q23 63 54 111t71.5 75.5T501 1117zM313-125v-20q-14-50-36-105.5t-49-108-55-94.5H87v23q12 37 26 93t26 113.5 16 98.5h158z"/><glyph glyph-name="Rcaron" unicode="Ř" horiz-adv-x="931" d="M401 1462q148 0 244-44.5t143-135 47-228.5q0-98-24-175t-74-132-130-90L904 0H727L463 617H310V0H151v1462h250zm1-144h-92V751h114q119 0 183.5 73.5T672 1046q0 144-65 208t-205 64zm-6 287q-22 46-52.5 99.5t-65 107.5-69.5 100v20h86q38-37 84-91.5t91-108.5q51 62 87.5 103.5T646 1932h85v-20q-30-42-65.5-95.5t-68.5-109-55-102.5H396z"/><glyph glyph-name="rcaron" unicode="ř" horiz-adv-x="614" d="M501 1117q23 0 46-3.5t48-11.5l-24-158q-18 8-38 11t-43 3q-45 0-82.5-29.5T343 846t-41.5-123T288 572V0H134v1098h120l21-195h10q23 63 54 111t71.5 75.5T501 1117zm-220 124q-22 46-52.5 99.5t-65 107.5T94 1548v20h86q38-37 84-91.5t91-108.5q51 62 87.5 103.5T531 1568h85v-20q-30-42-65.5-95.5t-68.5-109-55-102.5H281z"/><glyph glyph-name="Sacute" unicode="Ś" horiz-adv-x="841" d="M762 399q0-124-47.5-218.5T581.5 33 380-20q-57 0-110 6.5T169.5 7 79 42v165q68-38 147.5-58T374 129q73 0 123 34.5t76.5 92.5T600 384q0 74-22 124.5T506 600t-135 85q-64 35-116 72t-89 83.5T109 950t-20 150q-2 115 45.5 201.5t132 134.5 193.5 47q83 0 158.5-20.5T749 1413l-52-146q-61 33-120.5 49.5T463 1333q-67 0-114.5-29t-73-79.5T250 1107q0-77 22.5-127t73-89T479 807q95-50 158-107.5T731 569t31-170zm-55 1533v-18q-20-33-53-74.5t-72-85-78-82.5-70-67h-98v23q40 55 74 107t62 101.5 51 95.5h184z"/><glyph glyph-name="sacute" unicode="ś" horiz-adv-x="688" d="M622 290q0-99-36-168.5T481.5 16 315-20q-76 0-139 18T69 41v160q44-36 109-59.5T310 118q77 0 118.5 44T470 285q0 47-17 81.5t-54.5 66T300 499q-68 42-120.5 87T98 689.5 69 832q0 128 83.5 207t220.5 79q69 0 130.5-17.5T620 1048l-58-124q-42 29-89.5 46T375 987q-73 0-115.5-41T217 836q0-46 17-79t56-64 103-70q68-43 119.5-87.5T593 433t29-143zm9 1278v-18q-20-33-53-74.5t-72-85-78-82.5-70-67h-98v23q40 55 74 107t62 101.5 51 95.5h184z"/><glyph glyph-name="Scircumflex" unicode="Ŝ" horiz-adv-x="841" d="M762 399q0-124-47.5-218.5T581.5 33 380-20q-57 0-110 6.5T169.5 7 79 42v165q68-38 147.5-58T374 129q73 0 123 34.5t76.5 92.5T600 384q0 74-22 124.5T506 600t-135 85q-64 35-116 72t-89 83.5T109 950t-20 150q-2 115 45.5 201.5t132 134.5 193.5 47q83 0 158.5-20.5T749 1413l-52-146q-61 33-120.5 49.5T463 1333q-67 0-114.5-29t-73-79.5T250 1107q0-77 22.5-127t73-89T479 807q95-50 158-107.5T731 569t31-170zM512 1932q22-46 54.5-101t68-109 66.5-97v-20h-85q-43 41-87 93t-90 107q-46-54-92.5-108.5T263 1605h-86v20q36 48 71 102.5t65.5 107.5 50.5 97h148z"/><glyph glyph-name="scircumflex" unicode="ŝ" horiz-adv-x="688" d="M622 290q0-99-36-168.5T481.5 16 315-20q-76 0-139 18T69 41v160q44-36 109-59.5T310 118q77 0 118.5 44T470 285q0 47-17 81.5t-54.5 66T300 499q-68 42-120.5 87T98 689.5 69 832q0 128 83.5 207t220.5 79q69 0 130.5-17.5T620 1048l-58-124q-42 29-89.5 46T375 987q-73 0-115.5-41T217 836q0-46 17-79t56-64 103-70q68-43 119.5-87.5T593 433t29-143zM435 1568q22-46 54.5-101t68-109 66.5-97v-20h-85q-43 41-87 93t-90 107q-46-54-92.5-108.5T186 1241h-86v20q36 48 71 102.5t65.5 107.5 50.5 97h148z"/><glyph glyph-name="Scedilla" unicode="Ş" horiz-adv-x="841" d="M762 399q0-124-47.5-218.5T581.5 33 380-20q-57 0-110 6.5T169.5 7 79 42v165q68-38 147.5-58T374 129q73 0 123 34.5t76.5 92.5T600 384q0 74-22 124.5T506 600t-135 85q-64 35-116 72t-89 83.5T109 950t-20 150q-2 115 45.5 201.5t132 134.5 193.5 47q83 0 158.5-20.5T749 1413l-52-146q-61 33-120.5 49.5T463 1333q-67 0-114.5-29t-73-79.5T250 1107q0-77 22.5-127t73-89T479 807q95-50 158-107.5T731 569t31-170zM576-283q0-101-63.5-155T336-492q-35 0-64 3.5t-49 9.5v103q20-6 43.5-9t46.5-3q67 0 100.5 29t33.5 76q0 56-43 83.5T287-162L357 0h95l-46-105q55-11 93-35t57.5-60 19.5-83z"/><glyph glyph-name="scedilla" unicode="ş" horiz-adv-x="688" d="M622 290q0-99-36-168.5T481.5 16 315-20q-76 0-139 18T69 41v160q44-36 109-59.5T310 118q77 0 118.5 44T470 285q0 47-17 81.5t-54.5 66T300 499q-68 42-120.5 87T98 689.5 69 832q0 128 83.5 207t220.5 79q69 0 130.5-17.5T620 1048l-58-124q-42 29-89.5 46T375 987q-73 0-115.5-41T217 836q0-46 17-79t56-64 103-70q68-43 119.5-87.5T593 433t29-143zM499-283q0-101-63.5-155T259-492q-35 0-64 3.5t-49 9.5v103q20-6 43.5-9t46.5-3q67 0 100.5 29t33.5 76q0 56-43 83.5T210-162L280 0h95l-46-105q55-11 93-35t57.5-60 19.5-83z"/><glyph glyph-name="Scaron" unicode="Š" horiz-adv-x="841" d="M762 399q0-124-47.5-218.5T581.5 33 380-20q-57 0-110 6.5T169.5 7 79 42v165q68-38 147.5-58T374 129q73 0 123 34.5t76.5 92.5T600 384q0 74-22 124.5T506 600t-135 85q-64 35-116 72t-89 83.5T109 950t-20 150q-2 115 45.5 201.5t132 134.5 193.5 47q83 0 158.5-20.5T749 1413l-52-146q-61 33-120.5 49.5T463 1333q-67 0-114.5-29t-73-79.5T250 1107q0-77 22.5-127t73-89T479 807q95-50 158-107.5T731 569t31-170zM367 1605q-22 46-52.5 99.5t-65 107.5-69.5 100v20h86q38-37 84-91.5t91-108.5q51 62 87.5 103.5T617 1932h85v-20q-30-42-65.5-95.5t-68.5-109-55-102.5H367z"/><glyph glyph-name="scaron" unicode="š" horiz-adv-x="688" d="M622 290q0-99-36-168.5T481.5 16 315-20q-76 0-139 18T69 41v160q44-36 109-59.5T310 118q77 0 118.5 44T470 285q0 47-17 81.5t-54.5 66T300 499q-68 42-120.5 87T98 689.5 69 832q0 128 83.5 207t220.5 79q69 0 130.5-17.5T620 1048l-58-124q-42 29-89.5 46T375 987q-73 0-115.5-41T217 836q0-46 17-79t56-64 103-70q68-43 119.5-87.5T593 433t29-143zm-333 951q-22 46-52.5 99.5t-65 107.5-69.5 100v20h86q38-37 84-91.5t91-108.5q51 62 87.5 103.5T539 1568h85v-20q-30-42-65.5-95.5t-68.5-109-55-102.5H289z"/><glyph glyph-name="uni0162" unicode="Ţ" horiz-adv-x="770" d="M463 0H304v1318H19v144h730v-144H463V0zm90-283q0-101-63.5-155T313-492q-35 0-64 3.5t-49 9.5v103q20-6 43.5-9t46.5-3q67 0 100.5 29t33.5 76q0 56-43 83.5T264-162L334 0h95l-46-105q55-11 93-35t57.5-60 19.5-83z"/><glyph glyph-name="uni0163" unicode="ţ" horiz-adv-x="519" d="M392 116q25 0 50 5.5t48 15.5V11q-31-14-67-22.5T343-20q-71 0-116.5 32t-67 95.5T138 267v702H36v84l109 41 41 253h106v-249h186V969H292V285q0-85 20.5-127t79.5-42zm101-399q0-101-63.5-155T253-492q-35 0-64 3.5t-49 9.5v103q20-6 43.5-9t46.5-3q67 0 100.5 29t33.5 76q0 56-43 83.5T204-162L274 0h95l-46-105q55-11 93-35t57.5-60 19.5-83z"/><glyph glyph-name="Tcaron" unicode="Ť" horiz-adv-x="770" d="M463 0H304v1318H19v144h730v-144H463V0zM312 1605q-22 46-52.5 99.5t-65 107.5-69.5 100v20h86q38-37 84-91.5t91-108.5q51 62 87.5 103.5T562 1932h85v-20q-30-42-65.5-95.5t-68.5-109-55-102.5H312z"/><glyph glyph-name="tcaron" unicode="ť" horiz-adv-x="519" d="M392 116q25 0 50 5.5t48 15.5V11q-31-14-67-22.5T343-20q-71 0-116.5 32t-67 95.5T138 267v702H36v84l109 41 41 253h106v-249h186V969H292V285q0-85 20.5-127t79.5-42zm324 1440v-20q-9-43-30-102.5T640 1318t-47-90h-85v23q4 16 11 56t14.5 88.5 13 92.5 6.5 68h163z"/><glyph glyph-name="Tbar" unicode="Ŧ" horiz-adv-x="770" d="M304 0v674H92v130h212v513H19v145h730v-145H463V804h213V674H463V0H304z"/><glyph glyph-name="tbar" unicode="ŧ" horiz-adv-x="519" d="M38 562v118h433V562H38zm354-446q25 0 50 5.5t48 15.5V11q-31-14-67-22.5T343-20q-71 0-116.5 32t-67 95.5T138 267v702H36v84l109 41 41 253h106v-249h186V969H292V285q0-85 20.5-127t79.5-42z"/><glyph glyph-name="Utilde" unicode="Ũ" horiz-adv-x="1061" d="M923 1462V457q0-167-45-272.5t-131.5-155T533-20Q340-20 239 96T138 456v1006h159V455q0-176 61.5-253T533 125q75 0 126 33t77 106 26 193v1005h161zm-691 144q5 48 16 92t30.5 77.5 49.5 53 71 19.5q38 0 72-18t66-41.5 62-41.5 59-18q32 0 48.5 33t25.5 88h98q-7-118-52-180t-113-62q-37 0-73 18t-68.5 42-61.5 42-54 18q-28 0-49.5-32t-30.5-90h-96z"/><glyph glyph-name="utilde" unicode="ũ" horiz-adv-x="923" d="M789 1098V0H666l-17 156h-11q-22-54-57.5-93.5T499 1.5 396-20q-96 0-154.5 48t-85 137T130 377v721h154V406q0-148 34.5-218T424 118q77 0 123 42.5t67 129T635 509v589h154zm-625 144q5 48 16 92t30.5 77.5 49.5 53 71 19.5q38 0 72-18t66-41.5 62-41.5 59-18q32 0 48.5 33t25.5 88h98q-7-118-52-180t-113-62q-37 0-73 18t-68.5 42-61.5 42-54 18q-28 0-49.5-32t-30.5-90h-96z"/><glyph glyph-name="Umacron" unicode="Ū" horiz-adv-x="1061" d="M923 1462V457q0-167-45-272.5t-131.5-155T533-20Q340-20 239 96T138 456v1006h159V455q0-176 61.5-253T533 125q75 0 126 33t77 106 26 193v1005h161zm-147 278v-118H287v118h489z"/><glyph glyph-name="umacron" unicode="ū" horiz-adv-x="923" d="M789 1098V0H666l-17 156h-11q-22-54-57.5-93.5T499 1.5 396-20q-96 0-154.5 48t-85 137T130 377v721h154V406q0-148 34.5-218T424 118q77 0 123 42.5t67 129T635 509v589h154zm-80 278v-118H220v118h489z"/><glyph glyph-name="Ubreve" unicode="Ŭ" horiz-adv-x="1061" d="M923 1462V457q0-167-45-272.5t-131.5-155T533-20Q340-20 239 96T138 456v1006h159V455q0-176 61.5-253T533 125q75 0 126 33t77 106 26 193v1005h161zm-149 414q-1-83-32.5-143t-87-92.5T525 1608q-109 0-172.5 67T284 1876h101q5-49 22.5-82.5T456 1743t73-17 72.5 16.5 49 50T673 1876h101z"/><glyph glyph-name="ubreve" unicode="ŭ" horiz-adv-x="923" d="M789 1098V0H666l-17 156h-11q-22-54-57.5-93.5T499 1.5 396-20q-96 0-154.5 48t-85 137T130 377v721h154V406q0-148 34.5-218T424 118q77 0 123 42.5t67 129T635 509v589h154zm-83 414q-1-83-32.5-143t-87-92.5T457 1244q-109 0-172.5 67T216 1512h101q5-49 22.5-82.5T388 1379t73-17 72.5 16.5 49 50T605 1512h101z"/><glyph glyph-name="Uring" unicode="Ů" horiz-adv-x="1061" d="M923 1462V457q0-167-45-272.5t-131.5-155T533-20Q340-20 239 96T138 456v1006h159V455q0-176 61.5-253T533 125q75 0 126 33t77 106 26 193v1005h161zm-392 151q-97 0-154 55.5T320 1815q0 92 57 147.5t154 55.5q92 0 151.5-54.5T742 1818q0-92-57.5-148.5T531 1613zm2 95q49 0 80 29t31 77q0 50-29 81t-82 31q-51 0-82-31t-31-80q0-48 28-77.5t85-29.5z"/><glyph glyph-name="uring" unicode="ů" horiz-adv-x="923" d="M789 1098V0H666l-17 156h-11q-22-54-57.5-93.5T499 1.5 396-20q-96 0-154.5 48t-85 137T130 377v721h154V406q0-148 34.5-218T424 118q77 0 123 42.5t67 129T635 509v589h154zm-326 151q-97 0-154 55.5T252 1451q0 92 57 147.5t154 55.5q92 0 151.5-54.5T674 1454q0-92-57.5-148.5T463 1249zm2 95q49 0 80 29t31 77q0 50-29 81t-82 31q-51 0-82-31t-31-80q0-48 28-77.5t85-29.5z"/><glyph glyph-name="Uhungarumlaut" unicode="Ű" horiz-adv-x="1061" d="M923 1462V457q0-167-45-272.5t-131.5-155T533-20Q340-20 239 96T138 456v1006h159V455q0-176 61.5-253T533 125q75 0 126 33t77 106 26 193v1005h161zm-1 471v-19q-16-32-46-74t-65.5-86-71.5-83-65-66h-79v22q31 45 64.5 104.5t61.5 115 41 86.5h160zm-288 0v-19q-17-34-44.5-74.5t-62-82.5-71.5-81-73-71h-75v22q31 48 63.5 106.5t60.5 112 43 87.5h159z"/><glyph glyph-name="uhungarumlaut" unicode="ű" horiz-adv-x="923" d="M789 1098V0H666l-17 156h-11q-22-54-57.5-93.5T499 1.5 396-20q-96 0-154.5 48t-85 137T130 377v721h154V406q0-148 34.5-218T424 118q77 0 123 42.5t67 129T635 509v589h154zm65 471v-19q-16-32-46-74t-65.5-86-71.5-83-65-66h-79v22q31 45 64.5 104.5t61.5 115 41 86.5h160zm-288 0v-19q-17-34-44.5-74.5t-62-82.5-71.5-81-73-71h-75v22q31 48 63.5 106.5t60.5 112 43 87.5h159z"/><glyph glyph-name="Uogonek" unicode="Ų" horiz-adv-x="1061" d="M610-247q0-49 24-73t68-24q20 0 39 4t30 8v-109q-19-9-46-12.5t-54-3.5q-95 0-142.5 48T481-270q0 51 20.5 100T557-77t78 80l168 76Q727 2 685-55.5t-58.5-103T610-247zm313 1709V457q0-167-45-272.5t-131.5-155T533-20Q340-20 239 96T138 456v1006h159V455q0-176 61.5-253T533 125q75 0 126 33t77 106 26 193v1005h161z"/><glyph glyph-name="uogonek" unicode="ų" horiz-adv-x="923" d="M789 1098V0H666l-17 156h-11q-22-54-57.5-93.5T499 1.5 396-20q-96 0-154.5 48t-85 137T130 377v721h154V406q0-148 34.5-218T424 118q77 0 123 42.5t67 129T635 509v589h154zM645-244q0-50 24-76t68-26q23 0 38.5 4t26.5 8v-107q-17-7-41-11.5t-53-4.5q-95 0-143 48t-48 139q0 52 19.5 103.5t57 100T683 24l89-24q-70-70-98.5-127T645-244z"/><glyph glyph-name="Wcircumflex" unicode="Ŵ" horiz-adv-x="1457" d="M1449 1462 1148 0H958L767 956q-3 19-7.5 46t-9 61.5-10.5 77-12 93.5q-4-34-8-68.5t-9-69.5-10.5-69.5T688 958L500 0H312L8 1462h161l184-925q10-54 19-104t16.5-95.5 13-84T410 184q6 43 13 88.5t14.5 91 15 88.5 14.5 81l187 929h150l184-927q8-39 15.5-80t14-84 13.5-90 13-98q8 65 17.5 126.5t19.5 119 20 108.5l187 925h161zm-647 470q22-46 54.5-101t68-109 66.5-97v-20h-85q-43 41-87 93t-90 107q-46-54-92.5-108.5T553 1605h-86v20q36 48 71 102.5t65.5 107.5 50.5 97h148z"/><glyph glyph-name="wcircumflex" unicode="ŵ" horiz-adv-x="1218" d="M781 0 649 681q-5 28-10 58t-9.5 60-8.5 59.5-8 57.5h-5q-4-29-8.5-59.5t-9-60.5-9.5-59-10-56L431 0H255L18 1098h154l117-572q10-54 20-110.5t19-113T345 190h6l10.5 73.5 12 80 14.5 86 18 90.5 119 578h171l118-581q9-38 17.5-88T849 319t19-129h6q3 30 8 65t12 76.5 16 88.5l140 678h150L958 0H781zM680 1568q22-46 54.5-101t68-109 66.5-97v-20h-85q-43 41-87 93t-90 107q-46-54-92.5-108.5T431 1241h-86v20q36 48 71 102.5t65.5 107.5 50.5 97h148z"/><glyph glyph-name="Ycircumflex" unicode="Ŷ" horiz-adv-x="786" d="m394 760 225 702h167L472 569V0H313v565L0 1462h166zm70 1172q22-46 54.5-101t68-109 66.5-97v-20h-85q-43 41-87 93t-90 107q-46-54-92.5-108.5T215 1605h-86v20q36 48 71 102.5t65.5 107.5 50.5 97h148z"/><glyph glyph-name="ycircumflex" unicode="ŷ" horiz-adv-x="746" d="M12 1098h159l155-642q9-42 17.5-82t16-79.5T372 215h8q8 58 20 117.5T428 457l151 641h158L411-176q-29-110-68-180t-91.5-103T127-492q-24 0-48 5t-51 12v137q19-7 39.5-11t39.5-4q38 0 65 19.5t48 64.5 41 123L300 8zm432 470q22-46 54.5-101t68-109 66.5-97v-20h-85q-43 41-87 93t-90 107q-46-54-92.5-108.5T195 1241h-86v20q36 48 71 102.5t65.5 107.5 50.5 97h148z"/><glyph glyph-name="Ydieresis" unicode="Ÿ" horiz-adv-x="786" d="m394 760 225 702h167L472 569V0H313v565L0 1462h166zm-252 971q0 50 24 74t60 24q35 0 58.5-24.5T308 1731q0-51-23.5-76.5T226 1629q-36 0-60 25.5t-24 76.5zm328 0q0 50 24.5 74t59.5 24q36 0 60.5-24.5T639 1731q0-51-24.5-76.5T554 1629q-37 0-60.5 25.5T470 1731z"/><glyph glyph-name="Zacute" unicode="Ź" horiz-adv-x="731" d="M690 0H53v124l453 1194H63v144h614v-126L223 145h467V0zm-55 1932v-18q-20-33-53-74.5t-72-85-78-82.5-70-67h-98v23q40 55 74 107t62 101.5 51 95.5h184z"/><glyph glyph-name="zacute" unicode="ź" horiz-adv-x="611" d="M567 0H52v106l333 860H74v132h479V985L223 131h344V0zm21 1568v-18q-20-33-53-74.5t-72-85-78-82.5-70-67h-98v23q40 55 74 107t62 101.5 51 95.5h184z"/><glyph glyph-name="Zdotaccent" unicode="Ż" horiz-adv-x="731" d="M690 0H53v124l453 1194H63v144h614v-126L223 145h467V0zM374 1872q46 0 67.5-30t21.5-83q0-52-22.5-82t-66.5-30q-43 0-68 30t-25 82q0 55 23.5 84t69.5 29z"/><glyph glyph-name="zdotaccent" unicode="ż" horiz-adv-x="611" d="M567 0H52v106l333 860H74v132h479V985L223 131h344V0zM324 1510q46 0 67.5-30t21.5-83q0-52-22.5-82t-66.5-30q-43 0-68 30t-25 82q0 55 23.5 84t69.5 29z"/><glyph glyph-name="Zcaron" unicode="Ž" horiz-adv-x="731" d="M690 0H53v124l453 1194H63v144h614v-126L223 145h467V0zM293 1605q-22 46-52.5 99.5t-65 107.5-69.5 100v20h86q38-37 84-91.5t91-108.5q51 62 87.5 103.5T543 1932h85v-20q-30-42-65.5-95.5t-68.5-109-55-102.5H293z"/><glyph glyph-name="zcaron" unicode="ž" horiz-adv-x="611" d="M567 0H52v106l333 860H74v132h479V985L223 131h344V0zM245 1241q-22 46-52.5 99.5t-65 107.5T58 1548v20h86q38-37 84-91.5t91-108.5q51 62 87.5 103.5T495 1568h85v-20q-30-42-65.5-95.5t-68.5-109-55-102.5H245z"/><glyph glyph-name="longs" unicode="ſ" horiz-adv-x="452" d="M410 1432q-65 0-88-56.5T297 1178V0H143v1172q0 127 22.5 215t76.5 134 148 46q41 0 78-7.5t77-23.5l-39-124q-25 9-50 14.5t-46 5.5z"/><glyph glyph-name="florin" unicode="ƒ" horiz-adv-x="830" d="M572 1483q44 0 87-9.5t92-32.5l-44-123q-30 15-57.5 22.5T596 1348q-66 0-91.5-56T479 1106V957h190V827H479v-931q0-125-23.5-212t-80-131.5T219-492q-40 0-73.5 5T80-475v137q33-9 62.5-13.5T197-356q70 0 99.5 54T326-136v963H176v84l150 51v147q0 128 25 211t79.5 123 141.5 40z"/><glyph glyph-name="Ohorn" unicode="Ơ" horiz-adv-x="1118" d="M1016 733q0-157-25-293.5t-78.5-240T772 38 561-20q-126 0-214 59.5T205.5 203t-78 241T103 735q0 250 51.5 416T308 1400t253 83q116 0 202.5-52.5T907 1272q47 25 71 65t33.5 95.5T1022 1556h140l15-24q-12-157-66-246t-152-128q29-85 43-191.5t14-233.5zm-748 0q0-199 33.5-334.5T400 194t159-69q96 0 160 67.5t96.5 203T848 733q0 301-72 453t-215 152q-98 0-163-68.5t-97.5-203T268 733z"/><glyph glyph-name="ohorn" unicode="ơ" horiz-adv-x="939" d="M815 550q0-183-42.5-310.5T648.5 46 449-20q-115 0-196 66.5t-123.5 194T87 550q0 281 93 424.5T452 1118q85 0 152.5-37.5T718 969q43 17 67.5 57t36 99.5T834 1261h138l16-25q-8-109-34.5-183.5T881 932t-112-70q24-64 35-141.5T815 550zm-571 0q0-145 23.5-242t70-146T453 113q71 0 116.5 48.5T637 307t22 243q0 143-22 239.5t-67.5 145T452 983q-110 0-159-108.5T244 550z"/><glyph glyph-name="Uhorn" unicode="Ư" horiz-adv-x="1169" d="M923 1462v-204q60 11 92 51.5t44 104 12 142.5h140l16-24q-8-94-30.5-164t-60-118-90.5-74.5-123-34.5V496q0-174-45-288.5t-131.5-171T533-20q-193 0-294 130.5T138 494v968h159V491q0-185 61.5-275.5T533 125q75 0 126 39.5t77 121T762 493v969h161z"/><glyph glyph-name="uhorn" unicode="ư" horiz-adv-x="1038" d="m1074 1261 12-27q-6-93-27-161.5t-57.5-115-89-74T789 846V0H666l-17 156h-12q-22-54-57-93.5t-81-61T396-20q-96 0-154.5 48.5t-85 137.5T130 377v721h154V406q0-148 34.5-218T424 118q109 0 160 93t51 309v578h154V963q58 12 88.5 52t42.5 103.5 12 142.5h142z"/><glyph glyph-name="uni01EA" unicode="Ǫ" horiz-adv-x="1117" d="M1016 733q0-157-25-293.5t-78.5-240T772 38 561-20q-126 0-214 59.5T205.5 203t-78 241T103 735q0 250 51.5 416T308 1400t253 83q164 0 264-99.5T970.5 1114t45.5-381zm-748 0q0-199 33.5-334.5T400 194t159-69q96 0 160 67.5t96.5 203T848 733q0 301-72 453t-215 152q-98 0-163-68.5t-97.5-203T268 733zm260-977q0-50 24-76t68-26q23 0 38.5 4t26.5 8v-107q-17-7-41-11.5t-53-4.5q-95 0-143 48t-48 139q0 52 19.5 103.5t57 100T566 24l89-24q-70-70-98.5-127T528-244z"/><glyph glyph-name="uni01EB" unicode="ǫ" horiz-adv-x="902" d="M815 550q0-130-22-235t-67-180T612 20 449-20q-90 0-158 40T178 134.5t-68 180T87 550q0 182 39 308.5t120 193 206 66.5q117 0 198-64.5t123-191T815 550zm-571 0q0-143 22-240t68.5-146T453 115q71 0 116.5 48T637 307.5 659 550q0 143-22 239.5t-67.5 145T452 983q-110 0-159-108.5T244 550zm178-794q0-50 24-76t68-26q23 0 38.5 4t26.5 8v-107q-17-7-41-11.5t-53-4.5q-95 0-143 48t-48 139q0 52 19.5 103.5t57 100T460 24l89-24q-70-70-98.5-127T422-244z"/><glyph glyph-name="uni01EC" unicode="Ǭ" horiz-adv-x="1117" d="M1016 733q0-157-25-293.5t-78.5-240T772 38 561-20q-126 0-214 59.5T205.5 203t-78 241T103 735q0 250 51.5 416T308 1400t253 83q164 0 264-99.5T970.5 1114t45.5-381zm-748 0q0-199 33.5-334.5T400 194t159-69q96 0 160 67.5t96.5 203T848 733q0 301-72 453t-215 152q-98 0-163-68.5t-97.5-203T268 733zm536 1008v-118H315v118h489zM527-244q0-50 24-76t68-26q23 0 38.5 4t26.5 8v-107q-17-7-41-11.5t-53-4.5q-95 0-143 48t-48 139q0 52 19.5 103.5t57 100T565 24l89-24q-70-70-98.5-127T527-244z"/><glyph glyph-name="uni01ED" unicode="ǭ" horiz-adv-x="902" d="M815 550q0-130-22-235t-67-180T612 20 449-20q-90 0-158 40T178 134.5t-68 180T87 550q0 182 39 308.5t120 193 206 66.5q117 0 198-64.5t123-191T815 550zm-571 0q0-143 22-240t68.5-146T453 115q71 0 116.5 48T637 307.5 659 550q0 143-22 239.5t-67.5 145T452 983q-110 0-159-108.5T244 550zm452 826v-118H207v118h489zM420-244q0-50 24-76t68-26q23 0 38.5 4t26.5 8v-107q-17-7-41-11.5t-53-4.5q-95 0-143 48t-48 139q0 52 19.5 103.5t57 100T458 24l89-24q-70-70-98.5-127T420-244z"/><glyph glyph-name="uni01F0" unicode="ǰ" horiz-adv-x="424" d="M72-492q-27 0-53.5 5.5T-24-474v137q17-7 35.5-11.5T46-353q49 0 69 42t20 130v1279h154V-178q0-105-25-175t-73.5-104.5T72-492zm66 1733q-22 46-52.5 99.5t-65 107.5-69.5 100v20h86q38-37 84-91.5t91-108.5q51 62 87.5 103.5T388 1568h85v-20q-30-42-65.5-95.5t-68.5-109-55-102.5H138z"/><glyph glyph-name="Aringacute" unicode="Ǻ" horiz-adv-x="906" d="m0 0 342 1281q-46 18-75 58t-29 99q0 92 58 147.5t153 55.5q92 0 151.5-54.5T660 1441q0-61-28.5-101.5T556 1281L906 0H735L635 392H269L172 0H0zm299 538h304l-119 471q-8 39-15 75t-11.5 66l-7.5 50q-2-16-4.5-33.5t-6-36.5-7-38.5-6.5-37.5zm152 791q49 0 80 30t31 80q0 47-29.5 78t-81.5 31q-51 0-82-31t-31-78q0-49 28.5-79.5T451 1329zm-103 363v20q57 69 91 113t54.5 75.5T528 1962h189v-14q-17-27-47.5-60.5t-67.5-68-75-67.5-71-60H348z"/><glyph glyph-name="aringacute" unicode="ǻ" horiz-adv-x="840" d="M428 1118q152 0 217-97t65-281V0H593l-23 156h-4q-26-56-62-95.5t-82-60T316-20q-85 0-139 45T97 143.5 71 302q0 163 94 253t267 98l125 8v75q0 132-36 193t-116 61q-46 0-96.5-16T199 923l-49 116q62 40 132.5 59.5T428 1118zm131-570-102-7q-116-7-172.5-65.5T228 306q0-103 37-152t102-49q91 0 141.5 88T559 436v112zm-125 969q-49 0-81-31.5t-32-78.5q0-49 28.5-79t84.5-30q50 0 80.5 29.5T545 1406q0 48-29 79.5t-82 31.5zm0 92q61 0 109-24.5t76-69.5 28-107q0-92-58.5-148.5T434 1203q-97 0-154 55.5T223 1407q0 91 57.5 146.5T434 1609zm275 343v-16q-26-41-75-95.5t-101-105-87-79.5H338v21q46 60 79 106.5t57 87.5 44 81h191z"/><glyph glyph-name="AEacute" unicode="Ǽ" horiz-adv-x="1252" d="M1156 0H573v470H303L169 0H-4l438 1462h722v-144H732V835h398V692H732V145h424V0zM342 617h233v699h-33zm567 1315v-18q-20-33-53-74.5t-72-85-78-82.5-70-67h-98v23q40 55 74 107t62 101.5 51 95.5h184z"/><glyph glyph-name="aeacute" unicode="ǽ" horiz-adv-x="1318" d="M905 1116q113 0 185-65t106.5-174.5T1231 632V523H709q3-208 64-311t179-103q59 0 119.5 18.5T1191 183V48q-55-34-117.5-51T939-20q-73 0-135.5 27T694 85.5 620 210q-32-79-75.5-130t-98-75.5T325-20q-88 0-144.5 44.5T97.5 143 71 303q0 109 42.5 185T237 606t196 47l124 7v81q0 125-37 187t-114 62q-45 0-96-16t-110-51l-50 117q55 34 121.5 56t145.5 22q91 0 148.5-40T651 955q41 78 104.5 119.5T905 1116zM559 547l-101-6q-118-7-174-64t-56-171q0-101 36-150.5T367 106q60 0 103 39t66 111 23 171v120zm345 441q-85 0-135.5-84.5T711 645h377q0 97-19.5 174.5t-60 123T904 988zm37 580v-18q-20-33-53-74.5t-72-85-78-82.5-70-67h-98v23q40 55 74 107t62 101.5 51 95.5h184z"/><glyph glyph-name="Oslashacute" unicode="Ǿ" horiz-adv-x="1123" d="M1021 733q0-179-28.5-319t-85-236.5-142-147T566-20q-79 0-144 26T306 81l-90-182-99 44 113 227q-64 105-93 245.5T108 735q0 250 52 416t154 249 252 83q80 0 147-28t119-84l89 173 99-48-111-218q57-96 84.5-232.5T1021 733zm-164 0q0 108-10 199.5T816 1094L376 224q35-51 82.5-76.5T564 122q98 0 163 68.5T824.5 395 857 733zm-585 0q0-122 12.5-218T322 348l442 877q-36 59-85 87t-113 28q-98 0-163.5-69t-98-204T272 733zm569 1199v-18q-20-33-53-74.5t-72-85-78-82.5-70-67h-98v23q40 55 74 107t62 101.5 51 95.5h184z"/><glyph glyph-name="oslashacute" unicode="ǿ" horiz-adv-x="909" d="M819 550q0-183-42.5-310.5T652.5 46 453-20q-55 0-102.5 16.5T266 45l-90-183-94 46 109 217q-51 77-75.5 183T91 550q0 281 93 424.5T457 1118q57 0 104.5-18t87.5-56l79 156 94-46-95-192q47-75 69.5-178.5T819 550zm-574 0q0-84 8-151t23-114l317 632q-25 35-59 52.5T457 987q-112 0-162-109.5T245 550zm425 0q0 78-8 140.5T642 799L328 171q24-31 56.5-46.5T455 109q74 0 121.5 49T647 305t23 245zm60 1018v-18q-20-33-53-74.5t-72-85-78-82.5-70-67h-98v23q40 55 74 107t62 101.5 51 95.5h184z"/><glyph glyph-name="uni0218" unicode="Ș" horiz-adv-x="841" d="M762 399q0-124-47.5-218.5T581.5 33 380-20q-57 0-110 6.5T169.5 7 79 42v165q68-38 147.5-58T374 129q73 0 123 34.5t76.5 92.5T600 384q0 74-22 124.5T506 600t-135 85q-64 35-116 72t-89 83.5T109 950t-20 150q-2 115 45.5 201.5t132 134.5 193.5 47q83 0 158.5-20.5T749 1413l-52-146q-61 33-120.5 49.5T463 1333q-67 0-114.5-29t-73-79.5T250 1107q0-77 22.5-127t73-89T479 807q95-50 158-107.5T731 569t31-170zM488-125v-20q-14-50-36-105.5t-49-108-55-94.5h-86v23q12 37 26 93t26 113.5 16 98.5h158z"/><glyph glyph-name="uni0219" unicode="ș" horiz-adv-x="688" d="M622 290q0-99-36-168.5T481.5 16 315-20q-76 0-139 18T69 41v160q44-36 109-59.5T310 118q77 0 118.5 44T470 285q0 47-17 81.5t-54.5 66T300 499q-68 42-120.5 87T98 689.5 69 832q0 128 83.5 207t220.5 79q69 0 130.5-17.5T620 1048l-58-124q-42 29-89.5 46T375 987q-73 0-115.5-41T217 836q0-46 17-79t56-64 103-70q68-43 119.5-87.5T593 433t29-143zM413-125v-20q-14-50-36-105.5t-49-108-55-94.5h-86v23q12 37 26 93t26 113.5 16 98.5h158z"/><glyph glyph-name="uni021A" unicode="Ț" horiz-adv-x="770" d="M463 0H304v1318H19v144h730v-144H463V0zm14-125v-20q-14-50-36-105.5t-49-108-55-94.5h-86v23q12 37 26 93t26 113.5 16 98.5h158z"/><glyph glyph-name="uni021B" unicode="ț" horiz-adv-x="519" d="M392 116q25 0 50 5.5t48 15.5V11q-31-14-67-22.5T343-20q-71 0-116.5 32t-67 95.5T138 267v702H36v84l109 41 41 253h106v-249h186V969H292V285q0-85 20.5-127t79.5-42zm18-241v-20q-14-50-36-105.5t-49-108-55-94.5h-86v23q12 37 26 93t26 113.5 16 98.5h158z"/><glyph glyph-name="uni0237" unicode="ȷ" horiz-adv-x="424" d="M72-492q-27 0-53.5 5.5T-24-474v137q17-7 35.5-11.5T46-353q49 0 69 42t20 130v1279h154V-178q0-105-25-175t-73.5-104.5T72-492z"/><glyph glyph-name="uni0259" unicode="ə" horiz-adv-x="847" d="M377 1116q138 0 222.5-73t123-199.5T761 555q0-185-39-313.5t-116.5-195T414-20q-111 0-184 65.5t-109 176T85 467v106h524q-3 208-64 310T360 985q-58 0-116-18t-119-56v136q57 35 119.5 52t132.5 17zm232-663H231q0-93 19.5-172t60-127T414 106q86 0 136.5 85.5T609 453z"/><glyph glyph-name="uni02BC" unicode="ʼ" horiz-adv-x="374" d="m305 1462 15-22q-19-83-42.5-163t-51-158T166 964H48q17 62 31.5 127.5t27 130.5 21.5 126 14 114h163z"/><glyph glyph-name="circumflex" unicode="ˆ" horiz-adv-x="688" d="M417 1568q22-46 54.5-101t68-109 66.5-97v-20h-85q-43 41-87 93t-90 107q-46-54-92.5-108.5T168 1241H82v20q36 48 71 102.5t65.5 107.5 50.5 97h148z"/><glyph glyph-name="caron" unicode="ˇ" horiz-adv-x="686" d="M269 1241q-22 46-52.5 99.5t-65 107.5T82 1548v20h86q38-37 84-91.5t91-108.5q51 62 87.5 103.5T519 1568h85v-20q-30-42-65.5-95.5t-68.5-109-55-102.5H269z"/><glyph glyph-name="macron" unicode="ˉ" horiz-adv-x="653" d="M571 1376v-118H82v118h489z"/><glyph glyph-name="breve" unicode="˘" horiz-adv-x="654" d="M572 1512q-1-83-32.5-143t-87-92.5T323 1244q-109 0-172.5 67T82 1512h101q5-49 22.5-82.5T254 1379t73-17 72.5 16.5 49 50T471 1512h101z"/><glyph glyph-name="dotaccent" unicode="˙" horiz-adv-x="346" d="M175 1510q46 0 67.5-30t21.5-83q0-52-22.5-82t-66.5-30q-43 0-68 30t-25 82q0 55 23.5 84t69.5 29z"/><glyph glyph-name="ring" unicode="˚" horiz-adv-x="586" d="M293 1249q-97 0-154 55.5T82 1451q0 92 57 147.5t154 55.5q92 0 151.5-54.5T504 1454q0-92-57.5-148.5T293 1249zm2 95q49 0 80 29t31 77q0 50-29 81t-82 31q-51 0-82-31t-31-80q0-48 28-77.5t85-29.5z"/><glyph glyph-name="ogonek" unicode="˛" horiz-adv-x="449" d="M210-244q0-50 24-76t68-26q23 0 38.5 4t26.5 8v-107q-17-7-41-11.5t-53-4.5q-95 0-143 48T82-270q0 52 19.5 103.5t57 100T248 24l89-24q-70-70-98.5-127T210-244z"/><glyph glyph-name="tilde" unicode="˜" horiz-adv-x="762" d="M82 1242q5 48 16 92t30.5 77.5 49.5 53 71 19.5q38 0 72-18t66-41.5 62-41.5 59-18q32 0 48.5 33t25.5 88h98q-7-118-52-180t-113-62q-37 0-73 18t-68.5 42-61.5 42-54 18q-28 0-49.5-32t-30.5-90H82z"/><glyph glyph-name="hungarumlaut" unicode="˝" horiz-adv-x="778" d="M696 1569v-19q-16-32-46-74t-65.5-86-71.5-83-65-66h-79v22q31 45 64.5 104.5t61.5 115 41 86.5h160zm-288 0v-19q-17-34-44.5-74.5t-62-82.5-71.5-81-73-71H82v22q31 48 63.5 106.5t60.5 112 43 87.5h159z"/><glyph glyph-name="uni02F3" unicode="˳" horiz-adv-x="723" d="M362-531q-97 0-154 55t-57 149q0 90 56.5 146T362-125q93 0 152-54.5T573-326q0-91-57.5-148T362-531zm0 93q49 0 80 31t31 80q0 48-29 78t-82 30q-51 0-82.5-30.5T248-327q0-48 28.5-79.5T362-438z"/><glyph glyph-name="gravecomb" unicode="̀" d="M-619 1568q23-48 55.5-104t67.5-108.5 65-91.5v-23h-99q-31 27-69.5 65.5t-77.5 82-72 85.5-54 76v18h184z"/><glyph glyph-name="acutecomb" unicode="́" d="M-212 1568v-18q-20-33-53-74.5t-72-85-78-82.5-70-67h-98v23q40 55 74 107t62 101.5 51 95.5h184z"/><glyph glyph-name="uni0302" unicode="̂" d="M73 1568q22-46 54.5-101t68-109 66.5-97v-20h-85q-43 41-87 93T0 1441q-46-54-92.5-108.5T-176 1241h-86v20q36 48 71 102.5t65.5 107.5 50.5 97H73z"/><glyph glyph-name="tildecomb" unicode="̃" d="M-833 1242q5 48 16 92t30.5 77.5 49.5 53 71 19.5q38 0 72-18t66-41.5 62-41.5 59-18q32 0 48.5 33t25.5 88h98q-7-118-52-180t-113-62q-37 0-73 18t-68.5 42-61.5 42-54 18q-28 0-49.5-32t-30.5-90h-96z"/><glyph glyph-name="uni0304" unicode="̄" d="M243 1376v-118h-489v118h489z"/><glyph glyph-name="uni0306" unicode="̆" d="M245 1512q-1-83-32.5-143t-87-92.5T-4 1244q-109 0-172.5 67t-68.5 201h101q5-49 22.5-82.5T-73 1379t73-17 72.5 16.5 49 50T144 1512h101z"/><glyph glyph-name="uni0307" unicode="̇" d="M2 1510q46 0 67.5-30t21.5-83q0-52-22.5-82T2 1285q-43 0-68 30t-25 82q0 55 23.5 84T2 1510z"/><glyph glyph-name="uni0308" unicode="̈" d="M-248 1367q0 50 24 74t60 24q35 0 58.5-24.5T-82 1367q0-51-23.5-76.5T-164 1265q-36 0-60 25.5t-24 76.5zm328 0q0 50 24.5 74t59.5 24q36 0 60.5-24.5T249 1367q0-51-24.5-76.5T164 1265q-37 0-60.5 25.5T80 1367z"/><glyph glyph-name="hookabovecomb" unicode="̉" d="M-398 1501q0-73-39.5-119.5T-554 1317l-11-105h-88l-11 165q62 3 101 32.5t39 78.5q0 44-29.5 67.5T-642 1579q-22 0-43.5-3.5t-46.5-8.5v101q29 8 58.5 12.5t61.5 4.5q104 0 159-47.5t55-136.5z"/><glyph glyph-name="uni030A" unicode="̊" d="M0 1249q-97 0-154 55.5t-57 146.5q0 92 57 147.5T0 1654q92 0 151.5-54.5T211 1454q0-92-57.5-148.5T0 1249zm2 95q49 0 80 29t31 77q0 50-29 81t-82 31q-51 0-82-31t-31-80q0-48 28-77.5T2 1344z"/><glyph glyph-name="uni030B" unicode="̋" d="M416 1569v-19q-16-32-46-74t-65.5-86-71.5-83-65-66H89v22q31 45 64.5 104.5t61.5 115 41 86.5h160zm-288 0v-19q-17-34-44.5-74.5t-62-82.5-71.5-81-73-71h-75v22q31 48 63.5 106.5t60.5 112 43 87.5h159z"/><glyph glyph-name="uni030C" unicode="̌" d="M-74 1241q-22 46-52.5 99.5t-65 107.5-69.5 100v20h86q38-37 84-91.5T0 1368q51 62 87.5 103.5T176 1568h85v-20q-30-42-65.5-95.5t-68.5-109T72 1241H-74z"/><glyph glyph-name="uni030F" unicode="̏" d="M-527 1569q16-39 45-95.5t61.5-113 57.5-96.5v-23h-73q-30 25-67 64.5t-73.5 84-65.5 87-44 73.5v19h159zm-289 0q24-54 50.5-108t54.5-104 56-93v-23h-78q-29 26-64.5 65t-70.5 83-64.5 86.5-46.5 74.5v19h163z"/><glyph glyph-name="uni0312" unicode="̒" d="m-104 964-13 23q20 84 43.5 165t51.5 159 61 151h116q-23-85-41.5-172T82 1120 61 964h-165z"/><glyph glyph-name="dotbelowcomb" unicode="̣" d="M-587-357q-43 0-68 29t-25 82q0 56 24 85t69 29q46 0 67.5-30t21.5-83q0-55-22.5-83.5T-587-357z"/><glyph glyph-name="uni0326" unicode="̦" d="M104-125v-20q-14-50-36-105.5t-49-108-55-94.5h-86v23q12 37 26 93t26 113.5 16 98.5h158z"/><glyph glyph-name="uni0327" unicode="̧" d="M176-283q0-101-63.5-155T-64-492q-35 0-64 3.5t-49 9.5v103q20-6 43.5-9t46.5-3q67 0 100.5 29T47-283q0 56-43 83.5T-113-162L-43 0h95L6-105q55-11 93-35t57.5-60 19.5-83z"/><glyph glyph-name="uni0328" unicode="̨" d="M-33-244q0-50 24-76t68-26q23 0 38.5 4t26.5 8v-107q-17-7-41-11.5T30-457q-95 0-143 48t-48 139q0 52 19.5 103.5t57 100T5 24L94 0Q24-70-4.5-127T-33-244z"/><glyph glyph-name="tonos" unicode="΄" horiz-adv-x="1087" d="M472 1241v24q9 24 22.5 69.5t27 98 24.5 98 15 68.5h152v-22q-19-50-43.5-109t-52-118-54.5-109h-91z"/><glyph glyph-name="dieresistonos" unicode="΅" horiz-adv-x="1057" d="M660 1612v-21q-10-37-28-85.5t-40.5-98T547 1318h-77v23q12 43 22.5 92.5t18 96.5 9.5 82h140zm-322-190q34 0 57-26.5t23-76.5q0-49-23-74.5t-57-25.5q-36 0-59.5 26t-23.5 74q0 50 23.5 76.5T338 1422zm379 1q35 0 59-26t24-78q0-47-24-73.5t-59-26.5q-34 0-57 26.5t-23 75.5q0 50 23 76t57 26z"/><glyph glyph-name="Alphatonos" unicode="Ά" horiz-adv-x="920" d="M751 0 641 470H294L184 0H14l353 1462h193L920 0H751zM611 617l-112 496q-7 37-13.5 72.5t-12 69T463 1320q-3-32-8-66t-12-68.5-15-70.5L319 617h292zM3 1196v24q9 24 22.5 69.5t27 98 24.5 98 15 68.5h152v-22q-19-50-43.5-109t-52-118T94 1196H3z"/><glyph glyph-name="anoteleia" unicode="·" horiz-adv-x="453" d="M122 980q0 61 26.5 93t77.5 32q49 0 77-29.5t28-95.5q0-64-29-94t-76-30q-49 0-76.5 31.5T122 980z"/><glyph glyph-name="Epsilontonos" unicode="Έ" horiz-adv-x="978" d="M886 0H311v1462h575v-142H470V835h391V692H470V145h416V0zM-4 1175v24q9 24 22.5 69.5t27 98 24.5 98 15 68.5h152v-22q-19-50-43.5-109t-52-118T87 1175H-4z"/><glyph glyph-name="Etatonos" unicode="Ή" horiz-adv-x="1244" d="M1095 0H936v692H473V0H314v1462h159V837h463v625h159V0zM-4 1175v24q9 24 22.5 69.5t27 98 24.5 98 15 68.5h152v-22q-19-50-43.5-109t-52-118T87 1175H-4z"/><glyph glyph-name="Iotatonos" unicode="Ί" horiz-adv-x="598" d="M291 0v1462h159V0H291zM-4 1175v24q9 24 22.5 69.5t27 98 24.5 98 15 68.5h152v-22q-19-50-43.5-109t-52-118T87 1175H-4z"/><glyph glyph-name="Omicrontonos" unicode="Ό" horiz-adv-x="1188" d="M1087 733q0-157-25-293.5t-78.5-240T843 38 632-20q-126 0-214 59.5T276.5 203t-78 241T174 735q0 250 51.5 416T379 1400t253 83q164 0 264-99.5t145.5-269.5 45.5-381zm-748 0q0-199 33.5-334.5T471 194t159-69q96 0 160 67.5t96.5 203T919 733q0 301-72 453t-215 152q-98 0-163-68.5t-97.5-203T339 733zM-4 1175v24q9 24 22.5 69.5t27 98 24.5 98 15 68.5h152v-22q-19-50-43.5-109t-52-118T87 1175H-4z"/><glyph glyph-name="Upsilontonos" unicode="Ύ" horiz-adv-x="1049" d="m657 760 225 702h167L735 569V0H576v565l-313 897h166zM-4 1175v24q9 24 22.5 69.5t27 98 24.5 98 15 68.5h152v-22q-19-50-43.5-109t-52-118T87 1175H-4z"/><glyph glyph-name="Omegatonos" unicode="Ώ" horiz-adv-x="1207" d="M644 1338q-96 0-162.5-58.5t-101-176T346 807q0-152 24-278.5t71.5-227T561 126V0H132v145h269q-67 67-116.5 163T208 531.5 181 819q0 224 54 371t157.5 220 250.5 73 248-74.5 153-222 52-366.5q0-164-26.5-292T994 305 877 145h270V0H716v126q79 77 126.5 177t69 225.5T933 808q0 172-31.5 290T806 1277t-162 61zM-4 1175v24q9 24 22.5 69.5t27 98 24.5 98 15 68.5h152v-22q-19-50-43.5-109t-52-118T87 1175H-4z"/><glyph glyph-name="iotadieresistonos" unicode="ΐ" horiz-adv-x="503" d="M287 1098V258q0-77 19.5-108.5T369 118q27 0 57 7.5t44 16.5V10q-29-14-64.5-22T331-20q-68 0-112 28t-65 88.5T133 255v843h154zm67 514v-21q-10-37-28-85.5t-40.5-98T241 1318h-77v23q12 43 22.5 92.5t18 96.5 9.5 82h140zM32 1422q34 0 57-26.5t23-76.5q0-49-23-74.5T32 1219q-36 0-59.5 26t-23.5 74q0 50 23.5 76.5T32 1422zm379 1q35 0 59-26t24-78q0-47-24-73.5t-59-26.5q-34 0-57 26.5t-23 75.5q0 50 23 76t57 26z"/><glyph glyph-name="Alpha" unicode="Α" horiz-adv-x="906" d="M737 0 627 470H280L170 0H0l353 1462h193L906 0H737zM597 617l-112 496q-7 37-13.5 72.5t-12 69T449 1320q-3-32-8-66t-12-68.5-15-70.5L305 617h292z"/><glyph glyph-name="Beta" unicode="Β" horiz-adv-x="967" d="M151 1462h319q191 0 289-87t98-263q0-94-24-164.5T762.5 833 647 774v-8q82-19 135-64t79-115.5T887 418q0-126-43-220T718.5 52 517 0H151v1462zm159-630h158q119 0 173 66.5t54 199.5q0 111-57 169.5T465 1326H310V832zm0-136V139h189q110 0 166.5 71.5T722 426q0 90-29 150t-83 90-130 30H310z"/><glyph glyph-name="Gamma" unicode="Γ" horiz-adv-x="744" d="M725 1462v-144H310V0H151v1462h574z"/><glyph glyph-name="uni0394" unicode="Δ" horiz-adv-x="893" d="M542 1462 871 110V0H23v119l325 1343h194zM694 145l-195 867q-10 46-21.5 101T457 1219t-13 86q-8-46-17.5-98.5T407 1103t-20-95L200 145h494z"/><glyph glyph-name="Epsilon" unicode="Ε" horiz-adv-x="818" d="M726 0H151v1462h575v-142H310V835h391V692H310V145h416V0z"/><glyph glyph-name="Zeta" unicode="Ζ" horiz-adv-x="731" d="M690 0H53v124l453 1194H63v144h614v-126L223 145h467V0z"/><glyph glyph-name="Eta" unicode="Η" horiz-adv-x="1081" d="M932 0H773v692H310V0H151v1462h159V837h463v625h159V0z"/><glyph glyph-name="Theta" unicode="Θ" horiz-adv-x="1117" d="M738 813V675H377v138h361zm278-80q0-157-25-293.5t-78.5-240T772 38 561-20q-126 0-214 59.5T205.5 203t-78 241T103 735q0 250 51.5 416T308 1400t253 83q164 0 264-99.5T970.5 1114t45.5-381zm-748 0q0-199 33.5-334.5T400 194t159-69q96 0 160 67.5t96.5 203T848 733q0 301-72 453t-215 152q-98 0-163-68.5t-97.5-203T268 733z"/><glyph glyph-name="Iota" unicode="Ι" horiz-adv-x="458" d="M151 0v1462h159V0H151z"/><glyph glyph-name="Kappa" unicode="Κ" horiz-adv-x="900" d="M908 0H730L416 686 310 556V0H151v1462h159V720q12 29 40 81.5T421 930l295 532h173L524 816z"/><glyph glyph-name="Lambda" unicode="Λ" horiz-adv-x="891" d="M532 1462 891 0H725L483 1036q-9 48-17.5 92t-14 82.5-8.5 69.5q-5-39-11.5-79.5t-14-81.5-15.5-81L168 0H0l354 1462h178z"/><glyph glyph-name="Mu" unicode="Μ" horiz-adv-x="1455" d="M654 0 299 1242h-8q4-67 6.5-120.5t3.5-92.5 1-64V0H151v1462h225L725 246h6l350 1216h228V0h-156v961q0 27 1 67t3.5 93.5 4.5 120.5h-7L800 0H654z"/><glyph glyph-name="Nu" unicode="Ν" horiz-adv-x="1150" d="M1002 0H809L299 1210h-8q4-53 6.5-102.5t3.5-95.5 1-90V0H151v1462h192L854 270h6q-3 59-5.5 111t-3.5 97.5-1 83.5v900h152V0z"/><glyph glyph-name="Xi" unicode="Ξ" horiz-adv-x="807" d="M87 0v145h634V0H87zm67 694v145h498V694H154zm-42 626v142h587v-142H112z"/><glyph glyph-name="Omicron" unicode="Ο" horiz-adv-x="1117" d="M1016 733q0-157-25-293.5t-78.5-240T772 38 561-20q-126 0-214 59.5T205.5 203t-78 241T103 735q0 250 51.5 416T308 1400t253 83q164 0 264-99.5T970.5 1114t45.5-381zm-748 0q0-199 33.5-334.5T400 194t159-69q96 0 160 67.5t96.5 203T848 733q0 301-72 453t-215 152q-98 0-163-68.5t-97.5-203T268 733z"/><glyph glyph-name="Pi" unicode="Π" horiz-adv-x="1074" d="M151 0v1462h775V0H767v1318H310V0H151z"/><glyph glyph-name="Rho" unicode="Ρ" horiz-adv-x="896" d="M413 1462q215 0 317.5-104T833 1034q0-113-26.5-198.5t-79-143.5-132-87.5T409 575h-99V0H151v1462h262zm-6-140h-97V716h85q97 0 157.5 32t89 102 28.5 182q0 155-64 222.5T407 1322z"/><glyph glyph-name="Sigma" unicode="Σ" horiz-adv-x="815" d="M61 0v132l339 630-324 572v128h655v-142H396q-26 0-50.5.5t-46.5 2-44 3.5l321-564-341-626q37 4 73 6.5t74 2.5h383V0H61z"/><glyph glyph-name="Tau" unicode="Τ" horiz-adv-x="770" d="M463 0H304v1318H19v144h730v-144H463V0z"/><glyph glyph-name="Upsilon" unicode="Υ" horiz-adv-x="786" d="m394 760 225 702h167L472 569V0H313v565L0 1462h166z"/><glyph glyph-name="Phi" unicode="Φ" horiz-adv-x="1287" d="M721 1483v-180q153 0 257-69t157.5-190.5T1189 764q0-125-30.5-227.5t-90-176.5-147-114.5T721 205V-20H565v225q-109-1-196 39T220.5 358 127 535 95 764q0 116 31.5 214.5t92 171.5T366 1263.5t199 39.5v180h156zm-156-319q-99 0-168-46T292 982.5 256 764q0-138 37-231.5t106.5-141T565 343v821zm156 0V343q98 1 167 49t105.5 141.5T1030 764q0 134-35.5 222.5t-104.5 133-169 44.5z"/><glyph glyph-name="Chi" unicode="Χ" horiz-adv-x="804" d="M791 0H620L411 610 180 0H15l309 764-271 698h165l195-557 198 557h167L504 753z"/><glyph glyph-name="Psi" unicode="Ψ" horiz-adv-x="1279" d="M1149 1462V993q0-135-23-238t-73.5-173.5-133-106.5T718 439V0H563v439q-118 0-200.5 35t-133 104-74 171T132 985v477h159V984q0-118 20.5-209t79-142T563 581v881h155V581q101 2 160.5 41.5T964 750t26 234v478h159z"/><glyph glyph-name="uni03A9" unicode="Ω" horiz-adv-x="1133" d="M570 1338q-96 0-162.5-58.5t-101-176T272 807q0-152 24-278.5t71.5-227T487 126V0H58v145h269q-67 67-116.5 163T134 531.5 107 819q0 224 54 371t157.5 220 250.5 73 248-74.5 153-222 52-366.5q0-164-26.5-292T920 305 803 145h270V0H642v126q79 77 126.5 177t69 225.5T859 808q0 172-31.5 290T732 1277t-162 61z"/><glyph glyph-name="Iotadieresis" unicode="Ϊ" horiz-adv-x="458" d="M151 0v1462h159V0H151zM-20 1710q0 50 24 74t60 24q35 0 58.5-24.5T146 1710q0-51-23.5-76.5T64 1608q-36 0-60 25.5t-24 76.5zm328 0q0 50 24.5 74t59.5 24q36 0 60.5-24.5T477 1710q0-51-24.5-76.5T392 1608q-37 0-60.5 25.5T308 1710z"/><glyph glyph-name="Upsilondieresis" unicode="Ϋ" horiz-adv-x="786" d="m394 760 225 702h167L472 569V0H313v565L0 1462h166zm-248 944q0 50 24 74t60 24q35 0 58.5-24.5T312 1704q0-51-23.5-76.5T230 1602q-36 0-60 25.5t-24 76.5zm328 0q0 50 24.5 74t59.5 24q36 0 60.5-24.5T643 1704q0-51-24.5-76.5T558 1602q-37 0-60.5 25.5T474 1704z"/><glyph glyph-name="alphatonos" unicode="ά" horiz-adv-x="969" d="M447 113q70 0 116 48t69 138 23 217v43q0 216-52 319T443 981q-103 0-151-113t-48-325q0-223 50-326.5T447 113zM407-20q-153 0-235.5 143T89 545q0 286 87.5 429.5T418 1118q86 0 147.5-45T667 939h10q7 41 21 84.5t31 74.5h123q-13-43-22.5-100.5T815 870t-5-151V263q0-78 19.5-115t56.5-37q17 0 33 3t30 8V-2q-8-5-23-9t-32-6.5-32-2.5q-84 0-129.5 42T670 161h-12q-26-56-63-97T510.5 1.5 407-20zm-7 1261v24q9 24 22.5 69.5t27 98 24.5 98 15 68.5h152v-22q-19-50-43.5-109t-52-118-54.5-109h-91z"/><glyph glyph-name="epsilontonos" unicode="έ" horiz-adv-x="708" d="M508 639V515h-64q-70 0-115.5-24t-68-70.5T238 307q0-63 22.5-105.5t63-64.5 93.5-22q59 0 120 19.5T647 187V45Q595 12 536-4T394-20q-160 0-236.5 89.5T81 301q0 108 51.5 181T278 580v8q-78 29-116.5 94T123 839q0 85 37 147.5t103.5 97T419 1118q62 0 121-17t117-53l-62-119q-39 27-82.5 41.5T427 985q-75 0-114-42.5T274 827q0-92 45.5-140T456 639h52zm-167 602v24q9 24 22.5 69.5t27 98 24.5 98 15 68.5h152v-22q-19-50-43.5-109t-52-118-54.5-109h-91z"/><glyph glyph-name="etatonos" unicode="ή" horiz-adv-x="923" d="M529 1118q86 0 145-40t89-122 30-208V-490H639V717q0 133-34 198t-108 65q-71 0-117.5-41.5t-69-130T288 579V0H134v1098h123l18-159h9q23 55 59 95t83 62 103 22zm-134 123v24q9 24 22.5 69.5t27 98 24.5 98 15 68.5h152v-22q-19-50-43.5-109t-52-118-54.5-109h-91z"/><glyph glyph-name="iotatonos" unicode="ί" horiz-adv-x="504" d="M287 1098V258q0-77 19.5-108.5T369 118q27 0 57 7.5t44 16.5V10q-29-14-64.5-22T331-20q-68 0-112 28t-65 88.5T133 255v843h154zm-136 143v24q9 24 22.5 69.5t27 98 24.5 98 15 68.5h152v-22q-19-50-43.5-109t-52-118-54.5-109h-91z"/><glyph glyph-name="upsilondieresistonos" unicode="ΰ" horiz-adv-x="899" d="M453-18q-118 2-188.5 49t-102 153T130 466v632h154V454q0-157 32-246.5T451 118q107 0 157 106t50 324q0 141-13.5 273T598 1098h153q22-109 35-192.5T805 740t6-188q0-284-92-427T453-18zm128 1630v-21q-10-37-28-85.5t-40.5-98T468 1318h-77v23q12 43 22.5 92.5t18 96.5 9.5 82h140zm-322-190q34 0 57-26.5t23-76.5q0-49-23-74.5t-57-25.5q-36 0-59.5 26t-23.5 74q0 50 23.5 76.5T259 1422zm379 1q35 0 59-26t24-78q0-47-24-73.5t-59-26.5q-34 0-57 26.5t-23 75.5q0 50 23 76t57 26z"/><glyph glyph-name="alpha" unicode="α" horiz-adv-x="969" d="M447 113q70 0 116 48t69 138 23 217v43q0 216-52 319T443 981q-103 0-151-113t-48-325q0-223 50-326.5T447 113zM407-20q-153 0-235.5 143T89 545q0 286 87.5 429.5T418 1118q86 0 147.5-45T667 939h10q7 41 21 84.5t31 74.5h123q-13-43-22.5-100.5T815 870t-5-151V263q0-78 19.5-115t56.5-37q17 0 33 3t30 8V-2q-8-5-23-9t-32-6.5-32-2.5q-84 0-129.5 42T670 161h-12q-26-56-63-97T510.5 1.5 407-20z"/><glyph glyph-name="beta" unicode="β" horiz-adv-x="943" d="M478 1567q106 0 178-48t108.5-133 36.5-197q0-166-52.5-254T589 829v-8q140-21 204.5-121T858 412q0-136-40.5-232.5t-117-148T515-20q-73 0-126 18T288 50v-540H134v1641q0 133 41 225.5T293 1518t185 49zm-3-136q-59 0-101-33t-64-97-22-157V191q38-33 93.5-53T486 118q112 0 164.5 78.5T703 429q0 105-26 175.5T598.5 711 464 747h-41v137h33q101 0 147 69t46 215q0 130-46 196.5T475 1431z"/><glyph glyph-name="gamma" unicode="γ" horiz-adv-x="739" d="M728 1098 469 67q-21-89-38.5-187.5t-28-193.5T392-490H232q0 62 9.5 150T265-164t27 151L8 1098h161l121-502q17-72 33.5-140.5t29-132.5T370 199h8q7 60 18.5 122.5t26 130.5T453 594l117 504h158z"/><glyph glyph-name="delta" unicode="δ" horiz-adv-x="909" d="M514 1561q83 0 155-22t124-54l-58-130q-56 37-111 53.5T515 1425q-75 0-119.5-37.5T351 1287q0-51 26.5-99t73.5-96.5T559 987q86-79 144.5-159t88-171.5T821 449q0-136-42-242T655 40.5 452-20q-123 0-204 60.5T127 205 87 438q0 116 38.5 214.5t109 171T402 935q-61 58-106.5 113T225 1161t-25 124q0 134 89.5 205t224.5 71zm-27-709q-81-33-135-95t-81-143-27-172q0-87 23.5-162T338 159t116-46 116.5 40 72 116T667 453q0 113-42.5 210.5T487 852z"/><glyph glyph-name="epsilon" unicode="ε" horiz-adv-x="708" d="M508 639V515h-64q-70 0-115.5-24t-68-70.5T238 307q0-63 22.5-105.5t63-64.5 93.5-22q59 0 120 19.5T647 187V45Q595 12 536-4T394-20q-160 0-236.5 89.5T81 301q0 108 51.5 181T278 580v8q-78 29-116.5 94T123 839q0 85 37 147.5t103.5 97T419 1118q62 0 121-17t117-53l-62-119q-39 27-82.5 41.5T427 985q-75 0-114-42.5T274 827q0-92 45.5-140T456 639h52z"/><glyph glyph-name="zeta" unicode="ζ" horiz-adv-x="699" d="M654-120q0-67-35-146.5T537-408H380q33 45 60.5 93t43.5 92 16 76q0 38-17 67.5t-53.5 55T333 27q-87 40-140.5 92T114 253 89 463t26.5 246.5T194 944t129.5 236.5T502 1434q-23-3-51-5.5t-59.5-4-67.5-1.5H125v133h534v-112q-90-113-165.5-229t-131-236-86-245.5T246 475q0-81 14-138.5T315 236t123-82q53-24 102.5-57T622 12.5 654-120z"/><glyph glyph-name="eta" unicode="η" horiz-adv-x="923" d="M529 1118q86 0 145-40t89-122 30-208V-490H639V717q0 133-34 198t-108 65q-71 0-117.5-41.5t-69-130T288 579V0H134v1098h123l18-159h9q23 55 59 95t83 62 103 22z"/><glyph glyph-name="theta" unicode="θ" horiz-adv-x="936" d="M851 785q0-269-42.5-448T681 69 467-20q-190 0-284 199.5T89 783q0 265 43.5 441.5t128.5 265 210 88.5q191 0 285.5-197.5T851 785zM467 111q109 0 165 155t62 465H244q5-307 59.5-463.5T467 111zm2 1336q-108 0-162-147t-61-437h448q-7 286-61 435t-164 149z"/><glyph glyph-name="iota" unicode="ι" horiz-adv-x="504" d="M288 1098V258q0-77 19.5-108.5T370 118q27 0 57 7.5t44 16.5V10q-29-14-64.5-22T332-20q-68 0-112 28t-65 88.5T134 255v843h154z"/><glyph glyph-name="kappa" unicode="κ" horiz-adv-x="800" d="M773 1098 508 675 792 0H627L404 552 288 408V0H134v1098h154V778q0-61-2.5-116T279 556h7q14 28 28.5 55t27.5 51l265 436h166z"/><glyph glyph-name="lambda" unicode="λ" horiz-adv-x="810" d="m16 0 301 1084-40 196q-16 75-43 116t-81 41q-20 0-36.5-3.5T86 1424v131q13 5 27 8.5t29.5 5.5 32.5 2q66 0 113.5-28.5t81-89.5 57.5-159L656 265q13-53 27-85.5t33.5-47T764 118q17 0 31.5 3t26.5 7V-7q-12-4-25.5-7t-28-4.5T738-20q-61 0-103 27.5T564.5 92 515 238l-87 397q-7 30-12.5 58t-9.5 54-8 50l-8 48h-8q-4-30-8.5-60T361 725L174 0H16z"/><glyph glyph-name="uni03BC" unicode="μ" horiz-adv-x="927" d="M793 1098V0H670l-17 159h-10q-19-54-50.5-94.5T521 2t-86-22q-52 0-89 24.5T286 81h-6q2-37 4-72t3-67 1-60v-372H134v1588h154V391q0-136 34.5-204.5T428 118q77 0 123 45t67 134.5T639 520v578h154z"/><glyph glyph-name="nu" unicode="ν" horiz-adv-x="802" d="M24 1098h157l140-686q10-47 18.5-91t15-82 9.5-69h8q74 129 122.5 273.5T567 751t24 347h154q0-215-35.5-403.5T599.5 335 408 0H267z"/><glyph glyph-name="xi" unicode="ξ" horiz-adv-x="703" d="M90 417q0 99 25.5 183t80 141.5T337 817v7q-69 12-115 47.5t-69 98-23 155.5q0 76 28.5 138.5t77.5 106 109 61.5q-27-3-51-5t-46.5-2.5-46.5-.5h-98v133h527v-129h-48q-67 0-122-20t-94.5-58.5-60.5-93-21-122.5q0-131 53.5-188.5T509 887h82V750h-93q-80 0-136-33.5T276.5 614 247 438q0-79 16.5-132.5T321 216t112-63q72-28 120-65t72-88 24-121q0-67-35.5-145.5T535-408H375q36 48 63 96.5t42.5 91.5 15.5 73q0 41-17 72t-51.5 56T338 27q-89 34-143.5 85.5t-79.5 127T90 417z"/><glyph glyph-name="omicron" unicode="ο" horiz-adv-x="902" d="M815 550q0-130-22-235t-67-180T612 20 449-20q-90 0-158 40T178 134.5t-68 180T87 550q0 182 39 308.5t120 193 206 66.5q117 0 198-64.5t123-191T815 550zm-571 0q0-143 22-240t68.5-146T453 115q71 0 116.5 48T637 307.5 659 550q0 143-22 239.5t-67.5 145T452 983q-110 0-159-108.5T244 550z"/><glyph glyph-name="pi" unicode="π" horiz-adv-x="969" d="M851 123q17 0 35.5 3t34.5 10V8Q903-2 871.5-8T804-14q-97 0-144 67.5T613 259v705H323V0H170v964H12v66l100 68h817V964H769V262q0-75 19.5-107t62.5-32z"/><glyph glyph-name="rho" unicode="ρ" horiz-adv-x="929" d="M844 554q0-179-37-307.5T693.5 49 498-20q-70 0-124 23.5T282 69h-9q7-72 9-139.5t2-126.5v-293H130V567q0 177 38 300t117.5 187 203.5 64q115 0 194-62t120-187 41-315zM483 983q-103 0-152-98.5T282 584V201q35-43 81.5-65.5T465 113q114 0 167.5 110T686 554q0 218-48 323.5T483 983z"/><glyph glyph-name="uni03C2" unicode="ς" horiz-adv-x="687" d="M457 1118q58 0 108.5-13t93.5-36l-45-129q-40 20-76 30.5T467 981q-111 0-166-109.5T246 541q0-101 12-172.5t51.5-122T431 155q67-31 116-67t76-86 27-124q0-67-35-145.5T536-408H379q34 47 60.5 95t41.5 91.5 15 75.5q0 37-15 66.5t-49.5 56T338 31q-69 32-116.5 71.5t-77 97T102 339 89 537q0 193 41.5 322T254 1053t203 65z"/><glyph glyph-name="sigma" unicode="σ" horiz-adv-x="929" d="M813 500q0-169-43.5-285T645 39.5 451-20q-117 0-198 63T130.5 227 89 522q0 192 49 320t149 192 252 64h351V964H702q56-93 83.5-208.5T813 500zm-568 28q0-140 23.5-232t70-137.5T452 113q103 0 154.5 102T658 514q0 82-10 157.5T618.5 820 568 964h-52q-142 0-206.5-106.5T245 528z"/><glyph glyph-name="tau" unicode="τ" horiz-adv-x="622" d="M588 1098V964H341V321q0-106 28-156.5t88-50.5q29 0 57 5.5t56 15.5V7q-22-13-66-21.5T423-23q-83 0-135 36t-75.5 110T189 310v654H2v66l94 68h492z"/><glyph glyph-name="upsilon" unicode="υ" horiz-adv-x="899" d="M453-18q-118 2-188.5 49t-102 153T130 466v632h154V454q0-157 32-246.5T451 118q107 0 157 106t50 324q0 141-13.5 273T598 1098h153q22-109 35-192.5T805 740t6-188q0-284-92-427T453-18z"/><glyph glyph-name="phi" unicode="φ" horiz-adv-x="1167" d="m289 1109 116-79q-78-97-118.5-219T246 550q0-129 28.5-222T361 181.5 506 116v643q0 181 63 270t192 89q110 0 181-72.5t105.5-192T1082 591q0-166-46.5-298.5T895 78.5 656-17v-473H506v473Q368-6 275.5 63.5T136 256.5 89 552q0 161 50 298.5T289 1109zm471-124q-60 0-83-56.5T654 756V116q83 9 143 68t93 162.5T923 590q1 122-20.5 211T844 938.5 760 985z"/><glyph glyph-name="chi" unicode="χ" horiz-adv-x="779" d="M120 1112q56 0 96.5-24.5t70.5-78T339 868l74-315 183 545h156L470 340l127-521q18-69 33.5-107.5t35.5-54 50-15.5q17 0 31.5 3t27.5 7v-129q-19-7-41.5-11t-51.5-4q-55 0-95.5 24t-70 79T463-242l-91 378-207-626H4l312 840-116 469q-22 82-44.5 121T91 979q-18 0-34.5-2.5T29 969v129q17 6 40.5 10t50.5 4z"/><glyph glyph-name="psi" unicode="ψ" horiz-adv-x="1114" d="M638 1556V119q80 7 129.5 60t72 155.5T862 591q0 127-15.5 252T798 1098h152q35-141 51-263.5t16-247.5q0-191-42-323.5t-126-203T638-17v-473H489v473q-120 3-201.5 63T165 223t-41 291v584h154V522q0-127 21.5-214.5t68-134.5T489 119v1437h149z"/><glyph glyph-name="omega" unicode="ω" horiz-adv-x="1121" d="M929 1098q32-95 53.5-187.5t32-187T1025 528q0-174-31.5-296.5t-91-187T760-20q-76 0-127.5 49T561 166h-4q-19-88-70.5-137T354-20 215 43.5t-88.5 186T96 528q0 103 10 196t31.5 185 53.5 189h154q-47-133-71-274.5T250 529q0-203 30-305t94-102q39 0 64 34.5t36.5 104T486 435v275h147V435q0-106 11.5-175T681 157t65-35q43 0 70.5 45.5t41 135.5T871 527q0 149-23.5 292.5T775 1098h154z"/><glyph glyph-name="iotadieresis" unicode="ϊ" horiz-adv-x="506" d="M289 1098V258q0-77 19.5-108.5T371 118q27 0 57 7.5t44 16.5V10q-29-14-64.5-22T333-20q-68 0-112 28t-65 88.5T135 255v843h154zm-312 269q0 50 24 74t60 24q35 0 58.5-24.5T143 1367q0-51-23.5-76.5T61 1265q-36 0-60 25.5t-24 76.5zm328 0q0 50 24.5 74t59.5 24q36 0 60.5-24.5T474 1367q0-51-24.5-76.5T389 1265q-37 0-60.5 25.5T305 1367z"/><glyph glyph-name="upsilondieresis" unicode="ϋ" horiz-adv-x="899" d="M453-18q-118 2-188.5 49t-102 153T130 466v632h154V454q0-157 32-246.5T451 118q107 0 157 106t50 324q0 141-13.5 273T598 1098h153q22-109 35-192.5T805 740t6-188q0-284-92-427T453-18zM203 1367q0 50 24 74t60 24q35 0 58.5-24.5T369 1367q0-51-23.5-76.5T287 1265q-36 0-60 25.5t-24 76.5zm328 0q0 50 24.5 74t59.5 24q36 0 60.5-24.5T700 1367q0-51-24.5-76.5T615 1265q-37 0-60.5 25.5T531 1367z"/><glyph glyph-name="omicrontonos" unicode="ό" horiz-adv-x="902" d="M815 550q0-130-22-235t-67-180T612 20 449-20q-90 0-158 40T178 134.5t-68 180T87 550q0 182 39 308.5t120 193 206 66.5q117 0 198-64.5t123-191T815 550zm-571 0q0-143 22-240t68.5-146T453 115q71 0 116.5 48T637 307.5 659 550q0 143-22 239.5t-67.5 145T452 983q-110 0-159-108.5T244 550zm127 691v24q9 24 22.5 69.5t27 98 24.5 98 15 68.5h152v-22q-19-50-43.5-109t-52-118-54.5-109h-91z"/><glyph glyph-name="upsilontonos" unicode="ύ" horiz-adv-x="899" d="M453-18q-118 2-188.5 49t-102 153T130 466v632h154V454q0-157 32-246.5T451 118q107 0 157 106t50 324q0 141-13.5 273T598 1098h153q22-109 35-192.5T805 740t6-188q0-284-92-427T453-18zm-74 1259v24q9 24 22.5 69.5t27 98 24.5 98 15 68.5h152v-22q-19-50-43.5-109t-52-118-54.5-109h-91z"/><glyph glyph-name="omegatonos" unicode="ώ" horiz-adv-x="1121" d="M929 1098q32-95 53.5-187.5t32-187T1025 528q0-174-31.5-296.5t-91-187T760-20q-76 0-127.5 49T561 166h-4q-19-88-70.5-137T354-20 215 43.5t-88.5 186T96 528q0 103 10 196t31.5 185 53.5 189h154q-47-133-71-274.5T250 529q0-203 30-305t94-102q39 0 64 34.5t36.5 104T486 435v275h147V435q0-106 11.5-175T681 157t65-35q43 0 70.5 45.5t41 135.5T871 527q0 149-23.5 292.5T775 1098h154zm-442 143v24q9 24 22.5 69.5t27 98 24.5 98 15 68.5h152v-22q-19-50-43.5-109t-52-118-54.5-109h-91z"/><glyph glyph-name="uni03D1" unicode="ϑ" horiz-adv-x="1027" d="M487 1579q82 0 147-38.5T747.5 1425t80-193T874 961h131V825H876q2-21 3-42t1-45q-2-186-27-327.5T777.5 173t-127-144.5T470-20q-77 0-135 22t-96.5 65.5-58 107T161 320q0 44 4.5 102t8.5 112 4 86q0 53-15 73.5T114 714q-13 0-30.5-4T46 698L14 821q25 12 62.5 21.5T156 852q86 0 131-54t45-157q0-46-4-105t-8.5-114.5T315 329q0-105 38-161.5T470 111q84 0 139 68t82.5 206.5T721 736q0 24-1 46t-1 43q-158 2-273.5 52.5t-177.5 147-62 235.5q0 92 30.5 164t93 113.5T487 1579zm4-131q-65 0-98-50t-33-141q0-94 42-160.5t121.5-101T716 961q-7 91-23 177.5T650.5 1295t-66 111.5T491 1448z"/><glyph glyph-name="uni03D2" unicode="ϒ" horiz-adv-x="786" d="M393 763q20 86 36.5 155.5t31 125 27 100T513 1225q23 71 46 127.5t59 89.5 98 33q21 0 40-4t36-12v-136q-10 3-19.5 5.5T752 1331q-32 0-57-39.5T635 1158q-15-45-33.5-107t-40-138T517 750.5 470 569V0H311v566L0 1462h170z"/><glyph glyph-name="uni03D6" unicode="ϖ" horiz-adv-x="1128" d="M1096 1098V964H935q25-85 41-161.5t24-151.5 8-156q0-165-30-280T891 40 752-20q-73 0-118 41t-65 128h-8q-21-85-65-127T376-20q-124 0-191 135t-67 381q0 82 8 157.5T151.5 805 195 964H18v64l97 70h981zM785 964H343q-25-84-41-155.5T279 665t-7-160q0-193 29.5-289t87.5-96q59 0 80.5 82T491 465v208h148V465q0-124 9-200t31-110.5 59-34.5q58 0 88.5 96.5T857 503q0 85-8 158.5T825.5 808 785 964z"/><glyph glyph-name="uni0400" unicode="Ѐ" horiz-adv-x="818" d="M726 0H151v1462h575v-142H310V835h391V692H310V145h416V0zM336 1904q23-48 55.5-104t67.5-108.5 65-91.5v-23h-99q-31 27-69.5 65.5t-77.5 82-72 85.5-54 76v18h184z"/><glyph glyph-name="uni0401" unicode="Ё" horiz-adv-x="818" d="M726 0H151v1462h575v-142H310V835h391V692H310V145h416V0zM183 1703q0 50 24 74t60 24q35 0 58.5-24.5T349 1703q0-51-23.5-76.5T267 1601q-36 0-60 25.5t-24 76.5zm328 0q0 50 24.5 74t59.5 24q36 0 60.5-24.5T680 1703q0-51-24.5-76.5T595 1601q-37 0-60.5 25.5T511 1703z"/><glyph glyph-name="uni0402" unicode="Ђ" horiz-adv-x="1016" d="M651-20q-29 0-56 5.5T545 0v143q21-10 42-15.5t41-5.5q41 0 68 20t40.5 64T750 322v223q0 107-46.5 157T552 752H423V0H262v1318H19v144h677v-144H423V897h143q171 0 257-88t86-265V326q0-169-66.5-257.5T651-20z"/><glyph glyph-name="uni0403" unicode="Ѓ" horiz-adv-x="744" d="M725 1462v-144H310V0H151v1462h574zm27 442v-18q-20-33-53-74.5t-72-85-78-82.5-70-67h-98v23q40 55 74 107t62 101.5 51 95.5h184z"/><glyph glyph-name="uni0404" unicode="Є" horiz-adv-x="915" d="M589 1340q-82 0-140-42t-95-113.5-57-162.5-27-189h442V689H268q2-113 22-215t59.5-181 101-124T596 124q74 0 128 20t100 45V42Q773 12 711-4T578-20q-147 0-254 91.5t-165 261T101 734q0 153 29.5 288.5t89.5 240T371 1426t215 59q75 0 146-19.5t132-60.5l-56-135q-53 35-107 52.5T589 1340z"/><glyph glyph-name="uni0405" unicode="Ѕ" horiz-adv-x="841" d="M762 399q0-124-47.5-218.5T581.5 33 380-20q-57 0-110 6.5T169.5 7 79 42v165q68-38 147.5-58T374 129q73 0 123 34.5t76.5 92.5T600 384q0 74-22 124.5T506 600t-135 85q-64 35-116 72t-89 83.5T109 950t-20 150q-2 115 45.5 201.5t132 134.5 193.5 47q83 0 158.5-20.5T749 1413l-52-146q-61 33-120.5 49.5T463 1333q-67 0-114.5-29t-73-79.5T250 1107q0-77 22.5-127t73-89T479 807q95-50 158-107.5T731 569t31-170z"/><glyph glyph-name="uni0406" unicode="І" horiz-adv-x="458" d="M151 0v1462h159V0H151z"/><glyph glyph-name="uni0407" unicode="Ї" horiz-adv-x="458" d="M151 0v1462h159V0H151zM-20 1709q0 50 24 74t60 24q35 0 58.5-24.5T146 1709q0-51-23.5-76.5T64 1607q-36 0-60 25.5t-24 76.5zm328 0q0 50 24.5 74t59.5 24q36 0 60.5-24.5T477 1709q0-51-24.5-76.5T392 1607q-37 0-60.5 25.5T308 1709z"/><glyph glyph-name="uni0408" unicode="Ј" horiz-adv-x="450" d="M32-391q-36 0-69 5t-62 17v143q25-9 54-15t60-6q47 0 75.5 25.5t42 81T146 6v1456h159V-8q0-139-31-223t-92-122-150-38z"/><glyph glyph-name="uni0409" unicode="Љ" horiz-adv-x="1381" d="M87-16q-30 0-53.5 5T-7 4v141q13-8 31-12.5t37-4.5q39 0 63 22.5t37.5 63T184 306q11 54 23 147.5T233.5 687t31 332.5T301 1462h501V846h93q137 0 229.5-45t139-137 46.5-234q0-202-106.5-316T900 0H647v1312H442q-17-212-31-372.5t-25-278T365.5 463 348 329t-16-85q-20-86-49-143.5T208 14 87-16zm715 157h94q125 0 188 73.5t63 213.5q0 94-26.5 155t-82 91.5T894 705h-92V141z"/><glyph glyph-name="uni040A" unicode="Њ" horiz-adv-x="1415" d="M151 0v1462h159V840h375v622h157V840h89q140 0 232.5-44.5t138.5-135 46-230.5q0-205-108.5-317.5T938 0H685v699H310V0H151zm689 141h93q123 0 187.5 72.5T1185 428q0 93-26.5 153t-82.5 89-144 29h-92V141z"/><glyph glyph-name="uni040B" unicode="Ћ" horiz-adv-x="1033" d="M696 1462v-144H423V897h146q170 0 255.5-88.5T910 544V0H749v545q0 107-46 157t-150 50H423V0H262v1318H19v144h677z"/><glyph glyph-name="uni040C" unicode="Ќ" horiz-adv-x="889" d="M894 0H715L310 753V0H151v1462h159V763l388 699h173L470 761zm-91 1904v-18q-20-33-53-74.5t-72-85-78-82.5-70-67h-98v23q40 55 74 107t62 101.5 51 95.5h184z"/><glyph glyph-name="uni040D" unicode="Ѝ" horiz-adv-x="1158" d="M151 1462h155V562q0-28-.5-58.5t-1.5-66-3-78-5-94.5h8l507 1197h198V0H853v921q0 32 1 66t2.5 70 4 75 6.5 79h-8L346 0H151v1462zm339 442q23-48 55.5-104t67.5-108.5 65-91.5v-23h-99q-31 27-69.5 65.5t-77.5 82-72 85.5-54 76v18h184z"/><glyph glyph-name="uni040E" unicode="Ў" horiz-adv-x="787" d="M787 1462 495 414q-46-165-92-260T298.5 19.5 157-20q-32 0-60.5 5.5T42 1v145q26-12 50-18t50-6q43 0 72.5 26.5T270 241t57 185L2 1462h166l195-659q8-23 15-50t14.5-59 15.5-72h10q5 35 10.5 64t11.5 56.5 14 54.5l167 665h166zm-100 418q-7-100-42-167.5T548 1611t-152-34q-91 0-153 32t-95.5 99-39.5 172h131q9-109 45.5-157t111.5-48q78 0 114.5 50t45.5 155h131z"/><glyph glyph-name="uni040F" unicode="Џ" horiz-adv-x="1074" d="M926 0H616v-391H461V0H151v1462h159V145h457v1317h159V0z"/><glyph glyph-name="uni0410" unicode="А" horiz-adv-x="906" d="M737 0 627 470H280L170 0H0l353 1462h193L906 0H737zM597 617l-112 496q-7 37-13.5 72.5t-12 69T449 1320q-3-32-8-66t-12-68.5-15-70.5L305 617h292z"/><glyph glyph-name="uni0411" unicode="Б" horiz-adv-x="913" d="M151 0v1462h621v-144H310V846h121q138 0 230.5-45T800 663.5 846 430q0-203-107-316.5T438 0H151zm159 141h124q122 0 186.5 72.5T685 428q0 94-27 155.5T575 675t-143 30H310V141z"/><glyph glyph-name="uni0412" unicode="В" horiz-adv-x="967" d="M151 1462h319q191 0 289-87t98-263q0-94-24-164.5T762.5 833 647 774v-8q82-19 135-64t79-115.5T887 418q0-126-43-220T718.5 52 517 0H151v1462zm159-630h158q119 0 173 66.5t54 199.5q0 111-57 169.5T465 1326H310V832zm0-136V139h189q110 0 166.5 71.5T722 426q0 90-29 150t-83 90-130 30H310z"/><glyph glyph-name="uni0413" unicode="Г" horiz-adv-x="744" d="M725 1462v-144H310V0H151v1462h574z"/><glyph glyph-name="uni0414" unicode="Д" horiz-adv-x="1030" d="M863 1462V145h128v-536H837V0H164v-391H10v536h88q56 165 96.5 323.5t67 318.5 40.5 327 17 348h544zm-159-142H468q-6-162-21.5-316t-41-300.5-60.5-286T265 145h439v1175z"/><glyph glyph-name="uni0415" unicode="Е" horiz-adv-x="818" d="M726 0H151v1462h575v-142H310V835h391V692H310V145h416V0z"/><glyph glyph-name="uni0416" unicode="Ж" horiz-adv-x="1249" d="M386 757 1 1462h173l373-704v704h155V758l374 704h170L862 757 1255 0h-176L702 749V0H547v749L169 0H-5z"/><glyph glyph-name="uni0417" unicode="З" horiz-adv-x="873" d="M728 1127q0-141-65.5-236T475 765v-8q138-17 209-110t71-250q0-128-46-221.5T571.5 31 343-20q-79 0-152.5 15T55 40v160q36-23 82.5-40.5t96-26.5 94.5-9q134 0 198 68t64 212q0 146-73.5 215T289 688H182v144h107q92 0 154 30.5t93 92 31 155.5q0 114-54 171t-152 57q-64 0-117.5-25.5T152 1245l-79 115q44 43 91.5 70t102 40 119.5 13q109 0 185-44t116.5-124 40.5-188z"/><glyph glyph-name="uni0418" unicode="И" horiz-adv-x="1158" d="M151 1462h155V562q0-28-.5-58.5t-1.5-66-3-78-5-94.5h8l507 1197h198V0H853v921q0 32 1 66t2.5 70 4 75 6.5 79h-8L346 0H151v1462z"/><glyph glyph-name="uni0419" unicode="Й" horiz-adv-x="1158" d="M151 1462h155V562q0-28-.5-58.5t-1.5-66-3-78-5-94.5h8l507 1197h198V0H853v921q0 32 1 66t2.5 70 4 75 6.5 79h-8L346 0H151v1462zm714 418q-7-100-42-167.5T726 1611t-152-34q-91 0-153 32t-95.5 99-39.5 172h131q9-109 45.5-157t111.5-48q78 0 114.5 50t45.5 155h131z"/><glyph glyph-name="uni041A" unicode="К" horiz-adv-x="889" d="M894 0H715L310 753V0H151v1462h159V763l388 699h173L470 761z"/><glyph glyph-name="uni041B" unicode="Л" horiz-adv-x="1007" d="M861 0H700v1312H442q-9-118-20.5-250t-24-260.5T373 564t-22-181q-20-140-48.5-228T224 25.5 88-16q-31 0-54.5 5T-7 4v141q14-8 31.5-12.5T61 128q43 0 69 27.5t43.5 96T206 442q9 74 20 186.5T249.5 878t26 286.5T301 1462h560V0z"/><glyph glyph-name="uni041C" unicode="М" horiz-adv-x="1455" d="M654 0 299 1242h-8q4-67 6.5-120.5t3.5-92.5 1-64V0H151v1462h225L725 246h6l350 1216h228V0h-156v961q0 27 1 67t3.5 93.5 4.5 120.5h-7L800 0H654z"/><glyph glyph-name="uni041D" unicode="Н" horiz-adv-x="1081" d="M932 0H773v692H310V0H151v1462h159V837h463v625h159V0z"/><glyph glyph-name="uni041E" unicode="О" horiz-adv-x="1117" d="M1016 733q0-157-25-293.5t-78.5-240T772 38 561-20q-126 0-214 59.5T205.5 203t-78 241T103 735q0 250 51.5 416T308 1400t253 83q164 0 264-99.5T970.5 1114t45.5-381zm-748 0q0-199 33.5-334.5T400 194t159-69q96 0 160 67.5t96.5 203T848 733q0 301-72 453t-215 152q-98 0-163-68.5t-97.5-203T268 733z"/><glyph glyph-name="uni041F" unicode="П" horiz-adv-x="1074" d="M151 0v1462h775V0H767v1318H310V0H151z"/><glyph glyph-name="uni0420" unicode="Р" horiz-adv-x="896" d="M413 1462q215 0 317.5-104T833 1034q0-113-26.5-198.5t-79-143.5-132-87.5T409 575h-99V0H151v1462h262zm-6-140h-97V716h85q97 0 157.5 32t89 102 28.5 182q0 155-64 222.5T407 1322z"/><glyph glyph-name="uni0421" unicode="С" horiz-adv-x="906" d="M596 1340q-87 0-149.5-49t-102-134.5-58-195T268 731q0-188 41.5-324T427 197.5 606 124q62 0 117 16t101 39V35Q776 7 717-6.5T588-20q-149 0-258 90T162 328.5 103 733q0 155 29.5 291t90 240T375 1426.5t216 58.5q72 0 138.5-18.5T857 1413l-57-135q-46 29-97 45.5T596 1340z"/><glyph glyph-name="uni0422" unicode="Т" horiz-adv-x="770" d="M463 0H304v1318H19v144h730v-144H463V0z"/><glyph glyph-name="uni0423" unicode="У" horiz-adv-x="787" d="M787 1462 495 414q-46-165-92-260T298.5 19.5 157-20q-32 0-60.5 5.5T42 1v145q26-12 50-18t50-6q43 0 72.5 26.5T270 241t57 185L2 1462h166l195-659q8-23 15-50t14.5-59 15.5-72h10q5 35 10.5 64t11.5 56.5 14 54.5l167 665h166z"/><glyph glyph-name="uni0424" unicode="Ф" horiz-adv-x="1287" d="M721 1483v-180q153 0 257-69t157.5-190.5T1189 764q0-125-30.5-227.5t-90-176.5-147-114.5T721 205V-20H565v225q-109-1-196 39T220.5 358 127 535 95 764q0 116 31.5 214.5t92 171.5T366 1263.5t199 39.5v180h156zm-156-319q-99 0-168-46T292 982.5 256 764q0-138 37-231.5t106.5-141T565 343v821zm156 0V343q98 1 167 49t105.5 141.5T1030 764q0 134-35.5 222.5t-104.5 133-169 44.5z"/><glyph glyph-name="uni0425" unicode="Х" horiz-adv-x="804" d="M791 0H620L411 610 180 0H15l309 764-271 698h165l195-557 198 557h167L504 753z"/><glyph glyph-name="uni0426" unicode="Ц" horiz-adv-x="1110" d="M1062 145v-536H909V0H151v1462h159V145h464v1317h159V145h129z"/><glyph glyph-name="uni0427" unicode="Ч" horiz-adv-x="1039" d="M892 0H731v603q-85-45-163-68t-152-23q-144 0-218 94.5T124 883v579h159V910q0-129 43-191t133-62q71 0 134.5 19.5T731 736v726h161V0z"/><glyph glyph-name="uni0428" unicode="Ш" horiz-adv-x="1506" d="M1357 0H151v1462h159V145h365v1317h159V145h364v1317h159V0z"/><glyph glyph-name="uni0429" unicode="Щ" horiz-adv-x="1533" d="M1487 145v-536h-153V0H151v1462h159V145h365v1317h159V145h364v1317h159V145h130z"/><glyph glyph-name="uni042A" unicode="Ъ" horiz-adv-x="1081" d="M310 0v1317H27v145h442V846h122q137 0 230-45t140-137 47-234q0-201-106.5-315.5T598 0H310zm161 141h124q124 0 188 72.5T847 428q0 94-27.5 155.5T736 675t-142 30H471V141z"/><glyph glyph-name="uni042B" unicode="Ы" horiz-adv-x="1361" d="M151 0v1462h159V846h121q138 0 230.5-45T800 663.5 846 430q0-203-107-316.5T437 0H151zm159 141h124q122 0 186.5 72.5T685 428q0 94-27 155.5T575 675t-143 30H310V141zM1053 0v1462h159V0h-159z"/><glyph glyph-name="uni042C" unicode="Ь" horiz-adv-x="917" d="M151 0v1462h159V846h121q138 0 230.5-45T800 663.5 846 430q0-203-107-316.5T437 0H151zm159 141h124q122 0 186.5 72.5T685 428q0 94-27 155.5T575 675t-143 30H310V141z"/><glyph glyph-name="uni042D" unicode="Э" horiz-adv-x="915" d="M313 1340q-57 0-108-16.5t-99-45.5l-57 133q62 38 129.5 56t144.5 18q113 1 203-51t154-150.5 97.5-238.5T810 730q0-213-52.5-383t-160-268.5T323-20q-68 0-132.5 13.5T82 33v146q49-23 107-39t122-16q87 0 148.5 45T561 292.5 621.5 473 645 689H202v144h439q-5 98-26.5 188.5t-61 162.5-99 114-141.5 42z"/><glyph glyph-name="uni042E" unicode="Ю" horiz-adv-x="1474" d="M1371 733q0-156-23-292t-72.5-240-130-162.5T949-20q-132 0-225 81.5t-143.5 240T524 692H310V0H151v1462h159V837h217q10 214 60.5 357.5t141.5 216 220 72.5q139 0 233-87t141.5-254.5T1371 733zm-685 0q0-199 30-334.5T803.5 194 945 125q87 0 144.5 68.5t86 203.5 28.5 336q0 203-29 337t-86 201-141 67q-86 0-144.5-68.5t-88-203.5T686 733z"/><glyph glyph-name="uni042F" unicode="Я" horiz-adv-x="933" d="M469 617 206 0H31l294 651q-78 27-128 84t-74 135.5T99 1040q0 211 103 316.5T510 1462h275V0H626v615zm155 707H521q-91 0-147.5-30t-83-93.5T264 1038q0-149 58-219t179-70h123v575z"/><glyph glyph-name="uni0430" unicode="а" horiz-adv-x="841" d="M428 1118q152 0 217-97t65-281V0H593l-23 156h-4q-26-56-62-95.5t-82-60T316-20q-85 0-139 45T97 143.5 71 302q0 163 94 253t267 98l125 8v75q0 132-36 193t-116 61q-46 0-96.5-16T199 923l-49 116q62 40 132.5 59.5T428 1118zm131-570-102-7q-116-7-172.5-65.5T228 306q0-103 37-152t102-49q91 0 141.5 88T559 436v112z"/><glyph glyph-name="uni0431" unicode="б" horiz-adv-x="911" d="M95 700q0 180 24.5 329.5T208 1290t184 173q63 37 164 64t240 40l17-139q-47-4-99-11t-102-17-93-24-72-31q-75-42-116-112t-58.5-165.5T250 852h9q24 51 61 88t83.5 57 96.5 20q103 0 175-58t110.5-170.5T824 513q0-169-43-288.5t-126.5-182T449-20q-88 0-154.5 42.5T183.5 153 117 377 95 700zm358-587q71 0 119 43.5T644 287t24 217q0 188-50.5 285T463 886q-48 0-90.5-30T299 779t-46-99q1-139 13-245t36.5-178T364 149t89-36z"/><glyph glyph-name="uni0432" unicode="в" horiz-adv-x="851" d="M743 828q0-97-39-159t-121-84v-8q91-16 140-83t49-171q0-102-37.5-174.5T624 38 442 0H134v1098h292q105 0 175.5-31t106-91T743 828zM617 335q0 98-45 139.5T440 516H288V124h147q94 0 138 51t44 160zm-29 480q0 77-42 118t-128 41H288V637h148q80 0 116 43.5T588 815z"/><glyph glyph-name="uni0433" unicode="г" horiz-adv-x="642" d="M623 1098V962H288V0H134v1098h489z"/><glyph glyph-name="uni0434" unicode="д" horiz-adv-x="887" d="M735 1098V135h112v-515H698V0H164v-380H14v515h87q57 137 93.5 296.5T250 761t22 337h463zM583 964H408q-4-131-20-274t-47.5-285T257 135h326v829z"/><glyph glyph-name="uni0435" unicode="е" horiz-adv-x="847" d="M436 1116q112 0 184.5-65t108-175T764 631V522H241q2-205 63.5-308T490 111q59 0 116 18t118 58V49Q667 14 605-3T473-20q-137 0-222 73.5t-123.5 201T89 543q0 184 39 312t116.5 194.5T436 1116zm0-126q-87 0-136-84.5T243 645h377q0 93-19.5 171.5t-60 126T436 990z"/><glyph glyph-name="uni0436" unicode="ж" horiz-adv-x="1121" d="M1090 1098 789 579 1117 0H942L638 569V0H486v569L182 0H8l328 579-301 519h167l284-521v521h152V577l285 521h167z"/><glyph glyph-name="uni0437" unicode="з" horiz-adv-x="707" d="M308 1118q89 0 152.5-33.5t97-96T591 838t-43-156-109-92v-8q58-17 99.5-54.5t63.5-93T624 307q0-97-38-170.5t-109.5-115T304-20q-51 0-95.5 8t-83 24T53 53v146q48-37 107.5-61.5T290 113q58 0 97.5 23.5T448 205t21 111q0 60-22 104.5T381.5 490 271 515h-65v124h62q78 0 124 49t46 139q0 80-39 120.5T292 988q-40 0-82.5-13T125 935l-60 116q60 35 119.5 51t123.5 16z"/><glyph glyph-name="uni0438" unicode="и" horiz-adv-x="954" d="M285 1098V460q0-30-.5-59t-2-58-3.5-59.5-4-63.5l368 878h176V0H671v619q0 43 .5 86t2.5 86l4 86L308 0H134v1098h151z"/><glyph glyph-name="uni0439" unicode="й" horiz-adv-x="954" d="M285 1098V460q0-30-.5-59t-2-58-3.5-59.5-4-63.5l368 878h176V0H671v619q0 43 .5 86t2.5 86l4 86L308 0H134v1098h151zm486 444q-7-100-42-167.5T632 1273t-152-34q-91 0-153 32t-95.5 99-39.5 172h131q9-109 45.5-157t111.5-48q78 0 114.5 50t45.5 155h131z"/><glyph glyph-name="uni043A" unicode="к" horiz-adv-x="787" d="M587 1098h169L440 580 781 0H607L288 570V0H134v1098h154V579z"/><glyph glyph-name="uni043B" unicode="л" horiz-adv-x="861" d="M726 0H573v959H363q-12-247-30-430t-49.5-303T201 47 72-12q-20 0-38 3T-1 1v133q8-4 19.5-6.5T43 125q34 0 59.5 38.5t45 116.5T181 474.5 204.5 747t16.5 351h505V0z"/><glyph glyph-name="uni043C" unicode="м" horiz-adv-x="1144" d="M1011 1098V0H863v606q0 47 3.5 120.5T876 896h-8L639 0H502L276 896h-9q5-84 8.5-161.5T279 610V0H134v1098h219l219-881 222 881h217z"/><glyph glyph-name="uni043D" unicode="н" horiz-adv-x="932" d="M288 1098V637h356v461h154V0H644v504H288V0H134v1098h154z"/><glyph glyph-name="uni043E" unicode="о" horiz-adv-x="902" d="M815 550q0-130-22-235t-67-180T612 20 449-20q-90 0-158 40T178 134.5t-68 180T87 550q0 182 39 308.5t120 193 206 66.5q117 0 198-64.5t123-191T815 550zm-571 0q0-143 22-240t68.5-146T453 115q71 0 116.5 48T637 307.5 659 550q0 143-22 239.5t-67.5 145T452 983q-110 0-159-108.5T244 550z"/><glyph glyph-name="uni043F" unicode="п" horiz-adv-x="932" d="M798 1098V0H644v964H288V0H134v1098h664z"/><glyph glyph-name="uni0440" unicode="р" horiz-adv-x="937" d="M531 1118q158 0 239.5-141.5T852 551q0-183-36.5-310.5T709 46.5 539-20q-56 0-104 21.5t-85 61-62 92.5h-7q2-40 4.5-77T288 8v-498H134v1588h125l19-161h9q28 61 64.5 101t81.5 60 98 20zm-33-133q-70 0-116.5-44t-70-132.5T288 586v-53q0-142 23.5-235t71-138T500 115q64 0 107.5 46T673 303t22 246q0 217-45.5 326.5T498 985z"/><glyph glyph-name="uni0441" unicode="с" horiz-adv-x="703" d="M451-20q-121 0-201.5 63T129 231 89 541q0 181 40.5 310T252 1049t205 69q62 0 111.5-13t92.5-37l-49-127q-37 20-73.5 30T467 981q-72 0-121-49.5T271.5 785 246 543q0-141 24.5-236t74-143.5T468 115q44 0 89.5 12.5T649 164V34Q607 8 551.5-6T451-20z"/><glyph glyph-name="uni0442" unicode="т" horiz-adv-x="614" d="M594 964H384V0H232v964H20v134h574V964z"/><glyph glyph-name="uni0443" unicode="у" horiz-adv-x="746" d="M12 1098h159l155-642q9-42 17.5-82t16-79.5T372 215h8q8 58 20 117.5T428 457l151 641h158L411-176q-29-110-68-180t-91.5-103T127-492q-24 0-48 5t-51 12v137q19-7 39.5-11t39.5-4q38 0 65 19.5t48 64.5 41 123L300 8z"/><glyph glyph-name="uni0444" unicode="ф" horiz-adv-x="1110" d="M632 1556v-444q136-12 222.5-90T983 821t42-271q0-151-41.5-274T855 76.5 632-15v-477H482v477Q358-4 270 66T135.5 258.5 89 551q0 156 41.5 278t128 196.5T480 1112v444h152zM480 980q-74-8-126.5-62T273 771t-28-220q0-112 25-207.5t77-156T480 118v862zm152 0V118q84 9 136 71.5T844.5 347 869 550q0 189-63.5 302.5T632 980z"/><glyph glyph-name="uni0445" unicode="х" horiz-adv-x="751" d="M289 566 46 1098h165l168-407 171 407h163L468 558 723 0H560L375 433 191 0H30z"/><glyph glyph-name="uni0446" unicode="ц" horiz-adv-x="958" d="M920-380H768V0H134v1098h154V135h363v963h152V135h117v-515z"/><glyph glyph-name="uni0447" unicode="ч" horiz-adv-x="915" d="M263 1098V664q0-88 34-128t94-40q65 0 126 32.5T629 611v487h152V0H629v475q-57-55-127.5-84T357 362q-125 0-185.5 77T111 673v425h152z"/><glyph glyph-name="uni0448" unicode="ш" horiz-adv-x="1292" d="M1157 1098V0H134v1098h154V135h281v963h151V135h284v963h153z"/><glyph glyph-name="uni0449" unicode="щ" horiz-adv-x="1313" d="M1157 1098V135h115v-515h-150V0H134v1098h154V135h281v963h151V135h284v963h153z"/><glyph glyph-name="uni044A" unicode="ъ" horiz-adv-x="949" d="M407 1098V639h115q118 0 197.5-36t120-106T880 323q0-105-41-177T720 37 531 0H253v960H20v138h387zm119-583H407V124h118q101 0 150.5 49T725 316q0 98-49 148.5T526 515z"/><glyph glyph-name="uni044B" unicode="ы" horiz-adv-x="1201" d="M134 0v1098h154V639h116q117 0 196-36t119.5-106T760 323q0-105-40.5-177T601 37 410 0H134zm154 124h118q100 0 150 49t50 143q0 98-49 148.5T407 515H288V124zM914 0v1098h152V0H914z"/><glyph glyph-name="uni044C" unicode="ь" horiz-adv-x="831" d="M288 639h116q117 0 196-36t119.5-106T760 323q0-105-40.5-177T601 37 410 0H134v1098h154V639zm318-323q0 98-49 148.5T407 515H288V124h118q100 0 150 49t50 143z"/><glyph glyph-name="uni044D" unicode="э" horiz-adv-x="738" d="M264-20q-57 0-112 14.5T58 34v133q48-25 96-39.5t97-14.5q75 0 127 42t80.5 128.5T492 504H199v125h290q-10 178-66 267t-158 89q-39 0-82.5-13T113 942l-50 125q50 26 101 38.5t106 12.5q124 0 208.5-65T607 862.5 651 553q0-187-43-314.5t-129-193T264-20z"/><glyph glyph-name="uni044E" unicode="ю" horiz-adv-x="1255" d="M1168 550q0-185-40.5-312.5T1009 45 818-20q-109 0-183 58T521.5 212.5 475 504H288V0H134v1098h154V637h187q10 158 52.5 265T644 1063.5t178 54.5q111 0 188.5-65.5t117.5-192 40-310.5zm-540 0q0-145 21.5-242t64-146T819 113q66 0 108.5 48.5t63 145.5 20.5 243q0 143-20.5 239.5t-62.5 145T819 983t-109-48-62-144.5T628 550z"/><glyph glyph-name="uni044F" unicode="я" horiz-adv-x="844" d="M204 0H35l273 476q-73 17-123 57.5T109.5 636 84 779q0 152 92.5 235.5T434 1098h275V0H557v457H450zm36 777q0-96 52-145t157-49h108v391H452q-105 0-158.5-51T240 777z"/><glyph glyph-name="uni0450" unicode="ѐ" horiz-adv-x="847" d="M436 1116q112 0 184.5-65t108-175T764 631V522H241q2-205 63.5-308T490 111q59 0 116 18t118 58V49Q667 14 605-3T473-20q-137 0-222 73.5t-123.5 201T89 543q0 184 39 312t116.5 194.5T436 1116zm0-126q-87 0-136-84.5T243 645h377q0 93-19.5 171.5t-60 126T436 990zm-95 578q23-48 55.5-104t67.5-108.5 65-91.5v-23h-99q-31 27-69.5 65.5t-77.5 82-72 85.5-54 76v18h184z"/><glyph glyph-name="uni0451" unicode="ё" horiz-adv-x="847" d="M436 1116q112 0 184.5-65t108-175T764 631V522H241q2-205 63.5-308T490 111q59 0 116 18t118 58V49Q667 14 605-3T473-20q-137 0-222 73.5t-123.5 201T89 543q0 184 39 312t116.5 194.5T436 1116zm0-126q-87 0-136-84.5T243 645h377q0 93-19.5 171.5t-60 126T436 990zm-252 377q0 50 24 74t60 24q35 0 58.5-24.5T350 1367q0-51-23.5-76.5T268 1265q-36 0-60 25.5t-24 76.5zm328 0q0 50 24.5 74t59.5 24q36 0 60.5-24.5T681 1367q0-51-24.5-76.5T596 1265q-37 0-60.5 25.5T512 1367z"/><glyph glyph-name="uni0452" unicode="ђ" horiz-adv-x="925" d="M579-492q-25 0-52 5.5T482-474v137q20-7 37.5-11.5T553-353q44 0 66 41.5T641-183v885q0 141-35 202.5T495 966q-67 0-113.5-41t-70-129.5T288 563V0H136v1247H15v121h121v188h154v-188h238v-121H290v-172q0-37-3-72.5t-8-72.5h11q20 53 55 92.5t82 61 101 21.5q92 0 151-42t87.5-124.5T795 733v-915q0-102-25-171t-73-104-118-35z"/><glyph glyph-name="uni0453" unicode="ѓ" horiz-adv-x="642" d="M623 1098V962H288V0H134v1098h489zm75 470v-18q-20-33-53-74.5t-72-85-78-82.5-70-67h-98v23q40 55 74 107t62 101.5 51 95.5h184z"/><glyph glyph-name="uni0454" unicode="є" horiz-adv-x="739" d="M466-20q-125 0-209 64.5t-126 190T89 544q0 183 42 311t127.5 195.5T472 1118q56 0 109-12.5t100-38.5l-47-125q-30 17-72 30t-84 13q-70 0-119-39.5T282.5 827 248 629h292V504H248q4-130 31-217t78-130.5T481 113q49 0 96.5 14.5T672 167V34Q635 9 573-5.5T466-20z"/><glyph glyph-name="uni0455" unicode="ѕ" horiz-adv-x="688" d="M622 290q0-99-36-168.5T481.5 16 315-20q-76 0-139 18T69 41v160q44-36 109-59.5T310 118q77 0 118.5 44T470 285q0 47-17 81.5t-54.5 66T300 499q-68 42-120.5 87T98 689.5 69 832q0 128 83.5 207t220.5 79q69 0 130.5-17.5T620 1048l-58-124q-42 29-89.5 46T375 987q-73 0-115.5-41T217 836q0-46 17-79t56-64 103-70q68-43 119.5-87.5T593 433t29-143z"/><glyph glyph-name="uni0456" unicode="і" horiz-adv-x="424" d="M289 1098V0H136v1098h153zm-74 412q47 0 68.5-30t21.5-83q0-52-23-82t-67-30q-43 0-68 30t-25 82q0 55 24 84t69 29z"/><glyph glyph-name="uni0457" unicode="ї" horiz-adv-x="422" d="M288 0H134v1098h154V0zM-36 1369q0 50 24 74t60 24q35 0 58.5-24.5T130 1369q0-51-23.5-76.5T48 1267q-36 0-60 25.5t-24 76.5zm328 0q0 50 24.5 74t59.5 24q36 0 60.5-24.5T461 1369q0-51-24.5-76.5T376 1267q-37 0-60.5 25.5T292 1369z"/><glyph glyph-name="uni0458" unicode="ј" horiz-adv-x="424" d="M72-492q-28 0-52 5t-44 13v137q17-7 35.5-11.5T46-353q49 0 69 42t20 133v1276h154V-178q0-108-25-177.5T190.5-458 72-492zm50 1889q0 55 24 84t69 29q46 0 68-30t22-83q0-52-23-82t-67-30q-43 0-68 30t-25 82z"/><glyph glyph-name="uni0459" unicode="љ" horiz-adv-x="1243" d="M701 1098V639h117q116 0 195.5-36t120-106 40.5-174q0-105-41-177T1014 37 825 0H551v959H363q-12-247-29-430t-47.5-303-82-179T72-12q-20 0-38 3T-1 1v133q8-4 19.5-6.5T43 125q34 0 60 37t45 112 33.5 191 24 273.5T221 1098h480zm118-583H701V124h115q101 0 151 49t50 143q0 98-48.5 148.5T819 515z"/><glyph glyph-name="uni045A" unicode="њ" horiz-adv-x="1321" d="M780 1098V639h117q117 0 196-36t119.5-106 40.5-174q0-105-41-177T1093.5 37 905 0H630v506H288V0H134v1098h154V639h342v459h150zm116-583H780V124h115q101 0 151 49t50 143q0 98-49.5 148.5T896 515z"/><glyph glyph-name="uni045B" unicode="ћ" horiz-adv-x="925" d="M290 1556v-188h238v-121H290v-172q0-37-3-72.5t-8-72.5h11q20 53 55 92.5t82 61 101 21.5q92 0 151-42t87.5-124.5T795 733V0H641v702q0 141-35 202.5T495 966q-68 0-114.5-41T311 795.5 288 563V0H136v1247H15v121h121v188h154z"/><glyph glyph-name="uni045C" unicode="ќ" horiz-adv-x="787" d="M587 1098h169L440 580 781 0H607L288 570V0H134v1098h154V579zm136 470v-18q-20-33-53-74.5t-72-85-78-82.5-70-67h-98v23q40 55 74 107t62 101.5 51 95.5h184z"/><glyph glyph-name="uni045D" unicode="ѝ" horiz-adv-x="954" d="M285 1098V460q0-30-.5-59t-2-58-3.5-59.5-4-63.5l368 878h176V0H671v619q0 43 .5 86t2.5 86l4 86L308 0H134v1098h151zm77 470q23-48 55.5-104t67.5-108.5 65-91.5v-23h-99q-31 27-69.5 65.5t-77.5 82-72 85.5-54 76v18h184z"/><glyph glyph-name="uni045E" unicode="ў" horiz-adv-x="746" d="M12 1098h159l155-642q9-42 17.5-82t16-79.5T372 215h8q8 58 20 117.5T428 457l151 641h158L411-176q-29-110-68-180t-91.5-103T127-492q-24 0-48 5t-51 12v137q19-7 39.5-11t39.5-4q38 0 65 19.5t48 64.5 41 123L300 8zm654 444q-7-100-42-167.5T527 1273t-152-34q-91 0-153 32t-95.5 99T87 1542h131q9-109 45.5-157t111.5-48q78 0 114.5 50t45.5 155h131z"/><glyph glyph-name="uni045F" unicode="џ" horiz-adv-x="932" d="M391 0H134v1098h154V135h356v963h154V0H541v-380H391V0z"/><glyph glyph-name="uni0460" unicode="Ѡ" horiz-adv-x="1400" d="M347 0q-72 182-127 366.5T126.5 736t-62 367T32 1462h164q5-145 22-300.5T263 846t66.5-316.5T416 227h5q11 54 29 122.5T487 477l131 464q-12 86-21 173t-14 174-6 174h159q2-151 15.5-307T792 841.5 859.5 529 956 225h4q79 198 131.5 406t83 418.5T1217 1462h161q-17-231-59-476t-116-494T1015 0H899q-36 84-68.5 169.5T770 341t-51.5 171T677 681L487 0H347z"/><glyph glyph-name="uni0461" unicode="ѡ" horiz-adv-x="1298" d="M1230 1098q-6-189-42-380t-97-373T949 0H810q-32 75-63.5 162T688 338.5 643 508L450 0H313q-60 131-105 269.5T132.5 549 85 828.5 63 1098h148q3-146 26-311.5t61.5-325T388 173h6q14 39 29.5 82t31.5 84.5 30 75.5l109 273q-19 108-29 208t-15 202h144q5-146 28.5-310T786 464t92-293h6q57 122 101 275t70 320.5 28 331.5h147z"/><glyph glyph-name="uni0462" unicode="Ѣ" horiz-adv-x="958" d="M190 0v1149H8v124h182v283h159v-283h261v-124H349V840h121q138 0 230-44t138.5-135T885 428q0-199-105.5-313.5T475 0H190zm159 141h123q123 0 187.5 72T724 424q0 95-27 155.5t-82.5 90T471 699H349V141z"/><glyph glyph-name="uni0463" unicode="ѣ" horiz-adv-x="862" d="M319 1327v-229h194V979H319V639h117q175 0 265.5-80.5T792 323q0-105-41-177T632 37 442 0H165v979H12v119h153v229h154zm118-812H319V124h115q101 0 151 49t50 143q0 98-48.5 148.5T437 515z"/><glyph glyph-name="uni0464" unicode="Ѥ" horiz-adv-x="1328" d="M994-20q-156 0-258.5 95t-155 256T522 689H310V0H151v1462h159V833h216q9 139 42.5 258t91.5 207.5T803 1436t198 49q76 0 145.5-19.5T1277 1405l-55-135q-53 35-106.5 52.5T1003 1340q-78 0-135-41t-95-112.5-59-162.5-28-191h440V689H683q3-112 23-213.5T766 295t101-125 145-46q62 0 118.5 18t106.5 49V42q-50-30-111-46T994-20z"/><glyph glyph-name="uni0465" unicode="ѥ" horiz-adv-x="1119" d="M846-20q-123 0-203.5 59.5T521 216t-48 288H288V0H134v1098h154V628h186q10 155 55 264.5T654.5 1060t197.5 58q58 0 110.5-12.5t99.5-38.5l-48-125q-30 17-72.5 30T858 985q-71 0-120.5-39.5t-77-118.5T626 629h294V504H626q4-130 31.5-217T736 156.5 859 113q50 0 98.5 14.5T1052 167V34q-37-25-97-39.5T846-20z"/><glyph glyph-name="uni0466" unicode="Ѧ" horiz-adv-x="1035" d="M611 1462 1037 0H870L682 678h-89V0H442v678h-94L164 0H-4l423 1462h192zm-97-144q-3-21-6-41.5t-7.5-40.5-9.5-39-11-37l-94-344h257l-95 346q-5 18-9.5 36.5t-9 38-8.5 40-7 41.5z"/><glyph glyph-name="uni0467" unicode="ѧ" horiz-adv-x="879" d="M532 1098 874 0H721L578 486h-70V0H369v486h-68L160 0H6l345 1098h181zm-86-124h-8q-2-16-5-31t-7-30.5-9-31.5l-77-268h198l-74 264q-5 20-8.5 37t-6 32-3.5 28z"/><glyph glyph-name="uni0468" unicode="Ѩ" horiz-adv-x="1460" d="M1038 1462 1464 0h-167l-188 678h-89V0H870v678h-96L591 0H424l197 692H310V0H151v1462h159V837h356l180 625h192zm-99-144q-3-21-6.5-41.5T925 1236t-9-39-10-37l-94-344h256l-95 346q-5 18-9.5 36.5t-9 38-8.5 40-7 41.5z"/><glyph glyph-name="uni0469" unicode="ѩ" horiz-adv-x="1256" d="M909 1098 1252 0h-154L955 486h-68V0H749v486h-71L538 0H386l159 506H288V0H134v1098h154V639h301l143 459h177zm-88-124h-8q-4-27-10-56t-14-59-19-62l-52-184h198l-53 184q-6 20-15 55.5t-17 70-10 51.5z"/><glyph glyph-name="uni046A" unicode="Ѫ" horiz-adv-x="1119" d="M994 1462v-105L705 833q87-9 142.5-54t91-124.5T1000 460L1111 0H940l-98 448q-19 94-42.5 149.5t-62 81T635 707V0H481v707q-66-2-103-28t-59-82-43-149L178 0H8l111 460q20 89 43 155.5t55.5 112 79.5 72T412 833l-288 524v105h870zm-191-136H317l242-474z"/><glyph glyph-name="uni046B" unicode="ѫ" horiz-adv-x="1024" d="M893 1098v-90L648 632q82-11 131-49.5t79-102T913 332l97-332H852l-88 346q-19 66-40 103.5T670 502t-88 15V0H441v515q-55 0-88-16t-52.5-52.5T264 348L172 0H14l96 332q24 87 54 150.5T243.5 584 375 632l-248 376v90h766zM718 977H304l207-325z"/><glyph glyph-name="uni046C" unicode="Ѭ" horiz-adv-x="1561" d="M1438 1462v-105l-288-539q92-9 147.5-57.5t89-129T1446 445L1555 0h-168l-99 434q-20 92-43.5 148t-62 81.5T1080 691V0H928v691q-61-2-98.5-24T768 590t-48-156L623 0H457l104 429q22 87 48.5 153.5T670 692H310V0H151v1462h159V837h537l-277 520-1 105h869zm-192-136H760l242-486z"/><glyph glyph-name="uni046D" unicode="ѭ" horiz-adv-x="1421" d="M1292 1098v-90l-247-390q81-10 130.5-46.5t80.5-98 55-146.5l98-327h-158l-92 340q-18 64-38.5 99.5t-52.5 50-88 14.5V0H840v503q-56 0-88-16t-50.5-51.5T665 340L570 0H415l97 332q18 59 37 103t41 71H288V0H134v1098h154V639h473l-237 369v90h768zm-178-121H702l207-334z"/><glyph glyph-name="uni046E" unicode="Ѯ" horiz-adv-x="868" d="M600 1744q20 0 35.5-3t30.5-9v-108q-8 5-19 7.5t-22 2.5q-38 0-70-48t-64-115q115-28 177-118.5t62-225.5q0-141-65-236T478 765v-8q140-17 209.5-109T757 404q0-99-27.5-174T651 104.5 530 27 375-4q-55-3-92-17.5T228-63t-18-68q0-62 37.5-95.5T358-260q35 0 65 3.5t58 7 56 3.5q33 0 62-5t52-15v-140q-20 11-49.5 16.5T537-384q-33 0-63.5-3.5t-63-7T338-398q-96 0-160 33t-96 93-32 142q0 89 34 147.5t98 89T336 140q131 8 194.5 71.5T594 411q0 143-74 210t-230 67H184v144h106q92 1 154 31t93 91.5 31 155.5q0 114-53.5 171T362 1338q-64 0-117-25.5t-91-67.5l-79 115q47 46 100 73.5t114 40.5q-15 30-41.5 76.5t-56 93.5-53.5 76v21h105q35-37 71-88.5t79-116.5q28 56 59.5 103t68 76 79.5 29z"/><glyph glyph-name="uni046F" unicode="ѯ" horiz-adv-x="710" d="M511 1353q17 0 33.5-3t31.5-11v-103q-9 5-19.5 7.5T535 1246q-31 0-63-35.5T405 1102q91-25 139-94t48-171q0-89-42-153.5T438 590v-8q64-20 106-58t62.5-90.5T627 314q0-97-34.5-166T489 40.5 318-6q-49-4-79.5-17t-45-36.5T179-119q0-52 28.5-78t89.5-26q29 0 54.5 3t51 5.5T456-212q29 0 54-4.5t44-12.5v-139q-16 10-42.5 15.5T456-347q-24 0-53.5-2.5T343-355t-58-3q-81 0-137.5 27.5t-86 81T32-119 62.5 11 150 93.5 285 128q67 6 108 29t59.5 65T471 326q0 59-23 101.5t-65.5 65T281 515h-78v124h64q77 0 125 49t48 137q0 82-40 122.5T285 988q-47 0-88.5-12.5T117 937l-58 116q29 19 60.5 32t67.5 20q-17 38-39.5 76.5t-47.5 76-52 72.5v21h105q33-37 70-88t80-116q29 58 60.5 104.5t68 74T511 1353z"/><glyph glyph-name="uni0470" unicode="Ѱ" horiz-adv-x="1279" d="M1149 1462V993q0-135-23-238t-73.5-173.5-133-106.5T718 439V0H563v439q-118 0-200.5 35t-133 104-74 171T132 985v477h159V984q0-118 20.5-209t79-142T563 581v881h155V581q101 2 160.5 41.5T964 750t26 234v478h159z"/><glyph glyph-name="uni0471" unicode="ѱ" horiz-adv-x="1114" d="M638 1556V119q80 7 129.5 60t72 155.5T862 591q0 127-15.5 252T798 1098h152q35-141 51-263.5t16-247.5q0-191-42-323.5t-126-203T638-17v-473H489v473q-120 3-201.5 63T165 223t-41 291v584h154V522q0-127 21.5-214.5t68-134.5T489 119v1437h149z"/><glyph glyph-name="uni0472" unicode="Ѳ" horiz-adv-x="1129" d="M1027 733q0-157-25-293.5t-80-240T778.5 38 564-20q-127 0-215 59.5T206.5 203t-79 241T103 735q0 250 52.5 416T311 1400t255 83q166 0 267.5-99.5T981 1114t46-381zM566 124q94 0 158.5 62.5T824 372t39 306H268q3-178 38-301.5t100.5-188T566 124zm0 1216q-92 0-156.5-58.5t-100-175T268 816h593q-9 260-82.5 392T566 1340z"/><glyph glyph-name="uni0473" unicode="ѳ" horiz-adv-x="917" d="M830 550q0-183-43.5-310.5T659.5 46 456-20q-116 0-199 66.5t-126.5 194T87 550q0 281 95.5 424.5T459 1118q129 0 211-76t121-204.5T830 550zM458 113q69 0 116 43.5t72 131T674 506H242q2-125 26-213t71-134 119-46zm0 870q-103 0-155-90t-61-266h431q-5 111-29.5 191T573 940.5 458 983z"/><glyph glyph-name="uni0474" unicode="Ѵ" horiz-adv-x="971" d="M938 1334q-36 0-59.5-26t-40.5-75-35-117L535 0H350L0 1462h166l219-954q14-55 24.5-111t19-110T444 180q5 33 10.5 70t12.5 74.5 13.5 72.5 12.5 63l160 686q30 127 61.5 198t76 101 112.5 32q28 0 52-5t43-15v-137q-16 6-31 10t-29 4z"/><glyph glyph-name="uni0475" unicode="ѵ" horiz-adv-x="812" d="M743 1113q29 0 51-4.5t39-12.5V969q-15 8-30.5 11t-29.5 3q-31-2-50.5-19.5t-35-60.5T651 780L453 0H283L8 1098h157l151-662q14-62 26-126t22-133h8q7 55 19.5 120.5T421 436l82 353q31 126 61.5 196t72.5 99 106 29z"/><glyph glyph-name="uni0476" unicode="Ѷ" horiz-adv-x="971" d="M938 1334q-36 0-59.5-26t-40.5-75-35-117L535 0H350L0 1462h166l219-954q14-55 24.5-111t19-110T444 180q5 33 10.5 70t12.5 74.5 13.5 72.5 12.5 63l160 686q30 127 61.5 198t76 101 112.5 32q28 0 52-5t43-15v-137q-16 6-31 10t-29 4zm-408 573q16-39 45-95.5t61.5-113T694 1602v-23h-73q-30 25-67 64.5t-73.5 84-65.5 87-44 73.5v19h159zm-289 0q24-54 50.5-108t54.5-104 56-93v-23h-78q-29 26-64.5 65t-70.5 83-64.5 86.5T78 1888v19h163z"/><glyph glyph-name="uni0477" unicode="ѷ" horiz-adv-x="812" d="M743 1113q29 0 51-4.5t39-12.5V969q-15 8-30.5 11t-29.5 3q-31-2-50.5-19.5t-35-60.5T651 780L453 0H283L8 1098h157l151-662q14-62 26-126t22-133h8q7 55 19.5 120.5T421 436l82 353q31 126 61.5 196t72.5 99 106 29zm-285 456q16-39 45-95.5t61.5-113T622 1264v-23h-73q-30 25-67 64.5t-73.5 84-65.5 87-44 73.5v19h159zm-289 0q24-54 50.5-108t54.5-104 56-93v-23h-78q-29 26-64.5 65t-70.5 83-64.5 86.5T6 1550v19h163z"/><glyph glyph-name="uni0478" unicode="Ѹ" horiz-adv-x="1863" d="M1016 733q0-157-25-293.5t-78.5-240T772 38 561-20q-126 0-214 59.5T205.5 203t-78 241T103 735q0 250 51.5 416T308 1400t253 83q164 0 264-99.5T970.5 1114t45.5-381zm-748 0q0-199 33.5-334.5T400 194t159-69q96 0 160 67.5t96.5 203T848 733q0 201-32 335.5t-95.5 202T561 1338q-98 0-163-68.5t-97.5-203T268 733zm864 365h159l154-642q10-42 18-82t15-79.5 13-79.5h7q9 58 21 117.5t28 124.5l151 641h157L1530-176q-29-110-68-180t-92-103-125-33q-23 0-47.5 5t-50.5 12v137q20-7 40-11t39-4q39 0 66 19.5t48 64.5 41 123l38 154z"/><glyph glyph-name="uni0479" unicode="ѹ" horiz-adv-x="1645" d="M815 550q0-130-22-235t-67-180T612 20 449-20q-90 0-158 40T178 134.5t-68 180T87 550q0 182 39 308.5t120 193 206 66.5q117 0 198-64.5t123-191T815 550zm-571 0q0-143 22-240t68.5-146T453 115q71 0 116.5 48T637 307.5 659 550q0 143-22 239.5t-67.5 145T452 983q-110 0-159-108.5T244 550zm671 548h159l155-642q9-42 17.5-82t16-79.5T1275 215h8q8 58 20 117.5t28 124.5l151 641h158L1314-176q-29-110-68-180t-91.5-103-124.5-33q-24 0-48 5t-51 12v137q19-7 39.5-11t39.5-4q38 0 65 19.5t48 64.5 41 123l39 154z"/><glyph glyph-name="uni047A" unicode="Ѻ" horiz-adv-x="1192" d="M599-107q-36 0-62 23t-34 74Q404 7 329 65T204 218.5 128.5 444 103 735q0 225 45 382t133.5 246.5T501 1475q10 49 35.5 71.5T599 1569q35 0 60-22.5t35-71.5q131-23 219-116.5t133-251 45-374.5q0-160-25.5-289.5t-75.5-225-124.5-154T692-11q-10-50-34-73t-59-23zm-94 252q11 45 34.5 67.5T597 235q33 0 57-23.5t34-70.5q79 26 132.5 101T901 440t27 293q0 254-60.5 403.5T688 1322q-9-49-32.5-71.5T597 1228q-34 0-59 22.5t-35 69.5q-78-26-131-102.5T292.5 1019 266 733q0-165 26.5-288t80-199T505 145z"/><glyph glyph-name="uni047B" unicode="ѻ" horiz-adv-x="974" d="M890 550q0-161-36.5-279.5T747 81 576-11q-10-47-31-69t-54-22q-35 0-58 22t-31 68Q301 8 230.5 80t-107 191.5T87 551q0 247 80 388t235 169q8 48 31 68t58 20q32 0 53.5-21t31.5-69q103-21 172.5-93T854 824t36-274zm-152 0q0 118-17.5 201.5t-53.5 135-92 73.5q-7-46-29-69t-55-23q-35 0-57.5 22T403 958q-85-31-123.5-134T239 550q0-172 41.5-277.5T403 135q6 45 30 68t57 23q34 0 55-23t31-68q83 34 122.5 138T738 550z"/><glyph glyph-name="uni047C" unicode="Ѽ" horiz-adv-x="1481" d="M472 1903v26q1 54 13 94t35 66 56.5 38.5T653 2140q56 0 103-18t91.5-42 93.5-42.5 109-19.5h15v-115h-12q-61 0-115.5 17.5t-102 41-88 41T672 2020q-49 0-68.5-29t-19.5-88H472zm173-363v69q58 15 84.5 38.5T756 1700q0 25-14 36.5t-33 19-33 21-14 43.5q0 37 23 58.5t63 21.5q50 0 80.5-38.5T859 1758q0-58-22.5-101t-70-72-121.5-45zM497-20q-120-1-208.5 93t-137 267T103 746q0 146 21.5 278.5T192 1260t120 163 178 60q53 0 105-19t97-55l-61-125q-29 27-62 40.5t-68 13.5q-66 0-111.5-51.5T317 1149t-39-192.5T266 739q0-189 32.5-327.5T388 198t128-75q41 0 78 17.5t71 47.5v467h154V190q33-31 69.5-49t79.5-18q74 0 130.5 75t88 213 30.5 327q0 114-12 221t-39.5 192.5-72.5 136-110 50.5q-36 0-68.5-13.5T854 1284l-61 125q44 36 96 55t107 19q104 0 177-60.5t119-165 67-236.5 21-275q0-176-28-317.5T1271.5 186 1145 32 979-20q-77 0-134.5 26.5T743 89Q694 33 632.5 6.5T497-20z"/><glyph glyph-name="uni047D" unicode="ѽ" horiz-adv-x="1210" d="M615 1579q52 0 80.5-38t28.5-101q0-59-23.5-102.5T629 1265t-123-43v66q59 16 88 39t29 54q0 25-14.5 36t-33 19-33 21.5T528 1501q0 35 23.5 56.5T615 1579zm-99 242q59 0 107-18.5t93-43.5 93-43.5 106-18.5h15v-113h-23q-47 0-99.5 17.5t-103 40.5-94 40.5T537 1700q-46 0-67-27.5t-21-88.5H337v24q1 51 11.5 90.5t32.5 67 55.5 41.5 79.5 14zM389-20q-85 0-143 46t-93 126-50.5 182.5T87 550q0 184 34.5 310.5t104 192T399 1118q42 0 82.5-11.5T559 1073l-45-122q-21 15-45.5 23.5T419 983q-88 0-131.5-106.5T244 553q0-83 8.5-161.5t28-141.5 51-100 77.5-37q32 0 61.5 14.5T529 170v422h152V170q20-19 39-31.5t38.5-19T798 113q53 0 90.5 50.5t57.5 148T966 550q0 220-44.5 326.5T789 983q-25 0-48.5-8.5T694 951l-45 122q39 22 79 33.5t81 11.5q104 0 174-65t105-192 35-313q0-184-34.5-311t-102-192T818-20q-64 0-116.5 24.5T605 77q-44-49-98.5-73T389-20z"/><glyph glyph-name="uni047E" unicode="Ѿ" horiz-adv-x="1400" d="M347 0q-72 182-127 366.5T126.5 736t-62 367T32 1462h164q5-145 22-300.5T263 846t66.5-316.5T416 227h5q11 54 29 122.5T487 477l131 464q-12 86-21 173t-14 174-6 174h159q2-151 15.5-307T792 841.5 859.5 529 956 225h4q79 198 131.5 406t83 418.5T1217 1462h161q-17-231-59-476t-116-494T1015 0H899q-36 84-68.5 169.5T770 341t-51.5 171T677 681L487 0H347zm662 1788v-51l-63-142h-28l-41 99H738l-40-99h-28l-42 99H491l-41-99h-29l-62 142v51h650z"/><glyph glyph-name="uni047F" unicode="ѿ" horiz-adv-x="1298" d="M1230 1098q-6-189-42-380t-97-373T949 0H810q-32 75-63.5 162T688 338.5 643 508L450 0H313q-60 131-105 269.5T132.5 549 85 828.5 63 1098h148q3-146 26-311.5t61.5-325T388 173h6q14 39 29.5 82t31.5 84.5 30 75.5l109 273q-19 108-29 208t-15 202h144q5-146 28.5-310T786 464t92-293h6q57 122 101 275t70 320.5 28 331.5h147zm-284 332v-51l-63-142h-28l-41 99H675l-40-99h-28l-42 99H428l-41-99h-29l-62 142v51h650z"/><glyph glyph-name="uni0480" unicode="Ҁ" horiz-adv-x="898" d="M580 1485q74 0 139-18.5t124-53.5l-54-135q-38 26-90.5 44T587 1340q-85 0-145-49.5T344 1155t-56-195-18-229q0-180 37.5-317t113-213.5T610 124q38 0 75.5 9.5T765 161v-641H608v460q-109 1-192.5 35.5t-142.5 99-97 157T120.5 480 103 733q0 153 29 289t87.5 240T368 1425.5t212 59.5z"/><glyph glyph-name="uni0481" unicode="ҁ" horiz-adv-x="709" d="M458 1118q56 0 105.5-13t91.5-37l-46-127q-32 18-70.5 29T465 981q-71 0-120-49t-74-146.5T246 542q0-157 26.5-250.5t79.5-135T484 115q34 0 67 8t63 25v-618H463v450q-106 2-178 39.5T170 129t-62 175.5T89 541q0 186 42.5 315T256 1051.5t202 66.5z"/><glyph glyph-name="uni0482" unicode="҂" horiz-adv-x="963" d="m646 1289 124-46-110-302 243-86-49-119-237 88-141-403 240-87-44-117-242 88L322-3 196 45l109 307-241 87 46 119 240-89 143 402-243 90 46 118 242-89z"/><glyph glyph-name="uni0483" unicode="҃" d="M-637 1262q-1-45-21.5-65t-52.5-20q-31 0-53.5 26t-22.5 74q0 50 22 74t67 24h284q2 43 23.5 64t52.5 21q32 0 54-25t22-75q0-32-9.5-54t-29-33-49.5-11h-287z"/><glyph glyph-name="uni0484" unicode="҄" d="M-436 1487q46 0 81-12.5t59-38.5 36.5-65.5 13.5-93.5v-26h-114q0 61-21 89t-68 28q-40 0-80.5-17.5T-614 1310t-96.5-41-118.5-18h-11v115h10q59 1 106 19.5t90.5 42 91 41.5 106.5 18z"/><glyph glyph-name="uni0485" unicode="҅" d="M-651 1460q0 65 29.5 104t81.5 39q38 0 61-22t23-59q0-28-14-41.5t-33-21.5-33-19.5-14-35.5q0-32 29-57t92-41v-67q-74 15-123.5 44t-74 73-24.5 104z"/><glyph glyph-name="uni0486" unicode="҆" d="M-431 1460q0-60-24-104t-73.5-73-124.5-44v67q63 16 92 41t29 57q0 25-14.5 36.5t-33 19-33 21-14.5 41.5q0 37 23 59t63 22q51 0 80.5-39t29.5-104z"/><glyph glyph-name="uni0488" unicode="҈" horiz-adv-x="1900" d="M1265 943q5 91 56.5 142.5T1473 1137q96 0 153.5-50.5T1689 943h-82q-6 52-40.5 75.5T1473 1042q-60 0-92.5-22.5T1343 943h-78zM204-41q5 91 58 142.5T415 153q95 0 151-50t62-144h-81q-6 51-41 75.5T415 59q-61 0-94-23t-38-77h-79zm525-278q6 89 57.5 141T938-126q96 0 153.5-50.5T1153-319h-82q-5 52-39.5 76T938-219t-92-23.5-38-76.5h-79zM39 457q5 92 57.5 143T250 651q95 0 152-51t61-143h-82q-4 48-36.5 74T250 557q-61 0-94-23t-38-77H39zm163 486q5 89 57 140.5t152 51.5q96 0 153.5-50T626 943h-82q-5 51-39.5 75t-93.5 24-92-23-38-76h-79zM1265-41q5 91 56.5 142.5T1473 153q96 0 153.5-50T1689-41h-82q-6 53-40.5 76.5T1473 59q-60 0-92.5-23T1343-41h-78zm175 497q6 95 60 144t151 49q95 0 150.5-50.5T1864 456h-80q-7 52-41.5 75.5T1651 555q-61 0-94-23t-39-76h-78zm-711 771q6 95 60 144t151 49q95 0 151-49.5t62-143.5h-80q-7 52-41.5 76t-91.5 24q-61 0-94-23.5t-38-76.5h-79z"/><glyph glyph-name="uni0489" unicode="҉" horiz-adv-x="1919" d="m1620 1190 66-68q-100-61-174.5-110T1389 926l-96 95 4 18q43 26 95.5 52.5t111 52T1620 1190zM531 147l97-96-4-16q-40-23-99.5-52.5T405-74t-103-44l-70 68Q336 14 410 63t121 84zM39 660q114-26 201.5-43.5T389 590V454l-14-9q-85 22-168 52T39 565v95zM1058-35l10-14q-20-80-50.5-163.5T946-385h-96q28 114 45 201.5T921-35h137zm375 225 18-3q24-42 50.5-94.5T1554-18t47-117l-67-68q-60 99-109.5 173.5T1337 96zM386 1277q65-106 114.5-181.5T583 978l-97-95-18 4q-40 68-78 147.5T317 1209zm1158-616q44-11 109-33.5t127.5-46.5 99.5-41v-96q-113 26-200.5 44T1530 516v134zm-475 830q-28-113-45-200.5T997 1141H862l-10 14q13 52 31.5 109t41.5 114.5 48 112.5h96z"/><glyph glyph-name="uni048A" unicode="Ҋ" horiz-adv-x="1190" d="M845-391 971 0H853v921q0 42 1.5 88.5t4.5 97 8 104.5h-8L346 0H151v1462h155V562q0-37-1-79.5t-3-95-6-122.5h8l507 1197h198V150h134l-124-541H845zM577 1577q-91 0-152.5 32t-95 99-41.5 172h128q7-104 44-150.5t117-46.5q77 0 114.5 47.5T739 1880h128q-7-100-41.5-167.5T729 1611t-152-34z"/><glyph glyph-name="uni048B" unicode="ҋ" horiz-adv-x="980" d="M672-380 785 0H671v617q0 43 .5 85.5T674 788l4 86L308 0H134v1098h151V461q0-40-1.5-79t-3.5-79.5-5-83.5l368 879h176V137h127L828-380H672zM478 1239q-90 0-152 32t-95.5 99-40.5 172h128q9-103 45-150t115-47q78 0 116.5 47.5T641 1542h127q-7-100-41.5-167.5T630 1273t-152-34z"/><glyph glyph-name="uni048C" unicode="Ҍ" horiz-adv-x="915" d="M309 1462v-215h249v-124H309V840h121q138 0 230.5-44.5T799 660t46-232q0-202-108-315T435 0H149v1123H0v124h149v215h160zm122-763H309V141h123q122 0 187 72t65 211q0 95-27 155.5t-82.5 90T431 699z"/><glyph glyph-name="uni048D" unicode="ҍ" horiz-adv-x="833" d="M289 1556v-244h186v-119H289V639h118q116 0 195-36t119.5-106T762 323q0-105-41-177T602 37 413 0H135v1193H8v119h127v244h154zM408 515H289V124h118q99 0 149 49t50 143q0 98-48.5 148.5T408 515z"/><glyph glyph-name="uni048E" unicode="Ҏ" horiz-adv-x="920" d="M856 1034q0-146-44.5-246T673 634l102-167-94-52-111 182q-33-11-71-16.5t-83-5.5H310V0H151v1462h276q220 0 324.5-104T856 1034zM310 713h78q36 0 66.5 2t52.5 9L403 898l94 50 110-178q45 40 66.5 104t21.5 158q0 157-67.5 224.5T418 1324H310V713z"/><glyph glyph-name="uni048F" unicode="ҏ" horiz-adv-x="958" d="M530-18q-54 0-101 22t-82.5 61.5T288 155h-7q4-40 6.5-77T290 8v-498H134v1588h125l19-161h9q28 59 65.5 99t84 61 101.5 21q163 0 248-143.5T871 551q0-198-45-327.5T700 30l69-159-99-41L600-6q-13-6-31.5-9T530-18zM507 983q-74 0-122.5-43.5T312 808t-24-222v-53q0-138 23.5-229T381 166.5 494 116q17 0 30.5 2t25.5 6L447 365l101 41 94-221q35 55 53.5 145.5T714 549q0 224-49 329T507 983z"/><glyph glyph-name="uni0490" unicode="Ґ" horiz-adv-x="749" d="M708 1766v-448H310V0H151v1462h403v304h154z"/><glyph glyph-name="uni0491" unicode="ґ" horiz-adv-x="641" d="M601 1414V962H288V0H134v1098h320v316h147z"/><glyph glyph-name="uni0492" unicode="Ғ" horiz-adv-x="740" d="M722 1462v-142H311V797h233V658H311V0H152v658H27v139h125v665h570z"/><glyph glyph-name="uni0493" unicode="ғ" horiz-adv-x="643" d="M623 1098V962H287V610h180V480H287V0H135v480H8v130h127v488h488z"/><glyph glyph-name="uni0494" unicode="Ҕ" horiz-adv-x="970" d="M437 662q-33 0-64.5-5T310 643V0H151v1462h570v-142H310V782q35 11 72.5 17t74.5 6q109 0 189.5-50.5t133.5-140T859 408t26-251q0-138-23-258t-71-211-123-142-179-51q-51 0-101.5 12T300-459v149q44-25 84.5-37.5T465-360q71 0 119.5 43T663-200.5t43.5 166T720 157q0 141-28.5 255.5t-91 182T437 662z"/><glyph glyph-name="uni0495" unicode="ҕ" horiz-adv-x="852" d="M623 1098V962H288V610q32 14 60.5 19t55.5 5q123 0 207.5-66T739 376t43-308q0-181-37-308T636.5-433.5 459-500q-55 0-101 14.5T274-443v141q39-30 78-45t80-15q98 0 146.5 109T627 62q0 212-59 324T390 498q-28 0-53.5-5.5T288 477V0H134v1098h489z"/><glyph glyph-name="uni0496" unicode="Җ" horiz-adv-x="1317" d="M1246 1462 862 757l322-612h112v-536h-155V0h-62L702 749V0H547v749L169 0H-5l391 757L1 1462h173l373-704v704h155V758l374 704h170z"/><glyph glyph-name="uni0497" unicode="җ" horiz-adv-x="1161" d="M1090 1098 789 579l252-444h103v-515H994V0h-52L638 569V0H486v569L182 0H8l328 579-301 519h167l284-521v521h152V577l285 521h167z"/><glyph glyph-name="uni0498" unicode="Ҙ" horiz-adv-x="873" d="M728 1127q0-141-65.5-236T475 765v-8q138-17 209-110t71-250q0-128-46-221.5T571.5 31 343-20q-79 0-152.5 15T55 40v160q36-23 82.5-40.5t96-26.5 94.5-9q134 0 198 68t64 212q0 146-73.5 215T289 688H182v144h107q92 0 154 30.5t93 92 31 155.5q0 114-54 171t-152 57q-64 0-117.5-25.5T152 1245l-79 115q44 43 91.5 70t102 40 119.5 13q109 0 185-44t116.5-124 40.5-188zM371-246q0 60-27.5 117T247 0h108q65-52 105.5-124T501-270q0-91-46.5-139T316-457q-28 0-52.5 3.5T219-440v108q11-5 28-8t38-3q44 0 65 24t21 73z"/><glyph glyph-name="uni0499" unicode="ҙ" horiz-adv-x="707" d="M308 1118q89 0 152.5-33.5t97-96T591 838t-43-156-109-92v-8q58-17 99.5-54.5t63.5-93T624 307q0-97-38-170.5t-109.5-115T304-20q-51 0-95.5 8t-83 24T53 53v146q48-37 107.5-61.5T290 113q58 0 97.5 23.5T448 205t21 111q0 60-22 104.5T381.5 490 271 515h-65v124h62q78 0 124 49t46 139q0 80-39 120.5T292 988q-40 0-82.5-13T125 935l-60 116q60 35 119.5 51t123.5 16zm13-1364q0 60-27.5 117T197 0h108q65-52 105.5-124T451-270q0-91-46.5-139T266-457q-28 0-52.5 3.5T169-440v108q11-5 28-8t38-3q44 0 65 24t21 73z"/><glyph glyph-name="uni049A" unicode="Қ" horiz-adv-x="955" d="M871 1462 473 765l350-620h109v-536H779V0h-64L310 757V0H151v1462h159V770l388 692h173z"/><glyph glyph-name="uni049B" unicode="қ" horiz-adv-x="824" d="M658-380V0h-52L288 570V0H134v1098h154V579l299 519h169L440 580l262-445h105v-515H658z"/><glyph glyph-name="uni049C" unicode="Ҝ" horiz-adv-x="889" d="M494 201h-91v1109h91V201zM894 0H715L310 753V0H151v1462h159V763l388 699h173L470 761z"/><glyph glyph-name="uni049D" unicode="ҝ" horiz-adv-x="787" d="M461 1046V78h-84v968h84zm126 52h169L440 580 781 0H607L288 570V0H134v1098h154V579z"/><glyph glyph-name="uni049E" unicode="Ҟ" horiz-adv-x="889" d="M23 1164v128h454v-128H23zM894 0H715L310 753V0H151v1462h159V763l388 699h173L470 761z"/><glyph glyph-name="uni049F" unicode="ҟ" horiz-adv-x="787" d="M287 1556v-184h251v-120H287V579l300 519h167L441 580 779 0H606L287 570V0H135v1252H19v120h116v184h152z"/><glyph glyph-name="uni04A0" unicode="Ҡ" horiz-adv-x="1034" d="M1015 1462 612 761 1039 0H857L454 753V0H295v1318H19v144h435V763l388 699h173z"/><glyph glyph-name="uni04A1" unicode="ҡ" horiz-adv-x="877" d="M842 1098 528 580 868 0H696L376 570V0H222v964H20v134h356V579l299 519h167z"/><glyph glyph-name="uni04A2" unicode="Ң" horiz-adv-x="1111" d="M908-391V0H773v692H310V0H151v1462h159V837h463v625h159V145h130v-536H908z"/><glyph glyph-name="uni04A3" unicode="ң" horiz-adv-x="952" d="M764-380V0H644v504H288V0H134v1098h154V637h356v461h154V135h117v-515H764z"/><glyph glyph-name="uni04A4" unicode="Ҥ" horiz-adv-x="1227" d="M151 0v1462h159V837h463v625h435v-144H932V0H773v692H310V0H151z"/><glyph glyph-name="uni04A5" unicode="ҥ" horiz-adv-x="1019" d="M134 0v1098h154V637h356v461h356V964H798V0H644v504H288V0H134z"/><glyph glyph-name="uni04A6" unicode="Ҧ" horiz-adv-x="1540" d="M884 1462V782q36 11 72 17t72 6q111 0 191.5-51.5t132.5-141 77.5-206.5 25.5-249q0-138-23-258t-71-211-122.5-142-178.5-51q-51 0-100.5 12T872-459v149q43-25 84.5-37.5T1039-360q70 0 118 43t77.5 116.5 43 166.5 13.5 192q0 105-16 196.5T1225.5 515 1138 623t-131 39q-30 0-61-4.5T884 644V0H725v1318H310V0H151v1462h733z"/><glyph glyph-name="uni04A7" unicode="ҧ" horiz-adv-x="1346" d="M785 1098V612q30 12 58.5 17t53.5 5q123 0 207.5-66T1232 376t43-308q0-181-36.5-308t-108-193.5T954-500q-55 0-102.5 14.5T766-443v141q40-30 80-45t81-15q95 0 144 109t49 315q0 212-59 324T886 498q-28 0-53.5-5.5T785 478V0H631v962H288V0H134v1098h651z"/><glyph glyph-name="uni04A8" unicode="Ҩ" horiz-adv-x="1214" d="M1115 682q0-105-22.5-211.5t-69-199.5T903 110q29-27 66.5-41.5T1043 54q27 0 54 5.5t53 15.5V-60q-14-6-34.5-11t-44-8-48.5-3q-71 0-135 26.5T770 21Q735 4 681-8T580-20q-123 0-211 58.5t-145 161-84 237T113 723q0 236 55 407t158 264 245 91q55 0 108-11.5t91-31.5l-45-135q-30 16-66 24.5t-77 8.5q-82 0-140.5-51t-95-138T293 953.5 276 724q-1-187 37.5-322T420 194.5 576 124q29 0 56 5t50 15q-50 67-82.5 156T552 486.5 537 676q0 99 16.5 188t51 158 89 109 131.5 40q95 0 159.5-58t97.5-167.5 33-263.5zm-151-2q0 114-15.5 192.5t-45.5 119-76 40.5q-39 0-66-31.5T718 917t-23.5-115-7.5-127q0-92 13.5-176.5t41-158T809 206q56 53 90 130t49.5 166.5T964 680z"/><glyph glyph-name="uni04A9" unicode="ҩ" horiz-adv-x="1036" d="M466 1118q37 0 70-7t64-20l-32-130q-25 11-50.5 16.5T470 983q-110 0-169.5-115.5T241 544q0-115 26-213.5t79.5-158T483 113q28 0 51 5.5t39 14.5q-57 69-85 162.5T460 503q0 115 28 197.5t82 127T702 872t131.5-44T914 702.5 941 507q0-115-37.5-218T783 106q16-15 47-25.5T892 70q26 0 49.5 4T984 85V-38q-22-8-49.5-12.5T875-55q-61 0-114.5 19.5T660 21Q621 1 573.5-9.5T470-20q-131 0-216 74T128 256 87 545q0 122 22 226t68 182 118 121.5 171 43.5zm235-372q-35 0-60-29.5T603.5 632 591 498q0-103 25.5-181T685 182q56 46 87.5 130T804 504q0 75-10.5 129.5t-33 83.5-59.5 29z"/><glyph glyph-name="uni04AA" unicode="Ҫ" horiz-adv-x="906" d="M596 1340q-87 0-149.5-49t-102-134.5-58-195T268 731q0-188 41.5-324T427 197.5 606 124q62 0 117 16t101 39V35Q776 7 717-6.5T588-20q-149 0-258 90T162 328.5 103 733q0 155 29.5 291t90 240T375 1426.5t216 58.5q72 0 138.5-18.5T857 1413l-57-135q-46 29-97 45.5T596 1340zm-4-1586q0 60-27.5 117T468 0h108q65-52 105.5-124T722-270q0-91-46.5-139T537-457q-28 0-52.5 3.5T440-440v108q11-5 28-8t38-3q44 0 65 24t21 73z"/><glyph glyph-name="uni04AB" unicode="ҫ" horiz-adv-x="703" d="M451-20q-121 0-201.5 63T129 231 89 541q0 181 40.5 310T252 1049t205 69q62 0 111.5-13t92.5-37l-49-127q-37 20-73.5 30T467 981q-72 0-121-49.5T271.5 785 246 543q0-141 24.5-236t74-143.5T468 115q44 0 89.5 12.5T649 164V34Q607 8 551.5-6T451-20zm-9-218q0 60-27.5 117T318 8h108q65-52 105.5-124T572-262q0-91-46.5-139T387-449q-28 0-52.5 3.5T290-432v108q11-5 28-8t38-3q44 0 65 24t21 73z"/><glyph glyph-name="uni04AC" unicode="Ҭ" horiz-adv-x="770" d="M437-391V0H304v1318H19v144h730v-144H463V145h128v-536H437z"/><glyph glyph-name="uni04AD" unicode="ҭ" horiz-adv-x="614" d="M594 1098V964H384V135h116v-515H350V0H232v964H20v134h574z"/><glyph glyph-name="uni04AE" unicode="Ү" horiz-adv-x="786" d="m394 760 225 702h167L472 569V0H313v565L0 1462h166z"/><glyph glyph-name="uni04AF" unicode="ү" horiz-adv-x="740" d="M442-490H290V0L8 1098h158l146-640q23-91 35-154t17-102h8q5 49 17 106.5T417 436l158 662h157L442 0v-490z"/><glyph glyph-name="uni04B0" unicode="Ұ" horiz-adv-x="786" d="M313 0v368H119v139h194v58L0 1462h170l224-699 221 699h171L472 569v-62h193V368H472V0H313z"/><glyph glyph-name="uni04B1" unicode="ұ" horiz-adv-x="740" d="M732 1098 442 0h182v-126H442v-364H290v364H107V0h183L8 1098h158l146-640q23-91 35-154t17-102h8q5 49 17 106.5T417 436l158 662h157z"/><glyph glyph-name="uni04B2" unicode="Ҳ" horiz-adv-x="877" d="M704-391V0h-75L420 610 182 0H15l318 764-280 698h168l201-557 197 557h170L513 753l227-608h119v-536H704z"/><glyph glyph-name="uni04B3" unicode="ҳ" horiz-adv-x="791" d="M623-380V0h-56L382 437 193 0H30l263 566-247 532h169l169-410 173 410h165L473 558l197-423h103v-515H623z"/><glyph glyph-name="uni04B4" unicode="Ҵ" horiz-adv-x="1263" d="M1061-391V0H301v1318H19v144h719v-144H460V145h466v1317h159V145h130v-536h-154z"/><glyph glyph-name="uni04B5" unicode="ҵ" horiz-adv-x="1067" d="M875-380V0H226v964H20v134h554V964H378V135h378v963h154V135h115v-515H875z"/><glyph glyph-name="uni04B6" unicode="Ҷ" horiz-adv-x="1071" d="M892 1462V145h129v-536H866V0H731v603q-85-45-163-68t-152-23q-144 0-218 94.5T124 883v579h159V910q0-129 43-191t133-62q71 0 134.5 19.5T731 736v726h161z"/><glyph glyph-name="uni04B7" unicode="ҷ" horiz-adv-x="935" d="M781 1098V135h116v-515H746V0H629v475q-57-55-127.5-84T357 362q-125 0-185.5 77T111 673v425h152V664q0-88 34-128t94-40q65 0 126 32.5T629 611v487h152z"/><glyph glyph-name="uni04B8" unicode="Ҹ" horiz-adv-x="1058" d="M912 1462V0H751v599q-46-26-92-44.5T566 525V207h-98v305q-93 0-158.5 22T203 601t-60 115-19 167v579h159V910q0-131 45-190.5T468 659v365h98V662q43 9 89.5 27.5T751 733v729h161z"/><glyph glyph-name="uni04B9" unicode="ҹ" horiz-adv-x="931" d="M799 1098V0H647v475q-30-28-67-51t-78-39V129h-95v235q-7 0-18.5-1t-22.5-1q-130 1-192.5 77.5T111 673v425h152V664q0-94 37.5-131T407 496v301h95V513q39 16 75.5 40t69.5 58v487h152z"/><glyph glyph-name="uni04BA" unicode="Һ" horiz-adv-x="1039" d="M151 1462h159V859q80 45 162 68t155 23q142 0 216.5-92T918 579V0H758v551q0 131-41 193t-133 62q-76 0-138-20t-136-60V0H151v1462z"/><glyph glyph-name="uni04BB" unicode="һ" horiz-adv-x="923" d="M288 1556v-452q0-44-2.5-84.5T277 943h11q20 54 55.5 93t82.5 60.5 101 21.5q92 0 151-42.5t87-125T793 746V0H639v716q0 142-34 203t-110 61q-70 0-116-43t-68.5-132.5T288 575V0H134v1556h154z"/><glyph glyph-name="uni04BC" unicode="Ҽ" horiz-adv-x="1265" d="M739 1485q138 0 232.5-83t142.5-247.5 48-410.5v-71H444q7-176 45-298t110.5-185T781 127q52 0 99.5 9.5t96 27.5 101.5 45V57q-75-39-154.5-58T763-20q-153 0-259.5 80.5T340 295.5 277 673h-39q-109 0-167 52T13 879q0 33 8 73t21 70h133q-9-25-15-54.5t-6-61.5q0-52 27.5-74.5T263 809h14q7 141 38.5 263.5T404 1288t140.5 145 194.5 52zm-4-143q-75 0-128.5-43T518 1181.5 465 1011t-21-202h554q-2 261-69.5 397T735 1342z"/><glyph glyph-name="uni04BD" unicode="ҽ" horiz-adv-x="1022" d="M612 1116q112 0 183.5-65.5t106-175T936 633V522H417q2-208 63.5-310.5T664 109q59 0 115 18t117 56V48Q840 14 778.5-3T647-20q-101 0-173 41.5T357 137t-67.5 172.5T265 522q-89 1-144.5 22T39 609 13 723q0 39 6.5 71.5T41 856h126q-10-25-16-53.5t-6-60.5q0-49 25-72.5t77-24.5h20q11 152 54 257t116.5 159.5T612 1116zm-2-128q-87 0-136.5-85T418 645h374q0 92-19 170t-59.5 125.5T610 988z"/><glyph glyph-name="uni04BE" unicode="Ҿ" horiz-adv-x="1265" d="M739 1485q138 0 232.5-83t142.5-247.5 48-410.5v-71H444q7-176 45-298t110.5-185T781 127q52 0 99.5 9.5t96 27.5 101.5 45V57q-58-31-119.5-48.5T834-15v-376H679v380Q552 6 464.5 90.5T330 322t-53 351h-41q-107 0-165 52T13 879q0 33 8 73t21 70h133q-9-25-15-54.5t-6-61.5q0-50 27.5-73.5T261 809h16q7 141 38.5 263.5T404 1288t140.5 145 194.5 52zm-4-143q-75 0-128.5-43T518 1181.5 465 1011t-21-202h554q-2 261-69.5 397T735 1342z"/><glyph glyph-name="uni04BF" unicode="ҿ" horiz-adv-x="1022" d="M559-9q-96 19-161 87t-98 180.5T265 522q-89 1-144.5 22T39 609 13 723q0 39 6.5 71.5T41 856h126q-10-25-16-53.5t-6-60.5q0-49 26-73t81-24h15q11 152 54 257t116.5 159.5T612 1116q112 0 183.5-65.5t106-175T936 633V522H417q2-208 63.5-310.5T664 109q59 0 115 18t117 56V48q-43-28-89.5-44T710-16v-364H559V-9zm51 997q-87 0-136.5-85T418 645h374q0 92-19 170t-59.5 125.5T610 988z"/><glyph glyph-name="uni04C0" unicode="Ӏ" horiz-adv-x="458" d="M151 0v1462h159V0H151z"/><glyph glyph-name="uni04C1" unicode="Ӂ" horiz-adv-x="1249" d="M386 757 1 1462h173l373-704v704h155V758l374 704h170L862 757 1255 0h-176L702 749V0H547v749L169 0H-5zm529 1123q-7-100-42-167.5T776 1611t-152-34q-91 0-153 32t-95.5 99-39.5 172h131q9-109 45.5-157t111.5-48q78 0 114.5 50t45.5 155h131z"/><glyph glyph-name="uni04C2" unicode="ӂ" horiz-adv-x="1121" d="M1090 1098 789 579 1117 0H942L638 569V0H486v569L182 0H8l328 579-301 519h167l284-521v521h152V577l285 521h167zm-234 444q-7-100-42-167.5T717 1273t-152-34q-91 0-153 32t-95.5 99-39.5 172h131q9-109 45.5-157t111.5-48q78 0 114.5 50t45.5 155h131z"/><glyph glyph-name="uni04C3" unicode="Ӄ" horiz-adv-x="998" d="M871 1462 473 793q7 2 18.5 2.5t24.5.5q98-4 172-54t124-136.5 75-201T912 156q0-137-23-256.5T818.5-311t-122-142.5T518-505q-50 0-100 12t-89 34v149q44-25 85.5-37.5T496-360q71 0 119.5 43t78 116.5 43 166.5T750 158q0 105-17 197t-53 161.5-93.5 109T447 665q-33 0-68-4.5T310 644V0H151v1462h159V775q25 44 49.5 91t48.5 90l290 506h173z"/><glyph glyph-name="uni04C4" unicode="ӄ" horiz-adv-x="891" d="M821 62q0-177-38-303T672.5-433.5 494-500q-55 0-101.5 14.5T308-443v141q40-30 80-45t81-15q65 0 108.5 49T643-169.5 665 60q0 143-28 241t-83 148.5T417 500q-40 0-72-6.5T288 474V0H134v1098h154V585l299 513h168L463 627q119-8 198.5-76T781 360t40-298z"/><glyph glyph-name="uni04C5" unicode="Ӆ" horiz-adv-x="1039" d="M861 150h134L871-391H699L822 0H700v1312H442q-20-242-35.5-419.5t-28.5-301T354.5 390 335 268q-20-96-48.5-158.5T211 16 88-16q-31 0-54.5 5T-7 4v141q14-8 31.5-12.5T61 128q40 0 64 23t38 68 24 110q11 59 23 156t26 236 30 323.5 35 417.5h560V150z"/><glyph glyph-name="uni04C6" unicode="ӆ" horiz-adv-x="885" d="M726 137h128L737-380H579L693 0H573v959H363q-12-244-28.5-426.5t-47-303.5T205 48 72-12q-20 0-38 3T-1 1v133q8-4 19.5-6.5T43 125q36 0 63 43.5t46 127T184 498t22 270 15 330h505V137z"/><glyph glyph-name="uni04C7" unicode="Ӈ" horiz-adv-x="1081" d="M932 1462V45q0-157-38.5-280t-119-193T567-498q-53 0-99 11.5T382-455v149q36-22 76.5-34.5T554-353q101 0 160 103t59 300v642H310V0H151v1462h159V837h463v625h159z"/><glyph glyph-name="uni04C8" unicode="ӈ" horiz-adv-x="932" d="M798 1098V11q0-165-32.5-279T667-441t-168-59q-53 0-102.5 13.5T312-450v144q39-27 79-40.5t80-13.5q92 0 132.5 94T644 19v485H288V0H134v1098h154V637h356v461h154z"/><glyph glyph-name="uni04C9" unicode="Ӊ" horiz-adv-x="1110" d="M932 150h135L944-391H770L894 0H773v692H310V0H151v1462h159V837h463v625h159V150z"/><glyph glyph-name="uni04CA" unicode="ӊ" horiz-adv-x="956" d="M134 0v1098h154V637h356v461h154V137h126L807-380H649L765 0H644v504H288V0H134z"/><glyph glyph-name="uni04CB" unicode="Ӌ" horiz-adv-x="1039" d="M892 0H757v-391H603v536h128v458q-85-45-163-68t-152-23q-144 0-218 94.5T124 883v579h159V910q0-129 43-191t133-62q71 0 134.5 19.5T731 736v726h161V0z"/><glyph glyph-name="uni04CC" unicode="ӌ" horiz-adv-x="915" d="M781 1098V0H662v-380H512v515h117v349q-57-54-127.5-84T357 370q-125 0-185.5 77.5T111 682v416h152V671q0-88 34-128t94-40q65 0 126 32.5T629 619v479h152z"/><glyph glyph-name="uni04CD" unicode="Ӎ" horiz-adv-x="1486" d="M654 0 299 1242h-8q3-51 5-93.5t3.5-77 2-61.5.5-45V0H151v1462h225L725 246h6l350 1216h228V150h133l-124-541h-173L1271 0h-118v961q0 22 .5 51t2 64 3 76.5 3.5 89.5h-7L800 0H654z"/><glyph glyph-name="uni04CE" unicode="ӎ" horiz-adv-x="1170" d="m1138 137-118-517H865L978 0H863v606q0 57 3 126.5T876 887h-8L639 0H502L276 887h-9q6-70 9-141t3-136V0H134v1098h219l219-871 222 871h217V137h127z"/><glyph glyph-name="uni04CF" unicode="ӏ" horiz-adv-x="458" d="M151 0v1462h159V0H151z"/><glyph glyph-name="uni04D0" unicode="Ӑ" horiz-adv-x="906" d="M737 0 627 470H280L170 0H0l353 1462h193L906 0H737zM597 617l-112 496q-7 37-13.5 72.5t-12 69T449 1320q-3-32-8-66t-12-68.5-15-70.5L305 617h292zm148 1261q-7-100-42-167.5T606 1609t-152-34q-91 0-153 32t-95.5 99-39.5 172h131q9-109 45.5-157t111.5-48q78 0 114.5 50t45.5 155h131z"/><glyph glyph-name="uni04D1" unicode="ӑ" horiz-adv-x="841" d="M428 1118q152 0 217-97t65-281V0H593l-23 156h-4q-26-56-62-95.5t-82-60T316-20q-85 0-139 45T97 143.5 71 302q0 163 94 253t267 98l125 8v75q0 132-36 193t-116 61q-46 0-96.5-16T199 923l-49 116q62 40 132.5 59.5T428 1118zm131-570-102-7q-116-7-172.5-65.5T228 306q0-103 37-152t102-49q91 0 141.5 88T559 436v112zm144 994q-7-100-42-167.5T564 1273t-152-34q-91 0-153 32t-95.5 99-39.5 172h131q9-109 45.5-157t111.5-48q78 0 114.5 50t45.5 155h131z"/><glyph glyph-name="uni04D2" unicode="Ӓ" horiz-adv-x="906" d="M737 0 627 470H280L170 0H0l353 1462h193L906 0H737zM597 617l-112 496q-7 37-13.5 72.5t-12 69T449 1320q-3-32-8-66t-12-68.5-15-70.5L305 617h292zM200 1703q0 50 24 74t60 24q35 0 58.5-24.5T366 1703q0-51-23.5-76.5T284 1601q-36 0-60 25.5t-24 76.5zm328 0q0 50 24.5 74t59.5 24q36 0 60.5-24.5T697 1703q0-51-24.5-76.5T612 1601q-37 0-60.5 25.5T528 1703z"/><glyph glyph-name="uni04D3" unicode="ӓ" horiz-adv-x="841" d="M428 1118q152 0 217-97t65-281V0H593l-23 156h-4q-26-56-62-95.5t-82-60T316-20q-85 0-139 45T97 143.5 71 302q0 163 94 253t267 98l125 8v75q0 132-36 193t-116 61q-46 0-96.5-16T199 923l-49 116q62 40 132.5 59.5T428 1118zm131-570-102-7q-116-7-172.5-65.5T228 306q0-103 37-152t102-49q91 0 141.5 88T559 436v112zm-383 819q0 50 24 74t60 24q35 0 58.5-24.5T342 1367q0-51-23.5-76.5T260 1265q-36 0-60 25.5t-24 76.5zm328 0q0 50 24.5 74t59.5 24q36 0 60.5-24.5T673 1367q0-51-24.5-76.5T588 1265q-37 0-60.5 25.5T504 1367z"/><glyph glyph-name="uni04D4" unicode="Ӕ" horiz-adv-x="1252" d="M1156 0H573v470H303L169 0H-4l438 1462h722v-144H732V835h398V692H732V145h424V0zM342 617h233v699h-33z"/><glyph glyph-name="uni04D5" unicode="ӕ" horiz-adv-x="1318" d="M905 1116q113 0 185-65t106.5-174.5T1231 632V523H709q3-208 64-311t179-103q59 0 119.5 18.5T1191 183V48q-55-34-117.5-51T939-20q-73 0-135.5 27T694 85.5 620 210q-32-79-75.5-130t-98-75.5T325-20q-88 0-144.5 44.5T97.5 143 71 303q0 109 42.5 185T237 606t196 47l124 7v81q0 125-37 187t-114 62q-45 0-96-16t-110-51l-50 117q55 34 121.5 56t145.5 22q91 0 148.5-40T651 955q41 78 104.5 119.5T905 1116zM559 547l-101-6q-118-7-174-64t-56-171q0-101 36-150.5T367 106q60 0 103 39t66 111 23 171v120zm345 441q-85 0-135.5-84.5T711 645h377q0 97-19.5 174.5t-60 123T904 988z"/><glyph glyph-name="uni04D6" unicode="Ӗ" horiz-adv-x="818" d="M726 0H151v1462h575v-142H310V835h391V692H310V145h416V0zm3 1878q-7-100-42-167.5T590 1609t-152-34q-91 0-153 32t-95.5 99-39.5 172h131q9-109 45.5-157t111.5-48q78 0 114.5 50t45.5 155h131z"/><glyph glyph-name="uni04D7" unicode="ӗ" horiz-adv-x="847" d="M436 1116q112 0 184.5-65t108-175T764 631V522H241q2-205 63.5-308T490 111q59 0 116 18t118 58V49Q667 14 605-3T473-20q-137 0-222 73.5t-123.5 201T89 543q0 184 39 312t116.5 194.5T436 1116zm0-126q-87 0-136-84.5T243 645h377q0 93-19.5 171.5t-60 126T436 990zm295 552q-7-100-42-167.5T592 1273t-152-34q-91 0-153 32t-95.5 99-39.5 172h131q9-109 45.5-157t111.5-48q78 0 114.5 50t45.5 155h131z"/></font>
</defs>
</svg>
